<svg width="278" height="270" viewBox="0 0 278 270" fill="none" xmlns="http://www.w3.org/2000/svg">
<g filter="url(#filter0_d_186815_7289)">
<rect x="13" y="13" width="252" height="244" rx="24" fill="white" shape-rendering="crispEdges"/>
<rect x="29" y="29" width="144" height="27" rx="8" fill="#1FD7C1"/>
<path d="M45.7727 37.6136V36.3636H54.5V37.6136H50.8409V48H49.4318V37.6136H45.7727ZM58.8864 48.1818C58.0455 48.1818 57.3201 47.9962 56.7102 47.625C56.1042 47.25 55.6364 46.7273 55.3068 46.0568C54.9811 45.3826 54.8182 44.5985 54.8182 43.7045C54.8182 42.8106 54.9811 42.0227 55.3068 41.3409C55.6364 40.6553 56.0947 40.1212 56.6818 39.7386C57.2727 39.3523 57.9621 39.1591 58.75 39.1591C59.2045 39.1591 59.6534 39.2348 60.0966 39.3864C60.5398 39.5379 60.9432 39.7841 61.3068 40.125C61.6705 40.4621 61.9602 40.9091 62.1761 41.4659C62.392 42.0227 62.5 42.7083 62.5 43.5227V44.0909H55.7727V42.9318H61.1364C61.1364 42.4394 61.0379 42 60.8409 41.6136C60.6477 41.2273 60.3712 40.9223 60.0114 40.6989C59.6553 40.4754 59.2348 40.3636 58.75 40.3636C58.2159 40.3636 57.7538 40.4962 57.3636 40.7614C56.9773 41.0227 56.6799 41.3636 56.4716 41.7841C56.2633 42.2045 56.1591 42.6553 56.1591 43.1364V43.9091C56.1591 44.5682 56.2727 45.1269 56.5 45.5852C56.7311 46.0398 57.0511 46.3864 57.4602 46.625C57.8693 46.8598 58.3447 46.9773 58.8864 46.9773C59.2386 46.9773 59.5568 46.928 59.8409 46.8295C60.1288 46.7273 60.3769 46.5758 60.5852 46.375C60.7936 46.1705 60.9545 45.9167 61.0682 45.6136L62.3636 45.9773C62.2273 46.4167 61.9981 46.803 61.6761 47.1364C61.3542 47.4659 60.9564 47.7235 60.483 47.9091C60.0095 48.0909 59.4773 48.1818 58.8864 48.1818ZM68.0852 48.1818C67.267 48.1818 66.5625 47.9886 65.9716 47.6023C65.3807 47.2159 64.9261 46.6837 64.608 46.0057C64.2898 45.3277 64.1307 44.553 64.1307 43.6818C64.1307 42.7955 64.2936 42.0133 64.6193 41.3352C64.9489 40.6534 65.4072 40.1212 65.9943 39.7386C66.5852 39.3523 67.2746 39.1591 68.0625 39.1591C68.6761 39.1591 69.2292 39.2727 69.7216 39.5C70.214 39.7273 70.6174 40.0455 70.9318 40.4545C71.2462 40.8636 71.4413 41.3409 71.517 41.8864H70.1761C70.0739 41.4886 69.8466 41.1364 69.4943 40.8295C69.1458 40.5189 68.6761 40.3636 68.0852 40.3636C67.5625 40.3636 67.1042 40.5 66.7102 40.7727C66.3201 41.0417 66.0152 41.4223 65.7955 41.9148C65.5795 42.4034 65.4716 42.9773 65.4716 43.6364C65.4716 44.3106 65.5777 44.8977 65.7898 45.3977C66.0057 45.8977 66.3087 46.286 66.6989 46.5625C67.0928 46.839 67.5549 46.9773 68.0852 46.9773C68.4337 46.9773 68.75 46.9167 69.0341 46.7955C69.3182 46.6742 69.5587 46.5 69.7557 46.2727C69.9527 46.0455 70.0928 45.7727 70.1761 45.4545H71.517C71.4413 45.9697 71.2538 46.4337 70.9545 46.8466C70.6591 47.2557 70.267 47.5814 69.7784 47.8239C69.2936 48.0625 68.7292 48.1818 68.0852 48.1818ZM74.8182 42.75V48H73.4773V36.3636H74.8182V40.6364H74.9318C75.1364 40.1856 75.4432 39.8277 75.8523 39.5625C76.2652 39.2936 76.8144 39.1591 77.5 39.1591C78.0947 39.1591 78.6155 39.2784 79.0625 39.517C79.5095 39.7519 79.8561 40.1136 80.1023 40.6023C80.3523 41.0871 80.4773 41.7045 80.4773 42.4545V48H79.1364V42.5455C79.1364 41.8523 78.9564 41.3163 78.5966 40.9375C78.2405 40.5549 77.7462 40.3636 77.1136 40.3636C76.6742 40.3636 76.2803 40.4564 75.9318 40.642C75.5871 40.8277 75.3144 41.0985 75.1136 41.4545C74.9167 41.8106 74.8182 42.2424 74.8182 42.75ZM84.2713 42.75V48H82.9304V39.2727H84.2259V40.6364H84.3395C84.544 40.1932 84.8546 39.8371 85.2713 39.5682C85.688 39.2955 86.2259 39.1591 86.8849 39.1591C87.4759 39.1591 87.9929 39.2803 88.4361 39.5227C88.8793 39.7614 89.224 40.125 89.4702 40.6136C89.7164 41.0985 89.8395 41.7121 89.8395 42.4545V48H88.4986V42.5455C88.4986 41.8598 88.3205 41.3258 87.9645 40.9432C87.6084 40.5568 87.1198 40.3636 86.4986 40.3636C86.0705 40.3636 85.688 40.4564 85.3509 40.642C85.0175 40.8277 84.7543 41.0985 84.5611 41.4545C84.3679 41.8106 84.2713 42.2424 84.2713 42.75ZM92.2898 48V39.2727H93.6307V48H92.2898ZM92.9716 37.8182C92.7102 37.8182 92.4848 37.7292 92.2955 37.5511C92.1098 37.3731 92.017 37.1591 92.017 36.9091C92.017 36.6591 92.1098 36.4451 92.2955 36.267C92.4848 36.089 92.7102 36 92.9716 36C93.233 36 93.4564 36.089 93.642 36.267C93.8314 36.4451 93.9261 36.6591 93.9261 36.9091C93.9261 37.1591 93.8314 37.3731 93.642 37.5511C93.4564 37.7292 93.233 37.8182 92.9716 37.8182ZM99.6321 48.1818C98.8139 48.1818 98.1094 47.9886 97.5185 47.6023C96.9276 47.2159 96.473 46.6837 96.1548 46.0057C95.8366 45.3277 95.6776 44.553 95.6776 43.6818C95.6776 42.7955 95.8404 42.0133 96.1662 41.3352C96.4957 40.6534 96.9541 40.1212 97.5412 39.7386C98.1321 39.3523 98.8215 39.1591 99.6094 39.1591C100.223 39.1591 100.776 39.2727 101.268 39.5C101.761 39.7273 102.164 40.0455 102.479 40.4545C102.793 40.8636 102.988 41.3409 103.064 41.8864H101.723C101.621 41.4886 101.393 41.1364 101.041 40.8295C100.693 40.5189 100.223 40.3636 99.6321 40.3636C99.1094 40.3636 98.651 40.5 98.2571 40.7727C97.867 41.0417 97.562 41.4223 97.3423 41.9148C97.1264 42.4034 97.0185 42.9773 97.0185 43.6364C97.0185 44.3106 97.1245 44.8977 97.3366 45.3977C97.5526 45.8977 97.8556 46.286 98.2457 46.5625C98.6397 46.839 99.1018 46.9773 99.6321 46.9773C99.9806 46.9773 100.297 46.9167 100.581 46.7955C100.865 46.6742 101.106 46.5 101.303 46.2727C101.5 46.0455 101.64 45.7727 101.723 45.4545H103.064C102.988 45.9697 102.801 46.4337 102.501 46.8466C102.206 47.2557 101.814 47.5814 101.325 47.8239C100.84 48.0625 100.276 48.1818 99.6321 48.1818ZM107.592 48.2045C107.039 48.2045 106.537 48.1004 106.087 47.892C105.636 47.6799 105.278 47.375 105.013 46.9773C104.748 46.5758 104.615 46.0909 104.615 45.5227C104.615 45.0227 104.714 44.6174 104.911 44.3068C105.107 43.9924 105.371 43.7462 105.7 43.5682C106.03 43.3902 106.393 43.2576 106.791 43.1705C107.193 43.0795 107.596 43.0076 108.001 42.9545C108.532 42.8864 108.962 42.8352 109.291 42.8011C109.625 42.7633 109.867 42.7008 110.018 42.6136C110.174 42.5265 110.251 42.375 110.251 42.1591V42.1136C110.251 41.553 110.098 41.1174 109.791 40.8068C109.488 40.4962 109.028 40.3409 108.411 40.3409C107.77 40.3409 107.268 40.4811 106.905 40.7614C106.541 41.0417 106.286 41.3409 106.138 41.6591L104.865 41.2045C105.092 40.6742 105.395 40.2614 105.774 39.9659C106.157 39.6667 106.573 39.4583 107.024 39.3409C107.479 39.2197 107.926 39.1591 108.365 39.1591C108.645 39.1591 108.967 39.1932 109.331 39.2614C109.698 39.3258 110.053 39.4602 110.393 39.6648C110.738 39.8693 111.024 40.178 111.251 40.5909C111.479 41.0038 111.592 41.5568 111.592 42.25V48H110.251V46.8182H110.183C110.092 47.0076 109.941 47.2102 109.729 47.4261C109.517 47.642 109.234 47.8258 108.882 47.9773C108.53 48.1288 108.1 48.2045 107.592 48.2045ZM107.797 47C108.327 47 108.774 46.8958 109.138 46.6875C109.505 46.4792 109.782 46.2102 109.967 45.8807C110.157 45.5511 110.251 45.2045 110.251 44.8409V43.6136C110.195 43.6818 110.07 43.7443 109.876 43.8011C109.687 43.8542 109.467 43.9015 109.217 43.9432C108.971 43.9811 108.731 44.0152 108.496 44.0455C108.265 44.072 108.077 44.0947 107.933 44.1136C107.585 44.1591 107.259 44.233 106.956 44.3352C106.657 44.4337 106.414 44.5833 106.229 44.7841C106.047 44.9811 105.956 45.25 105.956 45.5909C105.956 46.0568 106.128 46.4091 106.473 46.6477C106.821 46.8826 107.263 47 107.797 47ZM115.381 36.3636V48H114.04V36.3636H115.381ZM121.882 37.6136V36.3636H130.609V37.6136H126.95V48H125.541V37.6136H121.882ZM133.983 48.2045C133.43 48.2045 132.928 48.1004 132.477 47.892C132.027 47.6799 131.669 47.375 131.403 46.9773C131.138 46.5758 131.006 46.0909 131.006 45.5227C131.006 45.0227 131.104 44.6174 131.301 44.3068C131.498 43.9924 131.761 43.7462 132.091 43.5682C132.42 43.3902 132.784 43.2576 133.182 43.1705C133.583 43.0795 133.987 43.0076 134.392 42.9545C134.922 42.8864 135.352 42.8352 135.682 42.8011C136.015 42.7633 136.258 42.7008 136.409 42.6136C136.564 42.5265 136.642 42.375 136.642 42.1591V42.1136C136.642 41.553 136.489 41.1174 136.182 40.8068C135.879 40.4962 135.419 40.3409 134.801 40.3409C134.161 40.3409 133.659 40.4811 133.295 40.7614C132.932 41.0417 132.676 41.3409 132.528 41.6591L131.256 41.2045C131.483 40.6742 131.786 40.2614 132.165 39.9659C132.547 39.6667 132.964 39.4583 133.415 39.3409C133.869 39.2197 134.316 39.1591 134.756 39.1591C135.036 39.1591 135.358 39.1932 135.722 39.2614C136.089 39.3258 136.443 39.4602 136.784 39.6648C137.129 39.8693 137.415 40.178 137.642 40.5909C137.869 41.0038 137.983 41.5568 137.983 42.25V48H136.642V46.8182H136.574C136.483 47.0076 136.331 47.2102 136.119 47.4261C135.907 47.642 135.625 47.8258 135.273 47.9773C134.92 48.1288 134.491 48.2045 133.983 48.2045ZM134.188 47C134.718 47 135.165 46.8958 135.528 46.6875C135.896 46.4792 136.172 46.2102 136.358 45.8807C136.547 45.5511 136.642 45.2045 136.642 44.8409V43.6136C136.585 43.6818 136.46 43.7443 136.267 43.8011C136.078 43.8542 135.858 43.9015 135.608 43.9432C135.362 43.9811 135.121 44.0152 134.886 44.0455C134.655 44.072 134.468 44.0947 134.324 44.1136C133.975 44.1591 133.65 44.233 133.347 44.3352C133.047 44.4337 132.805 44.5833 132.619 44.7841C132.438 44.9811 132.347 45.25 132.347 45.5909C132.347 46.0568 132.519 46.4091 132.864 46.6477C133.212 46.8826 133.653 47 134.188 47ZM146.612 41.2273L145.408 41.5682C145.332 41.3674 145.22 41.1723 145.072 40.983C144.929 40.7898 144.732 40.6307 144.482 40.5057C144.232 40.3807 143.911 40.3182 143.521 40.3182C142.987 40.3182 142.542 40.4413 142.186 40.6875C141.834 40.9299 141.658 41.2386 141.658 41.6136C141.658 41.947 141.779 42.2102 142.021 42.4034C142.264 42.5966 142.643 42.7576 143.158 42.8864L144.453 43.2045C145.233 43.3939 145.815 43.6837 146.197 44.0739C146.58 44.4602 146.771 44.9583 146.771 45.5682C146.771 46.0682 146.627 46.5152 146.339 46.9091C146.055 47.303 145.658 47.6136 145.146 47.8409C144.635 48.0682 144.04 48.1818 143.362 48.1818C142.472 48.1818 141.735 47.9886 141.152 47.6023C140.569 47.2159 140.199 46.6515 140.044 45.9091L141.317 45.5909C141.438 46.0606 141.667 46.4129 142.004 46.6477C142.345 46.8826 142.79 47 143.339 47C143.964 47 144.461 46.8674 144.828 46.6023C145.199 46.3333 145.385 46.0114 145.385 45.6364C145.385 45.3333 145.279 45.0795 145.067 44.875C144.855 44.6667 144.529 44.5114 144.089 44.4091L142.635 44.0682C141.836 43.8788 141.249 43.5852 140.874 43.1875C140.502 42.786 140.317 42.2841 140.317 41.6818C140.317 41.1894 140.455 40.7538 140.732 40.375C141.012 39.9962 141.393 39.6989 141.874 39.483C142.358 39.267 142.908 39.1591 143.521 39.1591C144.385 39.1591 145.063 39.3485 145.555 39.7273C146.052 40.1061 146.404 40.6061 146.612 41.2273ZM150.04 44.8182L150.017 43.1591H150.29L154.108 39.2727H155.767L151.699 43.3864H151.585L150.04 44.8182ZM148.79 48V36.3636H150.131V48H148.79ZM154.335 48L150.926 43.6818L151.881 42.75L156.04 48H154.335Z" fill="white"/>
<path d="M40.2784 87.4375H37.7898C37.7443 87.1155 37.6515 86.8295 37.5114 86.5795C37.3712 86.3258 37.1913 86.1098 36.9716 85.9318C36.7519 85.7538 36.4981 85.6174 36.2102 85.5227C35.9261 85.428 35.6174 85.3807 35.2841 85.3807C34.6818 85.3807 34.1572 85.5303 33.7102 85.8295C33.2633 86.125 32.9167 86.5568 32.6705 87.125C32.4242 87.6894 32.3011 88.375 32.3011 89.1818C32.3011 90.0114 32.4242 90.7083 32.6705 91.2727C32.9205 91.8371 33.2689 92.2633 33.7159 92.5511C34.1629 92.839 34.6799 92.983 35.267 92.983C35.5966 92.983 35.9015 92.9394 36.1818 92.8523C36.4659 92.7652 36.7178 92.6383 36.9375 92.4716C37.1572 92.3011 37.339 92.0947 37.483 91.8523C37.6307 91.6098 37.733 91.3333 37.7898 91.0227L40.2784 91.0341C40.214 91.5682 40.053 92.0833 39.7955 92.5795C39.5417 93.072 39.1989 93.5133 38.767 93.9034C38.339 94.2898 37.8277 94.5966 37.233 94.8239C36.642 95.0473 35.9735 95.1591 35.2273 95.1591C34.1894 95.1591 33.2614 94.9242 32.4432 94.4545C31.6288 93.9848 30.9848 93.3049 30.5114 92.4148C30.0417 91.5246 29.8068 90.447 29.8068 89.1818C29.8068 87.9129 30.0455 86.8333 30.5227 85.9432C31 85.053 31.6477 84.375 32.4659 83.9091C33.2841 83.4394 34.2045 83.2045 35.2273 83.2045C35.9015 83.2045 36.5265 83.2992 37.1023 83.4886C37.6818 83.678 38.1951 83.9545 38.642 84.3182C39.089 84.678 39.4527 85.1193 39.733 85.642C40.017 86.1648 40.1989 86.7633 40.2784 87.4375ZM48.3551 86.7102C48.3097 86.2519 48.1146 85.8958 47.7699 85.642C47.4252 85.3883 46.9574 85.2614 46.3665 85.2614C45.965 85.2614 45.6259 85.3182 45.3494 85.4318C45.0729 85.5417 44.8608 85.6951 44.7131 85.892C44.5691 86.089 44.4972 86.3125 44.4972 86.5625C44.4896 86.7708 44.5331 86.9527 44.6278 87.108C44.7263 87.2633 44.8608 87.3977 45.0312 87.5114C45.2017 87.6212 45.3987 87.7178 45.6222 87.8011C45.8456 87.8807 46.0843 87.9489 46.3381 88.0057L47.3835 88.2557C47.8911 88.3693 48.357 88.5208 48.7812 88.7102C49.2055 88.8996 49.5729 89.1326 49.8835 89.4091C50.1941 89.6856 50.4347 90.0114 50.6051 90.3864C50.7794 90.7614 50.8684 91.1913 50.8722 91.6761C50.8684 92.3883 50.6866 93.0057 50.3267 93.5284C49.9706 94.0473 49.4555 94.4508 48.7812 94.7386C48.1108 95.0227 47.3021 95.1648 46.3551 95.1648C45.4157 95.1648 44.5975 95.0208 43.9006 94.733C43.2074 94.4451 42.6657 94.0189 42.2756 93.4545C41.8892 92.8864 41.6866 92.1837 41.6676 91.3466H44.0483C44.0748 91.7367 44.1866 92.0625 44.3835 92.3239C44.5843 92.5814 44.8513 92.7765 45.1847 92.9091C45.5218 93.0379 45.9025 93.1023 46.3267 93.1023C46.7434 93.1023 47.1051 93.0417 47.4119 92.9205C47.7225 92.7992 47.9631 92.6307 48.1335 92.4148C48.304 92.1989 48.3892 91.9508 48.3892 91.6705C48.3892 91.4091 48.3116 91.1894 48.1562 91.0114C48.0047 90.8333 47.7813 90.6818 47.4858 90.5568C47.1941 90.4318 46.8362 90.3182 46.4119 90.2159L45.1449 89.8977C44.1638 89.6591 43.3892 89.286 42.821 88.7784C42.2528 88.2708 41.9706 87.5871 41.9744 86.7273C41.9706 86.0227 42.1581 85.4072 42.5369 84.8807C42.9195 84.3542 43.4441 83.9432 44.1108 83.6477C44.7775 83.3523 45.535 83.2045 46.3835 83.2045C47.2472 83.2045 48.0009 83.3523 48.6449 83.6477C49.2926 83.9432 49.7964 84.3542 50.1562 84.8807C50.5161 85.4072 50.7017 86.017 50.7131 86.7102H48.3551ZM58.8395 86.7102C58.794 86.2519 58.599 85.8958 58.2543 85.642C57.9096 85.3883 57.4418 85.2614 56.8509 85.2614C56.4493 85.2614 56.1103 85.3182 55.8338 85.4318C55.5573 85.5417 55.3452 85.6951 55.1974 85.892C55.0535 86.089 54.9815 86.3125 54.9815 86.5625C54.974 86.7708 55.0175 86.9527 55.1122 87.108C55.2107 87.2633 55.3452 87.3977 55.5156 87.5114C55.6861 87.6212 55.883 87.7178 56.1065 87.8011C56.33 87.8807 56.5687 87.9489 56.8224 88.0057L57.8679 88.2557C58.3755 88.3693 58.8414 88.5208 59.2656 88.7102C59.6899 88.8996 60.0573 89.1326 60.3679 89.4091C60.6785 89.6856 60.919 90.0114 61.0895 90.3864C61.2637 90.7614 61.3527 91.1913 61.3565 91.6761C61.3527 92.3883 61.1709 93.0057 60.8111 93.5284C60.455 94.0473 59.9399 94.4508 59.2656 94.7386C58.5952 95.0227 57.7865 95.1648 56.8395 95.1648C55.9001 95.1648 55.0819 95.0208 54.3849 94.733C53.6918 94.4451 53.1501 94.0189 52.7599 93.4545C52.3736 92.8864 52.1709 92.1837 52.152 91.3466H54.5327C54.5592 91.7367 54.6709 92.0625 54.8679 92.3239C55.0687 92.5814 55.3357 92.7765 55.669 92.9091C56.0062 93.0379 56.3868 93.1023 56.8111 93.1023C57.2277 93.1023 57.5895 93.0417 57.8963 92.9205C58.2069 92.7992 58.4474 92.6307 58.6179 92.4148C58.7884 92.1989 58.8736 91.9508 58.8736 91.6705C58.8736 91.4091 58.7959 91.1894 58.6406 91.0114C58.4891 90.8333 58.2656 90.6818 57.9702 90.5568C57.6785 90.4318 57.3205 90.3182 56.8963 90.2159L55.6293 89.8977C54.6482 89.6591 53.8736 89.286 53.3054 88.7784C52.7372 88.2708 52.455 87.5871 52.4588 86.7273C52.455 86.0227 52.6425 85.4072 53.0213 84.8807C53.4039 84.3542 53.9285 83.9432 54.5952 83.6477C55.2618 83.3523 56.0194 83.2045 56.8679 83.2045C57.7315 83.2045 58.4853 83.3523 59.1293 83.6477C59.777 83.9432 60.2808 84.3542 60.6406 84.8807C61.0005 85.4072 61.1861 86.017 61.1974 86.7102H58.8395ZM68.7202 95H66.0838L70.1009 83.3636H73.2713L77.2827 95H74.6463L71.7315 86.0227H71.6406L68.7202 95ZM68.5554 90.4261H74.7827V92.3466H68.5554V90.4261ZM78.6378 95V86.2727H80.9844V87.7955H81.0753C81.2344 87.2538 81.5014 86.8447 81.8764 86.5682C82.2514 86.2879 82.6832 86.1477 83.1719 86.1477C83.2931 86.1477 83.4238 86.1553 83.5639 86.1705C83.7041 86.1856 83.8272 86.2064 83.9332 86.233V88.3807C83.8196 88.3466 83.6624 88.3163 83.4616 88.2898C83.2609 88.2633 83.0772 88.25 82.9105 88.25C82.5545 88.25 82.2363 88.3277 81.956 88.483C81.6795 88.6345 81.4598 88.8466 81.2969 89.1193C81.1378 89.392 81.0582 89.7064 81.0582 90.0625V95H78.6378ZM88.7216 95.1705C87.8277 95.1705 87.0587 94.9811 86.4148 94.6023C85.7746 94.2197 85.2822 93.6894 84.9375 93.0114C84.5966 92.3333 84.4261 91.553 84.4261 90.6705C84.4261 89.7765 84.5985 88.9924 84.9432 88.3182C85.2917 87.6402 85.786 87.1117 86.4261 86.733C87.0663 86.3504 87.8277 86.1591 88.7102 86.1591C89.4716 86.1591 90.1383 86.2973 90.7102 86.5739C91.2822 86.8504 91.7348 87.2386 92.0682 87.7386C92.4015 88.2386 92.5852 88.8258 92.6193 89.5H90.3352C90.2708 89.0644 90.1004 88.714 89.8239 88.4489C89.5511 88.1799 89.1932 88.0455 88.75 88.0455C88.375 88.0455 88.0473 88.1477 87.767 88.3523C87.4905 88.553 87.2746 88.8466 87.1193 89.233C86.964 89.6193 86.8864 90.0871 86.8864 90.6364C86.8864 91.1932 86.9621 91.6667 87.1136 92.0568C87.2689 92.447 87.4867 92.7443 87.767 92.9489C88.0473 93.1534 88.375 93.2557 88.75 93.2557C89.0265 93.2557 89.2746 93.1989 89.4943 93.0852C89.7178 92.9716 89.9015 92.8068 90.0455 92.5909C90.1932 92.3712 90.2898 92.108 90.3352 91.8011H92.6193C92.5814 92.4678 92.3996 93.0549 92.0739 93.5625C91.7519 94.0663 91.3068 94.4602 90.7386 94.7443C90.1705 95.0284 89.4981 95.1705 88.7216 95.1705ZM96.5895 89.9545V95H94.169V83.3636H96.5213V87.8125H96.6236C96.8205 87.2973 97.1387 86.8939 97.5781 86.6023C98.0175 86.3068 98.5687 86.1591 99.2315 86.1591C99.8376 86.1591 100.366 86.2917 100.817 86.5568C101.271 86.8182 101.624 87.1951 101.874 87.6875C102.127 88.1761 102.252 88.7614 102.249 89.4432V95H99.8281V89.875C99.8319 89.3371 99.6955 88.9186 99.419 88.6193C99.1463 88.3201 98.7637 88.1705 98.2713 88.1705C97.9418 88.1705 97.6501 88.2405 97.3963 88.3807C97.1463 88.5208 96.9493 88.7254 96.8054 88.9943C96.6652 89.2595 96.5933 89.5795 96.5895 89.9545ZM104.153 95V86.2727H106.574V95H104.153ZM105.369 85.1477C105.009 85.1477 104.701 85.0284 104.443 84.7898C104.189 84.5473 104.062 84.2576 104.062 83.9205C104.062 83.5871 104.189 83.3011 104.443 83.0625C104.701 82.8201 105.009 82.6989 105.369 82.6989C105.729 82.6989 106.036 82.8201 106.29 83.0625C106.547 83.3011 106.676 83.5871 106.676 83.9205C106.676 84.2576 106.547 84.5473 106.29 84.7898C106.036 85.0284 105.729 85.1477 105.369 85.1477ZM113.155 86.2727V88.0909H107.899V86.2727H113.155ZM109.092 84.1818H111.513V92.3182C111.513 92.5417 111.547 92.7159 111.615 92.8409C111.683 92.9621 111.778 93.0473 111.899 93.0966C112.024 93.1458 112.168 93.1705 112.331 93.1705C112.445 93.1705 112.558 93.161 112.672 93.142C112.786 93.1193 112.873 93.1023 112.933 93.0909L113.314 94.892C113.193 94.9299 113.022 94.9735 112.803 95.0227C112.583 95.0758 112.316 95.108 112.001 95.1193C111.418 95.142 110.907 95.0644 110.467 94.8864C110.032 94.7083 109.693 94.4318 109.45 94.0568C109.208 93.6818 109.089 93.2083 109.092 92.6364V84.1818ZM118.615 95.1705C117.717 95.1705 116.945 94.9886 116.297 94.625C115.653 94.2576 115.157 93.7386 114.808 93.0682C114.46 92.3939 114.286 91.5966 114.286 90.6761C114.286 89.7784 114.46 88.9905 114.808 88.3125C115.157 87.6345 115.647 87.1061 116.28 86.7273C116.916 86.3485 117.662 86.1591 118.518 86.1591C119.094 86.1591 119.63 86.2519 120.126 86.4375C120.626 86.6193 121.062 86.8939 121.433 87.2614C121.808 87.6288 122.1 88.0909 122.308 88.6477C122.517 89.2008 122.621 89.8485 122.621 90.5909V91.2557H115.251V89.7557H120.342C120.342 89.4072 120.267 89.0985 120.115 88.8295C119.964 88.5606 119.753 88.3504 119.484 88.1989C119.219 88.0436 118.911 87.9659 118.558 87.9659C118.191 87.9659 117.865 88.0511 117.581 88.2216C117.301 88.3883 117.081 88.6136 116.922 88.8977C116.763 89.178 116.681 89.4905 116.678 89.8352V91.2614C116.678 91.6932 116.757 92.0663 116.916 92.3807C117.079 92.6951 117.308 92.9375 117.604 93.108C117.899 93.2784 118.25 93.3636 118.655 93.3636C118.924 93.3636 119.17 93.3258 119.393 93.25C119.617 93.1742 119.808 93.0606 119.967 92.9091C120.126 92.7576 120.248 92.572 120.331 92.3523L122.57 92.5C122.456 93.0379 122.223 93.5076 121.871 93.9091C121.522 94.3068 121.071 94.6174 120.518 94.8409C119.969 95.0606 119.335 95.1705 118.615 95.1705ZM128.143 95.1705C127.25 95.1705 126.481 94.9811 125.837 94.6023C125.196 94.2197 124.704 93.6894 124.359 93.0114C124.018 92.3333 123.848 91.553 123.848 90.6705C123.848 89.7765 124.02 88.9924 124.365 88.3182C124.714 87.6402 125.208 87.1117 125.848 86.733C126.488 86.3504 127.25 86.1591 128.132 86.1591C128.893 86.1591 129.56 86.2973 130.132 86.5739C130.704 86.8504 131.157 87.2386 131.49 87.7386C131.823 88.2386 132.007 88.8258 132.041 89.5H129.757C129.693 89.0644 129.522 88.714 129.246 88.4489C128.973 88.1799 128.615 88.0455 128.172 88.0455C127.797 88.0455 127.469 88.1477 127.189 88.3523C126.912 88.553 126.696 88.8466 126.541 89.233C126.386 89.6193 126.308 90.0871 126.308 90.6364C126.308 91.1932 126.384 91.6667 126.536 92.0568C126.691 92.447 126.909 92.7443 127.189 92.9489C127.469 93.1534 127.797 93.2557 128.172 93.2557C128.448 93.2557 128.696 93.1989 128.916 93.0852C129.14 92.9716 129.323 92.8068 129.467 92.5909C129.615 92.3712 129.712 92.108 129.757 91.8011H132.041C132.003 92.4678 131.821 93.0549 131.496 93.5625C131.174 94.0663 130.729 94.4602 130.161 94.7443C129.592 95.0284 128.92 95.1705 128.143 95.1705ZM138.233 86.2727V88.0909H132.977V86.2727H138.233ZM134.17 84.1818H136.591V92.3182C136.591 92.5417 136.625 92.7159 136.693 92.8409C136.761 92.9621 136.856 93.0473 136.977 93.0966C137.102 93.1458 137.246 93.1705 137.409 93.1705C137.523 93.1705 137.636 93.161 137.75 93.142C137.864 93.1193 137.951 93.1023 138.011 93.0909L138.392 94.892C138.271 94.9299 138.1 94.9735 137.881 95.0227C137.661 95.0758 137.394 95.108 137.08 95.1193C136.496 95.142 135.985 95.0644 135.545 94.8864C135.11 94.7083 134.771 94.4318 134.528 94.0568C134.286 93.6818 134.167 93.2083 134.17 92.6364V84.1818ZM145.406 91.2841V86.2727H147.827V95H145.503V93.4148H145.412C145.215 93.9261 144.887 94.3371 144.429 94.6477C143.974 94.9583 143.42 95.1136 142.764 95.1136C142.181 95.1136 141.668 94.9811 141.224 94.7159C140.781 94.4508 140.435 94.0739 140.185 93.5852C139.938 93.0966 139.813 92.5114 139.81 91.8295V86.2727H142.23V91.3977C142.234 91.9129 142.372 92.3201 142.645 92.6193C142.918 92.9186 143.283 93.0682 143.741 93.0682C144.033 93.0682 144.306 93.0019 144.56 92.8693C144.813 92.733 145.018 92.5322 145.173 92.267C145.332 92.0019 145.41 91.6742 145.406 91.2841ZM149.763 95V86.2727H152.109V87.7955H152.2C152.359 87.2538 152.626 86.8447 153.001 86.5682C153.376 86.2879 153.808 86.1477 154.297 86.1477C154.418 86.1477 154.549 86.1553 154.689 86.1705C154.829 86.1856 154.952 86.2064 155.058 86.233V88.3807C154.945 88.3466 154.787 88.3163 154.587 88.2898C154.386 88.2633 154.202 88.25 154.036 88.25C153.679 88.25 153.361 88.3277 153.081 88.483C152.804 88.6345 152.585 88.8466 152.422 89.1193C152.263 89.392 152.183 89.7064 152.183 90.0625V95H149.763ZM159.881 95.1705C158.983 95.1705 158.21 94.9886 157.562 94.625C156.919 94.2576 156.422 93.7386 156.074 93.0682C155.725 92.3939 155.551 91.5966 155.551 90.6761C155.551 89.7784 155.725 88.9905 156.074 88.3125C156.422 87.6345 156.913 87.1061 157.545 86.7273C158.182 86.3485 158.928 86.1591 159.784 86.1591C160.36 86.1591 160.896 86.2519 161.392 86.4375C161.892 86.6193 162.328 86.8939 162.699 87.2614C163.074 87.6288 163.366 88.0909 163.574 88.6477C163.782 89.2008 163.886 89.8485 163.886 90.5909V91.2557H156.517V89.7557H161.608C161.608 89.4072 161.532 89.0985 161.381 88.8295C161.229 88.5606 161.019 88.3504 160.75 88.1989C160.485 88.0436 160.176 87.9659 159.824 87.9659C159.456 87.9659 159.131 88.0511 158.847 88.2216C158.566 88.3883 158.347 88.6136 158.188 88.8977C158.028 89.178 157.947 89.4905 157.943 89.8352V91.2614C157.943 91.6932 158.023 92.0663 158.182 92.3807C158.345 92.6951 158.574 92.9375 158.869 93.108C159.165 93.2784 159.515 93.3636 159.92 93.3636C160.189 93.3636 160.436 93.3258 160.659 93.25C160.883 93.1742 161.074 93.0606 161.233 92.9091C161.392 92.7576 161.513 92.572 161.597 92.3523L163.835 92.5C163.722 93.0379 163.489 93.5076 163.136 93.9091C162.788 94.3068 162.337 94.6174 161.784 94.8409C161.235 95.0606 160.6 95.1705 159.881 95.1705ZM169.214 95V83.3636H173.805C174.688 83.3636 175.44 83.5322 176.061 83.8693C176.682 84.2027 177.156 84.6667 177.482 85.2614C177.811 85.8523 177.976 86.5341 177.976 87.3068C177.976 88.0795 177.809 88.7614 177.476 89.3523C177.143 89.9432 176.66 90.4034 176.027 90.733C175.398 91.0625 174.637 91.2273 173.743 91.2273H170.817V89.2557H173.345C173.819 89.2557 174.209 89.1742 174.516 89.0114C174.826 88.8447 175.057 88.6155 175.209 88.3239C175.364 88.0284 175.442 87.6894 175.442 87.3068C175.442 86.9205 175.364 86.5833 175.209 86.2955C175.057 86.0038 174.826 85.7784 174.516 85.6193C174.205 85.4564 173.811 85.375 173.334 85.375H171.675V95H169.214ZM181.949 83.3636V95H179.528V83.3636H181.949ZM186.376 95.1648C185.82 95.1648 185.323 95.0682 184.888 94.875C184.452 94.678 184.107 94.3883 183.854 94.0057C183.604 93.6193 183.479 93.1383 183.479 92.5625C183.479 92.0777 183.568 91.6705 183.746 91.3409C183.924 91.0114 184.166 90.7462 184.473 90.5455C184.78 90.3447 185.128 90.1932 185.518 90.0909C185.912 89.9886 186.325 89.9167 186.757 89.875C187.265 89.822 187.674 89.7727 187.984 89.7273C188.295 89.678 188.52 89.6061 188.661 89.5114C188.801 89.4167 188.871 89.2765 188.871 89.0909V89.0568C188.871 88.697 188.757 88.4186 188.53 88.2216C188.306 88.0246 187.988 87.9261 187.575 87.9261C187.14 87.9261 186.793 88.0227 186.536 88.2159C186.278 88.4053 186.107 88.6439 186.024 88.9318L183.786 88.75C183.899 88.2197 184.123 87.7614 184.456 87.375C184.789 86.9848 185.219 86.6856 185.746 86.4773C186.276 86.2652 186.89 86.1591 187.587 86.1591C188.071 86.1591 188.536 86.2159 188.979 86.3295C189.426 86.4432 189.821 86.6193 190.166 86.858C190.515 87.0966 190.789 87.4034 190.99 87.7784C191.191 88.1496 191.291 88.5947 191.291 89.1136V95H188.996V93.7898H188.928C188.787 94.0625 188.6 94.303 188.365 94.5114C188.13 94.7159 187.848 94.8769 187.518 94.9943C187.189 95.108 186.808 95.1648 186.376 95.1648ZM187.07 93.4943C187.426 93.4943 187.74 93.4242 188.013 93.2841C188.286 93.1402 188.5 92.947 188.655 92.7045C188.81 92.4621 188.888 92.1875 188.888 91.8807V90.9545C188.812 91.0038 188.708 91.0492 188.575 91.0909C188.446 91.1288 188.301 91.1648 188.138 91.1989C187.975 91.2292 187.812 91.2576 187.649 91.2841C187.486 91.3068 187.339 91.3277 187.206 91.3466C186.922 91.3883 186.674 91.4545 186.462 91.5455C186.25 91.6364 186.085 91.7595 185.967 91.9148C185.85 92.0663 185.791 92.2557 185.791 92.483C185.791 92.8125 185.911 93.0644 186.149 93.2386C186.392 93.4091 186.698 93.4943 187.07 93.4943ZM195.589 89.9545V95H193.169V86.2727H195.476V87.8125H195.578C195.771 87.3049 196.095 86.9034 196.55 86.608C197.004 86.3087 197.555 86.1591 198.203 86.1591C198.809 86.1591 199.338 86.2917 199.788 86.5568C200.239 86.822 200.589 87.2008 200.839 87.6932C201.089 88.1818 201.214 88.7652 201.214 89.4432V95H198.794V89.875C198.798 89.3409 198.661 88.9242 198.385 88.625C198.108 88.322 197.728 88.1705 197.243 88.1705C196.917 88.1705 196.629 88.2405 196.379 88.3807C196.133 88.5208 195.94 88.7254 195.8 88.9943C195.663 89.2595 195.593 89.5795 195.589 89.9545ZM205.543 89.9545V95H203.122V86.2727H205.429V87.8125H205.531C205.724 87.3049 206.048 86.9034 206.503 86.608C206.957 86.3087 207.509 86.1591 208.156 86.1591C208.762 86.1591 209.291 86.2917 209.741 86.5568C210.192 86.822 210.543 87.2008 210.793 87.6932C211.043 88.1818 211.168 88.7652 211.168 89.4432V95H208.747V89.875C208.751 89.3409 208.615 88.9242 208.338 88.625C208.062 88.322 207.681 88.1705 207.196 88.1705C206.87 88.1705 206.582 88.2405 206.332 88.3807C206.086 88.5208 205.893 88.7254 205.753 88.9943C205.616 89.2595 205.546 89.5795 205.543 89.9545ZM213.075 95V86.2727H215.496V95H213.075ZM214.291 85.1477C213.931 85.1477 213.623 85.0284 213.365 84.7898C213.111 84.5473 212.984 84.2576 212.984 83.9205C212.984 83.5871 213.111 83.3011 213.365 83.0625C213.623 82.8201 213.931 82.6989 214.291 82.6989C214.651 82.6989 214.958 82.8201 215.212 83.0625C215.469 83.3011 215.598 83.5871 215.598 83.9205C215.598 84.2576 215.469 84.5473 215.212 84.7898C214.958 85.0284 214.651 85.1477 214.291 85.1477ZM219.855 89.9545V95H217.435V86.2727H219.741V87.8125H219.844C220.037 87.3049 220.361 86.9034 220.815 86.608C221.27 86.3087 221.821 86.1591 222.469 86.1591C223.075 86.1591 223.603 86.2917 224.054 86.5568C224.505 86.822 224.855 87.2008 225.105 87.6932C225.355 88.1818 225.48 88.7652 225.48 89.4432V95H223.06V89.875C223.063 89.3409 222.927 88.9242 222.651 88.625C222.374 88.322 221.993 88.1705 221.509 88.1705C221.183 88.1705 220.895 88.2405 220.645 88.3807C220.399 88.5208 220.205 88.7254 220.065 88.9943C219.929 89.2595 219.859 89.5795 219.855 89.9545ZM231.32 98.4545C230.536 98.4545 229.863 98.3466 229.303 98.1307C228.746 97.9186 228.303 97.6288 227.973 97.2614C227.643 96.8939 227.429 96.4811 227.331 96.0227L229.57 95.7216C229.638 95.8958 229.746 96.0587 229.893 96.2102C230.041 96.3617 230.236 96.483 230.479 96.5739C230.725 96.6686 231.024 96.7159 231.376 96.7159C231.903 96.7159 232.337 96.5871 232.678 96.3295C233.022 96.0758 233.195 95.6496 233.195 95.0511V93.4545H233.092C232.986 93.697 232.827 93.9261 232.615 94.142C232.403 94.358 232.13 94.5341 231.797 94.6705C231.464 94.8068 231.066 94.875 230.604 94.875C229.948 94.875 229.352 94.7235 228.814 94.4205C228.28 94.1136 227.854 93.6458 227.536 93.017C227.221 92.3845 227.064 91.5852 227.064 90.6193C227.064 89.6307 227.225 88.8049 227.547 88.142C227.869 87.4792 228.297 86.983 228.831 86.6534C229.369 86.3239 229.958 86.1591 230.598 86.1591C231.087 86.1591 231.496 86.2424 231.825 86.4091C232.155 86.572 232.42 86.7765 232.621 87.0227C232.825 87.2652 232.982 87.5038 233.092 87.7386H233.183V86.2727H235.587V95.0852C235.587 95.8277 235.405 96.4489 235.041 96.9489C234.678 97.4489 234.174 97.8239 233.53 98.0739C232.89 98.3277 232.153 98.4545 231.32 98.4545ZM231.371 93.0568C231.761 93.0568 232.09 92.9602 232.359 92.767C232.632 92.5701 232.84 92.2898 232.984 91.9261C233.132 91.5587 233.206 91.1193 233.206 90.608C233.206 90.0966 233.134 89.6534 232.99 89.2784C232.846 88.8996 232.638 88.6061 232.365 88.3977C232.092 88.1894 231.761 88.0852 231.371 88.0852C230.973 88.0852 230.638 88.1932 230.365 88.4091C230.092 88.6212 229.886 88.9167 229.746 89.2955C229.606 89.6742 229.536 90.1117 229.536 90.608C229.536 91.1117 229.606 91.5473 229.746 91.9148C229.89 92.2784 230.096 92.5606 230.365 92.7614C230.638 92.9583 230.973 93.0568 231.371 93.0568Z" fill="#2A3647"/>
<path d="M34 122H30.4091V110.364H34.1591C35.2879 110.364 36.2538 110.597 37.0568 111.062C37.8598 111.525 38.4754 112.189 38.9034 113.057C39.3314 113.92 39.5455 114.955 39.5455 116.159C39.5455 117.371 39.3295 118.415 38.8977 119.29C38.4659 120.161 37.8371 120.831 37.0114 121.301C36.1856 121.767 35.1818 122 34 122ZM31.8182 120.75H33.9091C34.8712 120.75 35.6686 120.564 36.3011 120.193C36.9337 119.822 37.4053 119.294 37.7159 118.608C38.0265 117.922 38.1818 117.106 38.1818 116.159C38.1818 115.22 38.0284 114.411 37.7216 113.733C37.4148 113.051 36.9564 112.528 36.3466 112.165C35.7367 111.797 34.9773 111.614 34.0682 111.614H31.8182V120.75ZM45.3864 122.182C44.5455 122.182 43.8201 121.996 43.2102 121.625C42.6042 121.25 42.1364 120.727 41.8068 120.057C41.4811 119.383 41.3182 118.598 41.3182 117.705C41.3182 116.811 41.4811 116.023 41.8068 115.341C42.1364 114.655 42.5947 114.121 43.1818 113.739C43.7727 113.352 44.4621 113.159 45.25 113.159C45.7045 113.159 46.1534 113.235 46.5966 113.386C47.0398 113.538 47.4432 113.784 47.8068 114.125C48.1705 114.462 48.4602 114.909 48.6761 115.466C48.892 116.023 49 116.708 49 117.523V118.091H42.2727V116.932H47.6364C47.6364 116.439 47.5379 116 47.3409 115.614C47.1477 115.227 46.8712 114.922 46.5114 114.699C46.1553 114.475 45.7348 114.364 45.25 114.364C44.7159 114.364 44.2538 114.496 43.8636 114.761C43.4773 115.023 43.1799 115.364 42.9716 115.784C42.7633 116.205 42.6591 116.655 42.6591 117.136V117.909C42.6591 118.568 42.7727 119.127 43 119.585C43.2311 120.04 43.5511 120.386 43.9602 120.625C44.3693 120.86 44.8447 120.977 45.3864 120.977C45.7386 120.977 46.0568 120.928 46.3409 120.83C46.6288 120.727 46.8769 120.576 47.0852 120.375C47.2936 120.17 47.4545 119.917 47.5682 119.614L48.8636 119.977C48.7273 120.417 48.4981 120.803 48.1761 121.136C47.8542 121.466 47.4564 121.723 46.983 121.909C46.5095 122.091 45.9773 122.182 45.3864 122.182ZM54.9261 113.273V114.409H50.2216V113.273H54.9261ZM51.6307 122V112.068C51.6307 111.568 51.7481 111.152 51.983 110.818C52.2178 110.485 52.5227 110.235 52.8977 110.068C53.2727 109.902 53.6686 109.818 54.0852 109.818C54.4148 109.818 54.6837 109.845 54.892 109.898C55.1004 109.951 55.2557 110 55.358 110.045L54.9716 111.205C54.9034 111.182 54.8087 111.153 54.6875 111.119C54.5701 111.085 54.4148 111.068 54.2216 111.068C53.7784 111.068 53.4583 111.18 53.2614 111.403C53.0682 111.627 52.9716 111.955 52.9716 112.386V122H51.6307ZM56.8054 122V113.273H58.1463V122H56.8054ZM57.4872 111.818C57.2259 111.818 57.0005 111.729 56.8111 111.551C56.6255 111.373 56.5327 111.159 56.5327 110.909C56.5327 110.659 56.6255 110.445 56.8111 110.267C57.0005 110.089 57.2259 110 57.4872 110C57.7486 110 57.9721 110.089 58.1577 110.267C58.3471 110.445 58.4418 110.659 58.4418 110.909C58.4418 111.159 58.3471 111.373 58.1577 111.551C57.9721 111.729 57.7486 111.818 57.4872 111.818ZM61.9432 116.75V122H60.6023V113.273H61.8977V114.636H62.0114C62.2159 114.193 62.5265 113.837 62.9432 113.568C63.3598 113.295 63.8977 113.159 64.5568 113.159C65.1477 113.159 65.6648 113.28 66.108 113.523C66.5511 113.761 66.8958 114.125 67.142 114.614C67.3883 115.098 67.5114 115.712 67.5114 116.455V122H66.1705V116.545C66.1705 115.86 65.9924 115.326 65.6364 114.943C65.2803 114.557 64.7917 114.364 64.1705 114.364C63.7424 114.364 63.3598 114.456 63.0227 114.642C62.6894 114.828 62.4261 115.098 62.233 115.455C62.0398 115.811 61.9432 116.242 61.9432 116.75ZM73.6207 122.182C72.7798 122.182 72.0545 121.996 71.4446 121.625C70.8385 121.25 70.3707 120.727 70.0412 120.057C69.7154 119.383 69.5526 118.598 69.5526 117.705C69.5526 116.811 69.7154 116.023 70.0412 115.341C70.3707 114.655 70.8291 114.121 71.4162 113.739C72.0071 113.352 72.6965 113.159 73.4844 113.159C73.9389 113.159 74.3878 113.235 74.831 113.386C75.2741 113.538 75.6776 113.784 76.0412 114.125C76.4048 114.462 76.6946 114.909 76.9105 115.466C77.1264 116.023 77.2344 116.708 77.2344 117.523V118.091H70.5071V116.932H75.8707C75.8707 116.439 75.7723 116 75.5753 115.614C75.3821 115.227 75.1056 114.922 74.7457 114.699C74.3897 114.475 73.9692 114.364 73.4844 114.364C72.9503 114.364 72.4882 114.496 72.098 114.761C71.7116 115.023 71.4143 115.364 71.206 115.784C70.9976 116.205 70.8935 116.655 70.8935 117.136V117.909C70.8935 118.568 71.0071 119.127 71.2344 119.585C71.4654 120.04 71.7855 120.386 72.1946 120.625C72.6037 120.86 73.0791 120.977 73.6207 120.977C73.973 120.977 74.2912 120.928 74.5753 120.83C74.8632 120.727 75.1113 120.576 75.3196 120.375C75.5279 120.17 75.6889 119.917 75.8026 119.614L77.098 119.977C76.9616 120.417 76.7325 120.803 76.4105 121.136C76.0885 121.466 75.6908 121.723 75.2173 121.909C74.7438 122.091 74.2116 122.182 73.6207 122.182ZM93.3196 114H91.9105C91.8272 113.595 91.6813 113.239 91.473 112.932C91.2685 112.625 91.0185 112.367 90.723 112.159C90.4313 111.947 90.1075 111.788 89.7514 111.682C89.3954 111.576 89.0241 111.523 88.6378 111.523C87.9332 111.523 87.295 111.701 86.723 112.057C86.1548 112.413 85.7022 112.938 85.3651 113.631C85.0317 114.324 84.8651 115.174 84.8651 116.182C84.8651 117.189 85.0317 118.04 85.3651 118.733C85.7022 119.426 86.1548 119.951 86.723 120.307C87.295 120.663 87.9332 120.841 88.6378 120.841C89.0241 120.841 89.3954 120.788 89.7514 120.682C90.1075 120.576 90.4313 120.419 90.723 120.21C91.0185 119.998 91.2685 119.739 91.473 119.432C91.6813 119.121 91.8272 118.765 91.9105 118.364H93.3196C93.2135 118.958 93.0204 119.491 92.7401 119.96C92.4598 120.43 92.1113 120.83 91.6946 121.159C91.2779 121.485 90.8101 121.733 90.2912 121.903C89.776 122.074 89.2249 122.159 88.6378 122.159C87.6454 122.159 86.7628 121.917 85.9901 121.432C85.2173 120.947 84.6094 120.258 84.1662 119.364C83.723 118.47 83.5014 117.409 83.5014 116.182C83.5014 114.955 83.723 113.894 84.1662 113C84.6094 112.106 85.2173 111.417 85.9901 110.932C86.7628 110.447 87.6454 110.205 88.6378 110.205C89.2249 110.205 89.776 110.29 90.2912 110.46C90.8101 110.631 91.2779 110.881 91.6946 111.21C92.1113 111.536 92.4598 111.934 92.7401 112.403C93.0204 112.869 93.2135 113.402 93.3196 114ZM101.96 113.273C101.892 112.697 101.616 112.25 101.131 111.932C100.646 111.614 100.051 111.455 99.3466 111.455C98.8314 111.455 98.3807 111.538 97.9943 111.705C97.6117 111.871 97.3125 112.1 97.0966 112.392C96.8845 112.684 96.7784 113.015 96.7784 113.386C96.7784 113.697 96.8523 113.964 97 114.188C97.1515 114.407 97.3447 114.591 97.5795 114.739C97.8144 114.883 98.0606 115.002 98.3182 115.097C98.5758 115.187 98.8125 115.261 99.0284 115.318L100.21 115.636C100.513 115.716 100.85 115.826 101.222 115.966C101.597 116.106 101.955 116.297 102.295 116.54C102.64 116.778 102.924 117.085 103.148 117.46C103.371 117.835 103.483 118.295 103.483 118.841C103.483 119.47 103.318 120.038 102.989 120.545C102.663 121.053 102.186 121.456 101.557 121.756C100.932 122.055 100.172 122.205 99.2784 122.205C98.4451 122.205 97.7235 122.07 97.1136 121.801C96.5076 121.532 96.0303 121.157 95.6818 120.676C95.3371 120.195 95.142 119.636 95.0966 119H96.5511C96.589 119.439 96.7367 119.803 96.9943 120.091C97.2557 120.375 97.5852 120.587 97.983 120.727C98.3845 120.864 98.8163 120.932 99.2784 120.932C99.8163 120.932 100.299 120.845 100.727 120.67C101.155 120.492 101.494 120.246 101.744 119.932C101.994 119.614 102.119 119.242 102.119 118.818C102.119 118.432 102.011 118.117 101.795 117.875C101.58 117.633 101.295 117.436 100.943 117.284C100.591 117.133 100.21 117 99.8011 116.886L98.3693 116.477C97.4602 116.216 96.7405 115.843 96.2102 115.358C95.6799 114.873 95.4148 114.239 95.4148 113.455C95.4148 112.803 95.5909 112.235 95.9432 111.75C96.2992 111.261 96.7765 110.883 97.375 110.614C97.9773 110.341 98.6496 110.205 99.392 110.205C100.142 110.205 100.809 110.339 101.392 110.608C101.975 110.873 102.438 111.237 102.778 111.699C103.123 112.161 103.305 112.686 103.324 113.273H101.96ZM112.163 113.273C112.095 112.697 111.819 112.25 111.334 111.932C110.849 111.614 110.254 111.455 109.55 111.455C109.035 111.455 108.584 111.538 108.197 111.705C107.815 111.871 107.516 112.1 107.3 112.392C107.088 112.684 106.982 113.015 106.982 113.386C106.982 113.697 107.055 113.964 107.203 114.188C107.355 114.407 107.548 114.591 107.783 114.739C108.018 114.883 108.264 115.002 108.521 115.097C108.779 115.187 109.016 115.261 109.232 115.318L110.413 115.636C110.716 115.716 111.054 115.826 111.425 115.966C111.8 116.106 112.158 116.297 112.499 116.54C112.843 116.778 113.127 117.085 113.351 117.46C113.574 117.835 113.686 118.295 113.686 118.841C113.686 119.47 113.521 120.038 113.192 120.545C112.866 121.053 112.389 121.456 111.76 121.756C111.135 122.055 110.375 122.205 109.482 122.205C108.648 122.205 107.927 122.07 107.317 121.801C106.711 121.532 106.233 121.157 105.885 120.676C105.54 120.195 105.345 119.636 105.3 119H106.754C106.792 119.439 106.94 119.803 107.197 120.091C107.459 120.375 107.788 120.587 108.186 120.727C108.588 120.864 109.019 120.932 109.482 120.932C110.019 120.932 110.502 120.845 110.93 120.67C111.358 120.492 111.697 120.246 111.947 119.932C112.197 119.614 112.322 119.242 112.322 118.818C112.322 118.432 112.214 118.117 111.999 117.875C111.783 117.633 111.499 117.436 111.146 117.284C110.794 117.133 110.413 117 110.004 116.886L108.572 116.477C107.663 116.216 106.944 115.843 106.413 115.358C105.883 114.873 105.618 114.239 105.618 113.455C105.618 112.803 105.794 112.235 106.146 111.75C106.502 111.261 106.98 110.883 107.578 110.614C108.18 110.341 108.853 110.205 109.595 110.205C110.345 110.205 111.012 110.339 111.595 110.608C112.179 110.873 112.641 111.237 112.982 111.699C113.326 112.161 113.508 112.686 113.527 113.273H112.163ZM121.662 116.75V122H120.321V113.273H121.616V114.636H121.73C121.935 114.193 122.245 113.837 122.662 113.568C123.079 113.295 123.616 113.159 124.276 113.159C124.866 113.159 125.384 113.28 125.827 113.523C126.27 113.761 126.615 114.125 126.861 114.614C127.107 115.098 127.23 115.712 127.23 116.455V122H125.889V116.545C125.889 115.86 125.711 115.326 125.355 114.943C124.999 114.557 124.51 114.364 123.889 114.364C123.461 114.364 123.079 114.456 122.741 114.642C122.408 114.828 122.145 115.098 121.952 115.455C121.759 115.811 121.662 116.242 121.662 116.75ZM132.249 122.205C131.696 122.205 131.194 122.1 130.743 121.892C130.292 121.68 129.934 121.375 129.669 120.977C129.404 120.576 129.271 120.091 129.271 119.523C129.271 119.023 129.37 118.617 129.567 118.307C129.764 117.992 130.027 117.746 130.357 117.568C130.686 117.39 131.05 117.258 131.447 117.17C131.849 117.08 132.252 117.008 132.658 116.955C133.188 116.886 133.618 116.835 133.947 116.801C134.281 116.763 134.523 116.701 134.675 116.614C134.83 116.527 134.908 116.375 134.908 116.159V116.114C134.908 115.553 134.754 115.117 134.447 114.807C134.144 114.496 133.684 114.341 133.067 114.341C132.427 114.341 131.925 114.481 131.561 114.761C131.197 115.042 130.942 115.341 130.794 115.659L129.521 115.205C129.749 114.674 130.052 114.261 130.43 113.966C130.813 113.667 131.23 113.458 131.68 113.341C132.135 113.22 132.582 113.159 133.021 113.159C133.302 113.159 133.624 113.193 133.987 113.261C134.355 113.326 134.709 113.46 135.05 113.665C135.394 113.869 135.68 114.178 135.908 114.591C136.135 115.004 136.249 115.557 136.249 116.25V122H134.908V120.818H134.839C134.749 121.008 134.597 121.21 134.385 121.426C134.173 121.642 133.891 121.826 133.538 121.977C133.186 122.129 132.756 122.205 132.249 122.205ZM132.453 121C132.983 121 133.43 120.896 133.794 120.688C134.161 120.479 134.438 120.21 134.624 119.881C134.813 119.551 134.908 119.205 134.908 118.841V117.614C134.851 117.682 134.726 117.744 134.533 117.801C134.343 117.854 134.124 117.902 133.874 117.943C133.627 117.981 133.387 118.015 133.152 118.045C132.921 118.072 132.733 118.095 132.589 118.114C132.241 118.159 131.915 118.233 131.612 118.335C131.313 118.434 131.071 118.583 130.885 118.784C130.703 118.981 130.612 119.25 130.612 119.591C130.612 120.057 130.785 120.409 131.129 120.648C131.478 120.883 131.919 121 132.453 121ZM138.696 122V113.273H139.991V114.636H140.105C140.287 114.17 140.58 113.809 140.986 113.551C141.391 113.29 141.878 113.159 142.446 113.159C143.022 113.159 143.501 113.29 143.884 113.551C144.27 113.809 144.571 114.17 144.787 114.636H144.878C145.101 114.186 145.437 113.828 145.884 113.562C146.33 113.294 146.866 113.159 147.491 113.159C148.272 113.159 148.91 113.403 149.406 113.892C149.902 114.377 150.151 115.133 150.151 116.159V122H148.81V116.159C148.81 115.515 148.634 115.055 148.281 114.778C147.929 114.502 147.514 114.364 147.037 114.364C146.423 114.364 145.948 114.549 145.611 114.92C145.274 115.288 145.105 115.754 145.105 116.318V122H143.741V116.023C143.741 115.527 143.58 115.127 143.259 114.824C142.937 114.517 142.522 114.364 142.014 114.364C141.666 114.364 141.34 114.456 141.037 114.642C140.738 114.828 140.495 115.085 140.31 115.415C140.128 115.741 140.037 116.117 140.037 116.545V122H138.696ZM152.602 122V113.273H153.943V122H152.602ZM153.284 111.818C153.023 111.818 152.797 111.729 152.608 111.551C152.422 111.373 152.33 111.159 152.33 110.909C152.33 110.659 152.422 110.445 152.608 110.267C152.797 110.089 153.023 110 153.284 110C153.545 110 153.769 110.089 153.955 110.267C154.144 110.445 154.239 110.659 154.239 110.909C154.239 111.159 154.144 111.373 153.955 111.551C153.769 111.729 153.545 111.818 153.284 111.818ZM157.74 116.75V122H156.399V113.273H157.695V114.636H157.808C158.013 114.193 158.323 113.837 158.74 113.568C159.157 113.295 159.695 113.159 160.354 113.159C160.945 113.159 161.462 113.28 161.905 113.523C162.348 113.761 162.693 114.125 162.939 114.614C163.185 115.098 163.308 115.712 163.308 116.455V122H161.967V116.545C161.967 115.86 161.789 115.326 161.433 114.943C161.077 114.557 160.589 114.364 159.967 114.364C159.539 114.364 159.157 114.456 158.82 114.642C158.486 114.828 158.223 115.098 158.03 115.455C157.837 115.811 157.74 116.242 157.74 116.75ZM169.281 125.455C168.634 125.455 168.077 125.371 167.611 125.205C167.145 125.042 166.757 124.826 166.446 124.557C166.139 124.292 165.895 124.008 165.713 123.705L166.781 122.955C166.902 123.114 167.056 123.295 167.241 123.5C167.427 123.708 167.681 123.888 168.003 124.04C168.329 124.195 168.755 124.273 169.281 124.273C169.986 124.273 170.567 124.102 171.026 123.761C171.484 123.42 171.713 122.886 171.713 122.159V120.386H171.599C171.501 120.545 171.361 120.742 171.179 120.977C171.001 121.208 170.743 121.415 170.406 121.597C170.073 121.775 169.622 121.864 169.054 121.864C168.349 121.864 167.717 121.697 167.156 121.364C166.599 121.03 166.158 120.545 165.832 119.909C165.51 119.273 165.349 118.5 165.349 117.591C165.349 116.697 165.507 115.919 165.821 115.256C166.135 114.589 166.573 114.074 167.134 113.71C167.694 113.343 168.342 113.159 169.077 113.159C169.645 113.159 170.096 113.254 170.429 113.443C170.766 113.629 171.024 113.841 171.202 114.08C171.384 114.314 171.524 114.508 171.622 114.659H171.759V113.273H173.054V122.25C173.054 123 172.884 123.61 172.543 124.08C172.205 124.553 171.751 124.9 171.179 125.119C170.611 125.343 169.978 125.455 169.281 125.455ZM169.236 120.659C169.774 120.659 170.228 120.536 170.599 120.29C170.971 120.044 171.253 119.689 171.446 119.227C171.639 118.765 171.736 118.212 171.736 117.568C171.736 116.939 171.641 116.384 171.452 115.903C171.262 115.422 170.982 115.045 170.611 114.773C170.24 114.5 169.781 114.364 169.236 114.364C168.668 114.364 168.194 114.508 167.815 114.795C167.44 115.083 167.158 115.47 166.969 115.955C166.783 116.439 166.69 116.977 166.69 117.568C166.69 118.174 166.785 118.71 166.974 119.176C167.168 119.638 167.452 120.002 167.827 120.267C168.205 120.528 168.675 120.659 169.236 120.659ZM33.7727 141.182C32.9545 141.182 32.25 140.989 31.6591 140.602C31.0682 140.216 30.6136 139.684 30.2955 139.006C29.9773 138.328 29.8182 137.553 29.8182 136.682C29.8182 135.795 29.9811 135.013 30.3068 134.335C30.6364 133.653 31.0947 133.121 31.6818 132.739C32.2727 132.352 32.9621 132.159 33.75 132.159C34.3636 132.159 34.9167 132.273 35.4091 132.5C35.9015 132.727 36.3049 133.045 36.6193 133.455C36.9337 133.864 37.1288 134.341 37.2045 134.886H35.8636C35.7614 134.489 35.5341 134.136 35.1818 133.83C34.8333 133.519 34.3636 133.364 33.7727 133.364C33.25 133.364 32.7917 133.5 32.3977 133.773C32.0076 134.042 31.7027 134.422 31.483 134.915C31.267 135.403 31.1591 135.977 31.1591 136.636C31.1591 137.311 31.2652 137.898 31.4773 138.398C31.6932 138.898 31.9962 139.286 32.3864 139.562C32.7803 139.839 33.2424 139.977 33.7727 139.977C34.1212 139.977 34.4375 139.917 34.7216 139.795C35.0057 139.674 35.2462 139.5 35.4432 139.273C35.6402 139.045 35.7803 138.773 35.8636 138.455H37.2045C37.1288 138.97 36.9413 139.434 36.642 139.847C36.3466 140.256 35.9545 140.581 35.4659 140.824C34.9811 141.062 34.4167 141.182 33.7727 141.182ZM42.7102 141.182C41.9223 141.182 41.2311 140.994 40.6364 140.619C40.0455 140.244 39.5833 139.72 39.25 139.045C38.9205 138.371 38.7557 137.583 38.7557 136.682C38.7557 135.773 38.9205 134.979 39.25 134.301C39.5833 133.623 40.0455 133.097 40.6364 132.722C41.2311 132.347 41.9223 132.159 42.7102 132.159C43.4981 132.159 44.1875 132.347 44.7784 132.722C45.3731 133.097 45.8352 133.623 46.1648 134.301C46.4981 134.979 46.6648 135.773 46.6648 136.682C46.6648 137.583 46.4981 138.371 46.1648 139.045C45.8352 139.72 45.3731 140.244 44.7784 140.619C44.1875 140.994 43.4981 141.182 42.7102 141.182ZM42.7102 139.977C43.3087 139.977 43.8011 139.824 44.1875 139.517C44.5739 139.21 44.8598 138.807 45.0455 138.307C45.2311 137.807 45.3239 137.265 45.3239 136.682C45.3239 136.098 45.2311 135.555 45.0455 135.051C44.8598 134.547 44.5739 134.14 44.1875 133.83C43.8011 133.519 43.3087 133.364 42.7102 133.364C42.1117 133.364 41.6193 133.519 41.233 133.83C40.8466 134.14 40.5606 134.547 40.375 135.051C40.1894 135.555 40.0966 136.098 40.0966 136.682C40.0966 137.265 40.1894 137.807 40.375 138.307C40.5606 138.807 40.8466 139.21 41.233 139.517C41.6193 139.824 42.1117 139.977 42.7102 139.977ZM50.0526 135.75V141H48.7116V132.273H50.0071V133.636H50.1207C50.3253 133.193 50.6359 132.837 51.0526 132.568C51.4692 132.295 52.0071 132.159 52.6662 132.159C53.2571 132.159 53.7741 132.28 54.2173 132.523C54.6605 132.761 55.0052 133.125 55.2514 133.614C55.4976 134.098 55.6207 134.712 55.6207 135.455V141H54.2798V135.545C54.2798 134.86 54.1018 134.326 53.7457 133.943C53.3897 133.557 52.901 133.364 52.2798 133.364C51.8518 133.364 51.4692 133.456 51.1321 133.642C50.7988 133.828 50.5355 134.098 50.3423 134.455C50.1491 134.811 50.0526 135.242 50.0526 135.75ZM64.8949 132.273L61.6676 141H60.304L57.0767 132.273H58.5312L60.9403 139.227H61.0312L63.4403 132.273H64.8949ZM70.0114 141.182C69.1705 141.182 68.4451 140.996 67.8352 140.625C67.2292 140.25 66.7614 139.727 66.4318 139.057C66.1061 138.383 65.9432 137.598 65.9432 136.705C65.9432 135.811 66.1061 135.023 66.4318 134.341C66.7614 133.655 67.2197 133.121 67.8068 132.739C68.3977 132.352 69.0871 132.159 69.875 132.159C70.3295 132.159 70.7784 132.235 71.2216 132.386C71.6648 132.538 72.0682 132.784 72.4318 133.125C72.7955 133.462 73.0852 133.909 73.3011 134.466C73.517 135.023 73.625 135.708 73.625 136.523V137.091H66.8977V135.932H72.2614C72.2614 135.439 72.1629 135 71.9659 134.614C71.7727 134.227 71.4962 133.922 71.1364 133.699C70.7803 133.475 70.3598 133.364 69.875 133.364C69.3409 133.364 68.8788 133.496 68.4886 133.761C68.1023 134.023 67.8049 134.364 67.5966 134.784C67.3883 135.205 67.2841 135.655 67.2841 136.136V136.909C67.2841 137.568 67.3977 138.127 67.625 138.585C67.8561 139.04 68.1761 139.386 68.5852 139.625C68.9943 139.86 69.4697 139.977 70.0114 139.977C70.3636 139.977 70.6818 139.928 70.9659 139.83C71.2538 139.727 71.5019 139.576 71.7102 139.375C71.9186 139.17 72.0795 138.917 72.1932 138.614L73.4886 138.977C73.3523 139.417 73.1231 139.803 72.8011 140.136C72.4792 140.466 72.0814 140.723 71.608 140.909C71.1345 141.091 70.6023 141.182 70.0114 141.182ZM77.0057 135.75V141H75.6648V132.273H76.9602V133.636H77.0739C77.2784 133.193 77.589 132.837 78.0057 132.568C78.4223 132.295 78.9602 132.159 79.6193 132.159C80.2102 132.159 80.7273 132.28 81.1705 132.523C81.6136 132.761 81.9583 133.125 82.2045 133.614C82.4508 134.098 82.5739 134.712 82.5739 135.455V141H81.233V135.545C81.233 134.86 81.0549 134.326 80.6989 133.943C80.3428 133.557 79.8542 133.364 79.233 133.364C78.8049 133.364 78.4223 133.456 78.0852 133.642C77.7519 133.828 77.4886 134.098 77.2955 134.455C77.1023 134.811 77.0057 135.242 77.0057 135.75ZM88.8196 132.273V133.409H84.2969V132.273H88.8196ZM85.6151 130.182H86.956V138.5C86.956 138.879 87.0109 139.163 87.1207 139.352C87.2344 139.538 87.3783 139.663 87.5526 139.727C87.7306 139.788 87.9181 139.818 88.1151 139.818C88.2628 139.818 88.384 139.811 88.4787 139.795C88.5734 139.777 88.6491 139.761 88.706 139.75L88.9787 140.955C88.8878 140.989 88.7609 141.023 88.598 141.057C88.4351 141.095 88.2287 141.114 87.9787 141.114C87.5999 141.114 87.2287 141.032 86.8651 140.869C86.5052 140.706 86.206 140.458 85.9673 140.125C85.7325 139.792 85.6151 139.371 85.6151 138.864V130.182ZM90.8366 141V132.273H92.1776V141H90.8366ZM91.5185 130.818C91.2571 130.818 91.0317 130.729 90.8423 130.551C90.6567 130.373 90.5639 130.159 90.5639 129.909C90.5639 129.659 90.6567 129.445 90.8423 129.267C91.0317 129.089 91.2571 129 91.5185 129C91.7798 129 92.0033 129.089 92.1889 129.267C92.3783 129.445 92.473 129.659 92.473 129.909C92.473 130.159 92.3783 130.373 92.1889 130.551C92.0033 130.729 91.7798 130.818 91.5185 130.818ZM98.179 141.182C97.3911 141.182 96.6998 140.994 96.1051 140.619C95.5142 140.244 95.0521 139.72 94.7188 139.045C94.3892 138.371 94.2244 137.583 94.2244 136.682C94.2244 135.773 94.3892 134.979 94.7188 134.301C95.0521 133.623 95.5142 133.097 96.1051 132.722C96.6998 132.347 97.3911 132.159 98.179 132.159C98.9669 132.159 99.6563 132.347 100.247 132.722C100.842 133.097 101.304 133.623 101.634 134.301C101.967 134.979 102.134 135.773 102.134 136.682C102.134 137.583 101.967 138.371 101.634 139.045C101.304 139.72 100.842 140.244 100.247 140.619C99.6563 140.994 98.9669 141.182 98.179 141.182ZM98.179 139.977C98.7775 139.977 99.2699 139.824 99.6562 139.517C100.043 139.21 100.329 138.807 100.514 138.307C100.7 137.807 100.793 137.265 100.793 136.682C100.793 136.098 100.7 135.555 100.514 135.051C100.329 134.547 100.043 134.14 99.6562 133.83C99.2699 133.519 98.7775 133.364 98.179 133.364C97.5805 133.364 97.0881 133.519 96.7017 133.83C96.3153 134.14 96.0294 134.547 95.8438 135.051C95.6581 135.555 95.5653 136.098 95.5653 136.682C95.5653 137.265 95.6581 137.807 95.8438 138.307C96.0294 138.807 96.3153 139.21 96.7017 139.517C97.0881 139.824 97.5805 139.977 98.179 139.977ZM105.521 135.75V141H104.18V132.273H105.476V133.636H105.589C105.794 133.193 106.105 132.837 106.521 132.568C106.938 132.295 107.476 132.159 108.135 132.159C108.726 132.159 109.243 132.28 109.686 132.523C110.129 132.761 110.474 133.125 110.72 133.614C110.966 134.098 111.089 134.712 111.089 135.455V141H109.749V135.545C109.749 134.86 109.571 134.326 109.214 133.943C108.858 133.557 108.37 133.364 107.749 133.364C107.321 133.364 106.938 133.456 106.601 133.642C106.268 133.828 106.004 134.098 105.811 134.455C105.618 134.811 105.521 135.242 105.521 135.75ZM119.722 134.227L118.517 134.568C118.441 134.367 118.33 134.172 118.182 133.983C118.038 133.79 117.841 133.631 117.591 133.506C117.341 133.381 117.021 133.318 116.631 133.318C116.097 133.318 115.652 133.441 115.295 133.688C114.943 133.93 114.767 134.239 114.767 134.614C114.767 134.947 114.888 135.21 115.131 135.403C115.373 135.597 115.752 135.758 116.267 135.886L117.562 136.205C118.343 136.394 118.924 136.684 119.307 137.074C119.689 137.46 119.881 137.958 119.881 138.568C119.881 139.068 119.737 139.515 119.449 139.909C119.165 140.303 118.767 140.614 118.256 140.841C117.744 141.068 117.15 141.182 116.472 141.182C115.581 141.182 114.845 140.989 114.261 140.602C113.678 140.216 113.309 139.652 113.153 138.909L114.426 138.591C114.547 139.061 114.777 139.413 115.114 139.648C115.455 139.883 115.9 140 116.449 140C117.074 140 117.57 139.867 117.938 139.602C118.309 139.333 118.494 139.011 118.494 138.636C118.494 138.333 118.388 138.08 118.176 137.875C117.964 137.667 117.638 137.511 117.199 137.409L115.744 137.068C114.945 136.879 114.358 136.585 113.983 136.188C113.612 135.786 113.426 135.284 113.426 134.682C113.426 134.189 113.564 133.754 113.841 133.375C114.121 132.996 114.502 132.699 114.983 132.483C115.468 132.267 116.017 132.159 116.631 132.159C117.494 132.159 118.172 132.348 118.665 132.727C119.161 133.106 119.513 133.606 119.722 134.227ZM128.967 141.205C128.414 141.205 127.912 141.1 127.462 140.892C127.011 140.68 126.653 140.375 126.388 139.977C126.123 139.576 125.99 139.091 125.99 138.523C125.99 138.023 126.089 137.617 126.286 137.307C126.482 136.992 126.746 136.746 127.075 136.568C127.405 136.39 127.768 136.258 128.166 136.17C128.568 136.08 128.971 136.008 129.376 135.955C129.907 135.886 130.337 135.835 130.666 135.801C131 135.763 131.242 135.701 131.393 135.614C131.549 135.527 131.626 135.375 131.626 135.159V135.114C131.626 134.553 131.473 134.117 131.166 133.807C130.863 133.496 130.403 133.341 129.786 133.341C129.145 133.341 128.643 133.481 128.28 133.761C127.916 134.042 127.661 134.341 127.513 134.659L126.24 134.205C126.467 133.674 126.77 133.261 127.149 132.966C127.532 132.667 127.948 132.458 128.399 132.341C128.854 132.22 129.301 132.159 129.74 132.159C130.02 132.159 130.342 132.193 130.706 132.261C131.073 132.326 131.428 132.46 131.768 132.665C132.113 132.869 132.399 133.178 132.626 133.591C132.854 134.004 132.967 134.557 132.967 135.25V141H131.626V139.818H131.558C131.467 140.008 131.316 140.21 131.104 140.426C130.892 140.642 130.609 140.826 130.257 140.977C129.905 141.129 129.475 141.205 128.967 141.205ZM129.172 140C129.702 140 130.149 139.896 130.513 139.688C130.88 139.479 131.157 139.21 131.342 138.881C131.532 138.551 131.626 138.205 131.626 137.841V136.614C131.57 136.682 131.445 136.744 131.251 136.801C131.062 136.854 130.842 136.902 130.592 136.943C130.346 136.981 130.106 137.015 129.871 137.045C129.64 137.072 129.452 137.095 129.308 137.114C128.96 137.159 128.634 137.233 128.331 137.335C128.032 137.434 127.789 137.583 127.604 137.784C127.422 137.981 127.331 138.25 127.331 138.591C127.331 139.057 127.503 139.409 127.848 139.648C128.196 139.883 128.638 140 129.172 140ZM136.756 135.75V141H135.415V132.273H136.71V133.636H136.824C137.028 133.193 137.339 132.837 137.756 132.568C138.172 132.295 138.71 132.159 139.369 132.159C139.96 132.159 140.477 132.28 140.92 132.523C141.364 132.761 141.708 133.125 141.955 133.614C142.201 134.098 142.324 134.712 142.324 135.455V141H140.983V135.545C140.983 134.86 140.805 134.326 140.449 133.943C140.093 133.557 139.604 133.364 138.983 133.364C138.555 133.364 138.172 133.456 137.835 133.642C137.502 133.828 137.239 134.098 137.045 134.455C136.852 134.811 136.756 135.242 136.756 135.75ZM148.07 141.182C147.342 141.182 146.7 140.998 146.143 140.631C145.587 140.259 145.151 139.737 144.837 139.062C144.522 138.384 144.365 137.583 144.365 136.659C144.365 135.742 144.522 134.947 144.837 134.273C145.151 133.598 145.589 133.078 146.149 132.71C146.71 132.343 147.357 132.159 148.092 132.159C148.661 132.159 149.109 132.254 149.439 132.443C149.772 132.629 150.026 132.841 150.2 133.08C150.378 133.314 150.517 133.508 150.615 133.659H150.729V129.364H152.07V141H150.774V139.659H150.615C150.517 139.818 150.376 140.019 150.195 140.261C150.013 140.5 149.753 140.714 149.416 140.903C149.079 141.089 148.63 141.182 148.07 141.182ZM148.251 139.977C148.789 139.977 149.244 139.837 149.615 139.557C149.986 139.273 150.268 138.881 150.462 138.381C150.655 137.877 150.751 137.295 150.751 136.636C150.751 135.985 150.657 135.415 150.467 134.926C150.278 134.434 149.998 134.051 149.626 133.778C149.255 133.502 148.797 133.364 148.251 133.364C147.683 133.364 147.21 133.509 146.831 133.801C146.456 134.089 146.174 134.481 145.984 134.977C145.799 135.47 145.706 136.023 145.706 136.636C145.706 137.258 145.801 137.822 145.99 138.33C146.183 138.833 146.467 139.235 146.842 139.534C147.221 139.83 147.691 139.977 148.251 139.977ZM165.393 134.227L164.189 134.568C164.113 134.367 164.001 134.172 163.854 133.983C163.71 133.79 163.513 133.631 163.263 133.506C163.013 133.381 162.693 133.318 162.303 133.318C161.768 133.318 161.323 133.441 160.967 133.688C160.615 133.93 160.439 134.239 160.439 134.614C160.439 134.947 160.56 135.21 160.803 135.403C161.045 135.597 161.424 135.758 161.939 135.886L163.234 136.205C164.015 136.394 164.596 136.684 164.979 137.074C165.361 137.46 165.553 137.958 165.553 138.568C165.553 139.068 165.409 139.515 165.121 139.909C164.837 140.303 164.439 140.614 163.928 140.841C163.416 141.068 162.821 141.182 162.143 141.182C161.253 141.182 160.517 140.989 159.933 140.602C159.35 140.216 158.981 139.652 158.825 138.909L160.098 138.591C160.219 139.061 160.448 139.413 160.786 139.648C161.126 139.883 161.571 140 162.121 140C162.746 140 163.242 139.867 163.609 139.602C163.981 139.333 164.166 139.011 164.166 138.636C164.166 138.333 164.06 138.08 163.848 137.875C163.636 137.667 163.31 137.511 162.871 137.409L161.416 137.068C160.617 136.879 160.03 136.585 159.655 136.188C159.284 135.786 159.098 135.284 159.098 134.682C159.098 134.189 159.236 133.754 159.513 133.375C159.793 132.996 160.174 132.699 160.655 132.483C161.14 132.267 161.689 132.159 162.303 132.159C163.166 132.159 163.844 132.348 164.337 132.727C164.833 133.106 165.185 133.606 165.393 134.227ZM171.366 132.273V133.409H166.844V132.273H171.366ZM168.162 130.182H169.503V138.5C169.503 138.879 169.558 139.163 169.668 139.352C169.781 139.538 169.925 139.663 170.099 139.727C170.277 139.788 170.465 139.818 170.662 139.818C170.81 139.818 170.931 139.811 171.026 139.795C171.12 139.777 171.196 139.761 171.253 139.75L171.526 140.955C171.435 140.989 171.308 141.023 171.145 141.057C170.982 141.095 170.776 141.114 170.526 141.114C170.147 141.114 169.776 141.032 169.412 140.869C169.052 140.706 168.753 140.458 168.514 140.125C168.279 139.792 168.162 139.371 168.162 138.864V130.182ZM173.384 141V132.273H174.679V133.591H174.77C174.929 133.159 175.217 132.809 175.634 132.54C176.05 132.271 176.52 132.136 177.043 132.136C177.141 132.136 177.264 132.138 177.412 132.142C177.56 132.146 177.671 132.152 177.747 132.159V133.523C177.702 133.511 177.598 133.494 177.435 133.472C177.276 133.445 177.107 133.432 176.929 133.432C176.505 133.432 176.126 133.521 175.793 133.699C175.463 133.873 175.202 134.116 175.009 134.426C174.819 134.733 174.724 135.083 174.724 135.477V141H173.384ZM184.837 137.432V132.273H186.178V141H184.837V139.523H184.746C184.541 139.966 184.223 140.343 183.791 140.653C183.359 140.96 182.814 141.114 182.155 141.114C181.609 141.114 181.125 140.994 180.7 140.756C180.276 140.513 179.943 140.15 179.7 139.665C179.458 139.176 179.337 138.561 179.337 137.818V132.273H180.678V137.727C180.678 138.364 180.856 138.871 181.212 139.25C181.571 139.629 182.03 139.818 182.587 139.818C182.92 139.818 183.259 139.733 183.604 139.562C183.952 139.392 184.244 139.131 184.479 138.778C184.717 138.426 184.837 137.977 184.837 137.432ZM192.179 141.182C191.361 141.182 190.656 140.989 190.065 140.602C189.474 140.216 189.02 139.684 188.702 139.006C188.384 138.328 188.224 137.553 188.224 136.682C188.224 135.795 188.387 135.013 188.713 134.335C189.043 133.653 189.501 133.121 190.088 132.739C190.679 132.352 191.368 132.159 192.156 132.159C192.77 132.159 193.323 132.273 193.815 132.5C194.308 132.727 194.711 133.045 195.026 133.455C195.34 133.864 195.535 134.341 195.611 134.886H194.27C194.168 134.489 193.94 134.136 193.588 133.83C193.24 133.519 192.77 133.364 192.179 133.364C191.656 133.364 191.198 133.5 190.804 133.773C190.414 134.042 190.109 134.422 189.889 134.915C189.673 135.403 189.565 135.977 189.565 136.636C189.565 137.311 189.671 137.898 189.884 138.398C190.099 138.898 190.402 139.286 190.793 139.562C191.187 139.839 191.649 139.977 192.179 139.977C192.527 139.977 192.844 139.917 193.128 139.795C193.412 139.674 193.652 139.5 193.849 139.273C194.046 139.045 194.187 138.773 194.27 138.455H195.611C195.535 138.97 195.348 139.434 195.048 139.847C194.753 140.256 194.361 140.581 193.872 140.824C193.387 141.062 192.823 141.182 192.179 141.182ZM201.366 132.273V133.409H196.844V132.273H201.366ZM198.162 130.182H199.503V138.5C199.503 138.879 199.558 139.163 199.668 139.352C199.781 139.538 199.925 139.663 200.099 139.727C200.277 139.788 200.465 139.818 200.662 139.818C200.81 139.818 200.931 139.811 201.026 139.795C201.12 139.777 201.196 139.761 201.253 139.75L201.526 140.955C201.435 140.989 201.308 141.023 201.145 141.057C200.982 141.095 200.776 141.114 200.526 141.114C200.147 141.114 199.776 141.032 199.412 140.869C199.052 140.706 198.753 140.458 198.514 140.125C198.279 139.792 198.162 139.371 198.162 138.864V130.182ZM208.884 137.432V132.273H210.224V141H208.884V139.523H208.793C208.588 139.966 208.27 140.343 207.838 140.653C207.406 140.96 206.861 141.114 206.202 141.114C205.656 141.114 205.171 140.994 204.747 140.756C204.323 140.513 203.99 140.15 203.747 139.665C203.505 139.176 203.384 138.561 203.384 137.818V132.273H204.724V137.727C204.724 138.364 204.902 138.871 205.259 139.25C205.618 139.629 206.077 139.818 206.634 139.818C206.967 139.818 207.306 139.733 207.651 139.562C207.999 139.392 208.291 139.131 208.526 138.778C208.764 138.426 208.884 137.977 208.884 137.432ZM212.68 141V132.273H213.976V133.591H214.067C214.226 133.159 214.514 132.809 214.93 132.54C215.347 132.271 215.817 132.136 216.339 132.136C216.438 132.136 216.561 132.138 216.709 132.142C216.857 132.146 216.968 132.152 217.044 132.159V133.523C216.999 133.511 216.894 133.494 216.732 133.472C216.572 133.445 216.404 133.432 216.226 133.432C215.802 133.432 215.423 133.521 215.089 133.699C214.76 133.873 214.499 134.116 214.305 134.426C214.116 134.733 214.021 135.083 214.021 135.477V141H212.68ZM222.027 141.182C221.186 141.182 220.461 140.996 219.851 140.625C219.245 140.25 218.777 139.727 218.447 139.057C218.122 138.383 217.959 137.598 217.959 136.705C217.959 135.811 218.122 135.023 218.447 134.341C218.777 133.655 219.235 133.121 219.822 132.739C220.413 132.352 221.103 132.159 221.891 132.159C222.345 132.159 222.794 132.235 223.237 132.386C223.68 132.538 224.084 132.784 224.447 133.125C224.811 133.462 225.101 133.909 225.317 134.466C225.533 135.023 225.641 135.708 225.641 136.523V137.091H218.913V135.932H224.277C224.277 135.439 224.179 135 223.982 134.614C223.788 134.227 223.512 133.922 223.152 133.699C222.796 133.475 222.375 133.364 221.891 133.364C221.357 133.364 220.894 133.496 220.504 133.761C220.118 134.023 219.821 134.364 219.612 134.784C219.404 135.205 219.3 135.655 219.3 136.136V136.909C219.3 137.568 219.413 138.127 219.641 138.585C219.872 139.04 220.192 139.386 220.601 139.625C221.01 139.86 221.485 139.977 222.027 139.977C222.379 139.977 222.697 139.928 222.982 139.83C223.269 139.727 223.518 139.576 223.726 139.375C223.934 139.17 224.095 138.917 224.209 138.614L225.504 138.977C225.368 139.417 225.139 139.803 224.817 140.136C224.495 140.466 224.097 140.723 223.624 140.909C223.15 141.091 222.618 141.182 222.027 141.182ZM228.658 141.091C228.377 141.091 228.137 140.991 227.936 140.79C227.735 140.589 227.635 140.348 227.635 140.068C227.635 139.788 227.735 139.547 227.936 139.347C228.137 139.146 228.377 139.045 228.658 139.045C228.938 139.045 229.179 139.146 229.379 139.347C229.58 139.547 229.68 139.788 229.68 140.068C229.68 140.254 229.633 140.424 229.538 140.58C229.447 140.735 229.324 140.86 229.169 140.955C229.018 141.045 228.847 141.091 228.658 141.091ZM233.064 141.091C232.784 141.091 232.543 140.991 232.342 140.79C232.142 140.589 232.041 140.348 232.041 140.068C232.041 139.788 232.142 139.547 232.342 139.347C232.543 139.146 232.784 139.045 233.064 139.045C233.344 139.045 233.585 139.146 233.786 139.347C233.986 139.547 234.087 139.788 234.087 140.068C234.087 140.254 234.039 140.424 233.945 140.58C233.854 140.735 233.731 140.86 233.575 140.955C233.424 141.045 233.253 141.091 233.064 141.091ZM237.47 141.091C237.19 141.091 236.949 140.991 236.749 140.79C236.548 140.589 236.447 140.348 236.447 140.068C236.447 139.788 236.548 139.547 236.749 139.347C236.949 139.146 237.19 139.045 237.47 139.045C237.75 139.045 237.991 139.146 238.192 139.347C238.393 139.547 238.493 139.788 238.493 140.068C238.493 140.254 238.446 140.424 238.351 140.58C238.26 140.735 238.137 140.86 237.982 140.955C237.83 141.045 237.66 141.091 237.47 141.091Z" fill="#A8A8A8"/>
<g clip-path="url(#clip0_186815_7289)">
<rect x="29" y="173" width="128" height="8" rx="4" fill="#F4F4F4"/>
<rect x="29" y="173" width="128" height="8" rx="4" fill="#4589FF"/>
</g>
<path d="M168.903 180V179.233L171.784 176.08C172.122 175.71 172.401 175.389 172.619 175.116C172.838 174.841 173 174.582 173.105 174.341C173.213 174.097 173.267 173.841 173.267 173.574C173.267 173.267 173.193 173.001 173.045 172.777C172.901 172.553 172.702 172.379 172.449 172.257C172.196 172.135 171.912 172.074 171.597 172.074C171.261 172.074 170.969 172.143 170.719 172.283C170.472 172.419 170.28 172.611 170.143 172.858C170.01 173.105 169.943 173.395 169.943 173.727H168.938C168.938 173.216 169.055 172.767 169.291 172.381C169.527 171.994 169.848 171.693 170.254 171.477C170.663 171.261 171.122 171.153 171.631 171.153C172.142 171.153 172.595 171.261 172.99 171.477C173.385 171.693 173.695 171.984 173.919 172.351C174.143 172.717 174.256 173.125 174.256 173.574C174.256 173.895 174.197 174.209 174.081 174.516C173.967 174.82 173.768 175.159 173.484 175.534C173.203 175.906 172.812 176.361 172.312 176.898L170.352 178.994V179.062H174.409V180H168.903ZM179.271 170.864L176.459 181.312H175.538L178.351 170.864H179.271ZM180.446 180V179.233L183.327 176.08C183.665 175.71 183.944 175.389 184.162 175.116C184.381 174.841 184.543 174.582 184.648 174.341C184.756 174.097 184.81 173.841 184.81 173.574C184.81 173.267 184.736 173.001 184.588 172.777C184.444 172.553 184.245 172.379 183.992 172.257C183.739 172.135 183.455 172.074 183.14 172.074C182.804 172.074 182.512 172.143 182.262 172.283C182.015 172.419 181.823 172.611 181.686 172.858C181.553 173.105 181.486 173.395 181.486 173.727H180.48C180.48 173.216 180.598 172.767 180.834 172.381C181.07 171.994 181.391 171.693 181.797 171.477C182.206 171.261 182.665 171.153 183.174 171.153C183.685 171.153 184.138 171.261 184.533 171.477C184.928 171.693 185.238 171.984 185.462 172.351C185.686 172.717 185.799 173.125 185.799 173.574C185.799 173.895 185.74 174.209 185.624 174.516C185.51 174.82 185.311 175.159 185.027 175.534C184.746 175.906 184.355 176.361 183.855 176.898L181.895 178.994V179.062H185.952V180H180.446ZM196.013 173.455C195.962 173.023 195.755 172.688 195.391 172.449C195.027 172.21 194.581 172.091 194.053 172.091C193.667 172.091 193.328 172.153 193.039 172.278C192.752 172.403 192.527 172.575 192.365 172.794C192.206 173.013 192.127 173.261 192.127 173.54C192.127 173.773 192.182 173.973 192.293 174.141C192.407 174.305 192.551 174.443 192.728 174.554C192.904 174.662 193.088 174.751 193.282 174.822C193.475 174.891 193.652 174.946 193.814 174.989L194.701 175.227C194.928 175.287 195.181 175.369 195.459 175.474C195.74 175.58 196.009 175.723 196.265 175.905C196.523 176.084 196.736 176.314 196.904 176.595C197.071 176.876 197.155 177.222 197.155 177.631C197.155 178.102 197.032 178.528 196.784 178.909C196.54 179.29 196.182 179.592 195.711 179.817C195.242 180.041 194.672 180.153 194.002 180.153C193.377 180.153 192.836 180.053 192.378 179.851C191.924 179.649 191.566 179.368 191.304 179.007C191.046 178.646 190.9 178.227 190.865 177.75H191.956C191.985 178.08 192.096 178.352 192.289 178.568C192.485 178.781 192.732 178.94 193.03 179.045C193.331 179.148 193.655 179.199 194.002 179.199C194.405 179.199 194.767 179.134 195.088 179.003C195.409 178.869 195.664 178.685 195.851 178.449C196.039 178.21 196.132 177.932 196.132 177.614C196.132 177.324 196.051 177.088 195.89 176.906C195.728 176.724 195.515 176.577 195.25 176.463C194.986 176.349 194.701 176.25 194.394 176.165L193.32 175.858C192.638 175.662 192.098 175.382 191.701 175.018C191.303 174.655 191.104 174.179 191.104 173.591C191.104 173.102 191.236 172.676 191.5 172.312C191.767 171.946 192.125 171.662 192.574 171.46C193.026 171.256 193.53 171.153 194.087 171.153C194.65 171.153 195.15 171.254 195.587 171.456C196.025 171.655 196.371 171.928 196.627 172.274C196.885 172.621 197.022 173.014 197.036 173.455H196.013ZM202.881 177.324V173.455H203.887V180H202.881V178.892H202.813C202.66 179.224 202.421 179.507 202.097 179.74C201.773 179.97 201.364 180.085 200.87 180.085C200.461 180.085 200.097 179.996 199.779 179.817C199.461 179.635 199.211 179.362 199.029 178.999C198.847 178.632 198.756 178.17 198.756 177.614V173.455H199.762V177.545C199.762 178.023 199.896 178.403 200.163 178.688C200.433 178.972 200.776 179.114 201.194 179.114C201.444 179.114 201.698 179.05 201.957 178.922C202.218 178.794 202.437 178.598 202.613 178.334C202.792 178.07 202.881 177.733 202.881 177.324ZM205.865 180V171.273H206.871V174.494H206.956C207.03 174.381 207.132 174.236 207.263 174.06C207.397 173.881 207.587 173.722 207.834 173.582C208.084 173.44 208.422 173.369 208.848 173.369C209.4 173.369 209.885 173.507 210.306 173.783C210.726 174.058 211.054 174.449 211.29 174.955C211.526 175.46 211.644 176.057 211.644 176.744C211.644 177.438 211.526 178.038 211.29 178.547C211.054 179.053 210.728 179.445 210.31 179.723C209.892 179.999 209.411 180.136 208.865 180.136C208.445 180.136 208.108 180.067 207.855 179.928C207.603 179.786 207.408 179.625 207.272 179.446C207.135 179.264 207.03 179.114 206.956 178.994H206.837V180H205.865ZM206.854 176.727C206.854 177.222 206.926 177.658 207.071 178.036C207.216 178.411 207.428 178.705 207.706 178.918C207.985 179.128 208.326 179.233 208.729 179.233C209.15 179.233 209.5 179.122 209.782 178.901C210.066 178.676 210.279 178.375 210.421 177.997C210.566 177.616 210.638 177.193 210.638 176.727C210.638 176.267 210.567 175.852 210.425 175.483C210.286 175.111 210.074 174.817 209.79 174.601C209.509 174.382 209.155 174.273 208.729 174.273C208.32 174.273 207.976 174.376 207.698 174.584C207.419 174.788 207.209 175.075 207.067 175.445C206.925 175.811 206.854 176.239 206.854 176.727ZM216.029 173.455V174.307H212.637V173.455H216.029ZM213.625 171.886H214.631V178.125C214.631 178.409 214.672 178.622 214.755 178.764C214.84 178.903 214.948 178.997 215.078 179.045C215.212 179.091 215.353 179.114 215.5 179.114C215.611 179.114 215.702 179.108 215.773 179.097C215.844 179.082 215.901 179.071 215.944 179.062L216.148 179.966C216.08 179.991 215.985 180.017 215.863 180.043C215.74 180.071 215.586 180.085 215.398 180.085C215.114 180.085 214.836 180.024 214.563 179.902C214.293 179.78 214.069 179.594 213.89 179.344C213.713 179.094 213.625 178.778 213.625 178.398V171.886ZM219.468 180.153C219.053 180.153 218.676 180.075 218.338 179.919C218 179.76 217.732 179.531 217.533 179.233C217.334 178.932 217.235 178.568 217.235 178.142C217.235 177.767 217.309 177.463 217.456 177.23C217.604 176.994 217.801 176.81 218.049 176.676C218.296 176.543 218.569 176.443 218.867 176.378C219.168 176.31 219.471 176.256 219.775 176.216C220.172 176.165 220.495 176.126 220.742 176.101C220.992 176.072 221.174 176.026 221.287 175.96C221.404 175.895 221.462 175.781 221.462 175.619V175.585C221.462 175.165 221.347 174.838 221.117 174.605C220.89 174.372 220.544 174.256 220.081 174.256C219.601 174.256 219.225 174.361 218.952 174.571C218.679 174.781 218.488 175.006 218.377 175.244L217.422 174.903C217.593 174.506 217.82 174.196 218.104 173.974C218.391 173.75 218.703 173.594 219.042 173.506C219.382 173.415 219.718 173.369 220.047 173.369C220.257 173.369 220.499 173.395 220.772 173.446C221.047 173.494 221.313 173.595 221.569 173.749C221.827 173.902 222.042 174.134 222.212 174.443C222.382 174.753 222.468 175.168 222.468 175.688V180H221.462V179.114H221.411C221.343 179.256 221.229 179.408 221.07 179.57C220.911 179.732 220.699 179.869 220.435 179.983C220.171 180.097 219.848 180.153 219.468 180.153ZM219.621 179.25C220.019 179.25 220.354 179.172 220.627 179.016C220.902 178.859 221.11 178.658 221.249 178.411C221.391 178.163 221.462 177.903 221.462 177.631V176.71C221.419 176.761 221.326 176.808 221.181 176.851C221.039 176.891 220.874 176.926 220.686 176.957C220.502 176.986 220.321 177.011 220.145 177.034C219.972 177.054 219.831 177.071 219.723 177.085C219.462 177.119 219.218 177.175 218.99 177.251C218.766 177.325 218.584 177.437 218.445 177.588C218.309 177.736 218.24 177.937 218.24 178.193C218.24 178.543 218.37 178.807 218.628 178.986C218.89 179.162 219.221 179.25 219.621 179.25ZM228.94 174.92L228.036 175.176C227.979 175.026 227.896 174.879 227.785 174.737C227.677 174.592 227.529 174.473 227.342 174.379C227.154 174.286 226.914 174.239 226.621 174.239C226.221 174.239 225.887 174.331 225.62 174.516C225.356 174.697 225.224 174.929 225.224 175.21C225.224 175.46 225.315 175.658 225.496 175.803C225.678 175.947 225.962 176.068 226.349 176.165L227.32 176.403C227.906 176.545 228.342 176.763 228.629 177.055C228.915 177.345 229.059 177.719 229.059 178.176C229.059 178.551 228.951 178.886 228.735 179.182C228.522 179.477 228.224 179.71 227.84 179.881C227.457 180.051 227.011 180.136 226.502 180.136C225.835 180.136 225.282 179.991 224.844 179.702C224.407 179.412 224.13 178.989 224.013 178.432L224.968 178.193C225.059 178.545 225.231 178.81 225.484 178.986C225.739 179.162 226.073 179.25 226.485 179.25C226.954 179.25 227.326 179.151 227.602 178.952C227.88 178.75 228.019 178.509 228.019 178.227C228.019 178 227.94 177.81 227.781 177.656C227.621 177.5 227.377 177.384 227.048 177.307L225.957 177.051C225.357 176.909 224.917 176.689 224.636 176.391C224.357 176.089 224.218 175.713 224.218 175.261C224.218 174.892 224.322 174.565 224.529 174.281C224.739 173.997 225.025 173.774 225.386 173.612C225.749 173.45 226.161 173.369 226.621 173.369C227.269 173.369 227.778 173.511 228.147 173.795C228.519 174.08 228.783 174.455 228.94 174.92ZM231.51 177.614L231.493 176.369H231.698L234.561 173.455H235.806L232.755 176.54H232.669L231.51 177.614ZM230.573 180V171.273H231.578V180H230.573ZM234.732 180L232.175 176.761L232.891 176.062L236.01 180H234.732ZM241.737 174.92L240.833 175.176C240.776 175.026 240.692 174.879 240.582 174.737C240.474 174.592 240.326 174.473 240.138 174.379C239.951 174.286 239.711 174.239 239.418 174.239C239.018 174.239 238.684 174.331 238.417 174.516C238.153 174.697 238.021 174.929 238.021 175.21C238.021 175.46 238.112 175.658 238.293 175.803C238.475 175.947 238.759 176.068 239.146 176.165L240.117 176.403C240.702 176.545 241.138 176.763 241.425 177.055C241.712 177.345 241.856 177.719 241.856 178.176C241.856 178.551 241.748 178.886 241.532 179.182C241.319 179.477 241.021 179.71 240.637 179.881C240.254 180.051 239.808 180.136 239.299 180.136C238.631 180.136 238.079 179.991 237.641 179.702C237.204 179.412 236.927 178.989 236.81 178.432L237.765 178.193C237.856 178.545 238.028 178.81 238.281 178.986C238.536 179.162 238.87 179.25 239.282 179.25C239.751 179.25 240.123 179.151 240.398 178.952C240.677 178.75 240.816 178.509 240.816 178.227C240.816 178 240.737 177.81 240.577 177.656C240.418 177.5 240.174 177.384 239.844 177.307L238.754 177.051C238.154 176.909 237.714 176.689 237.433 176.391C237.154 176.089 237.015 175.713 237.015 175.261C237.015 174.892 237.119 174.565 237.326 174.281C237.536 173.997 237.822 173.774 238.183 173.612C238.546 173.45 238.958 173.369 239.418 173.369C240.066 173.369 240.575 173.511 240.944 173.795C241.316 174.08 241.58 174.455 241.737 174.92Z" fill="black"/>
<rect x="29" y="209" width="32" height="32" rx="16" fill="white"/>
<circle cx="45" cy="225" r="15.5" fill="#00BEE8" stroke="white"/>
<path d="M41.6656 222.645C41.6145 222.213 41.4071 221.878 41.0435 221.639C40.6799 221.401 40.2338 221.281 39.7054 221.281C39.3191 221.281 38.981 221.344 38.6912 221.469C38.4043 221.594 38.1799 221.766 38.0179 221.984C37.8588 222.203 37.7793 222.452 37.7793 222.73C37.7793 222.963 37.8347 223.163 37.9455 223.331C38.0591 223.496 38.204 223.634 38.3801 223.744C38.5563 223.852 38.7409 223.942 38.9341 224.013C39.1273 224.081 39.3049 224.136 39.4668 224.179L40.3531 224.418C40.5804 224.477 40.8333 224.56 41.1117 224.665C41.3929 224.77 41.6614 224.913 41.9171 225.095C42.1756 225.274 42.3887 225.504 42.5563 225.786C42.7239 226.067 42.8077 226.412 42.8077 226.821C42.8077 227.293 42.6841 227.719 42.437 228.1C42.1926 228.48 41.8347 228.783 41.3631 229.007C40.8943 229.232 40.3247 229.344 39.6543 229.344C39.0293 229.344 38.4881 229.243 38.0307 229.041C37.5762 228.84 37.2182 228.558 36.9568 228.198C36.6983 227.837 36.552 227.418 36.5179 226.94H37.6088C37.6372 227.27 37.748 227.543 37.9412 227.759C38.1372 227.972 38.3844 228.131 38.6827 228.236C38.9838 228.338 39.3077 228.389 39.6543 228.389C40.0577 228.389 40.4199 228.324 40.7409 228.193C41.062 228.06 41.3162 227.875 41.5037 227.639C41.6912 227.401 41.785 227.122 41.785 226.804C41.785 226.514 41.704 226.278 41.5421 226.097C41.3801 225.915 41.1671 225.767 40.9029 225.653C40.6387 225.54 40.3531 225.44 40.0463 225.355L38.9725 225.048C38.2906 224.852 37.7509 224.573 37.3531 224.209C36.9554 223.845 36.7566 223.369 36.7566 222.781C36.7566 222.293 36.8887 221.867 37.1529 221.503C37.4199 221.136 37.7779 220.852 38.2267 220.651C38.6784 220.446 39.1827 220.344 39.7395 220.344C40.302 220.344 40.802 220.445 41.2395 220.646C41.677 220.845 42.0236 221.118 42.2793 221.465C42.5378 221.811 42.6742 222.205 42.6884 222.645H41.6656ZM44.5453 220.463H45.8066L48.7725 227.707H48.8748L51.8407 220.463H53.1021V229.19H52.1134V222.56H52.0282L49.3009 229.19H48.3464L45.6191 222.56H45.5339V229.19H44.5453V220.463Z" fill="white"/>
<rect x="53" y="209" width="32" height="32" rx="16" fill="white"/>
<circle cx="69" cy="225" r="15.5" fill="#6E52FF" stroke="white"/>
<path d="M62.4046 229.19V220.463H65.4558C66.0637 220.463 66.5651 220.568 66.96 220.778C67.3549 220.986 67.649 221.266 67.8421 221.618C68.0353 221.967 68.1319 222.355 68.1319 222.781C68.1319 223.156 68.0651 223.466 67.9316 223.71C67.8009 223.955 67.6276 224.148 67.4117 224.29C67.1987 224.432 66.9671 224.537 66.7171 224.605V224.69C66.9842 224.707 67.2526 224.801 67.5225 224.972C67.7924 225.142 68.0183 225.386 68.2001 225.705C68.3819 226.023 68.4728 226.412 68.4728 226.872C68.4728 227.31 68.3734 227.703 68.1745 228.053C67.9757 228.402 67.6617 228.679 67.2328 228.884C66.8038 229.088 66.2455 229.19 65.558 229.19H62.4046ZM63.4615 228.253H65.558C66.2484 228.253 66.7384 228.119 67.0282 227.852C67.3208 227.582 67.4671 227.256 67.4671 226.872C67.4671 226.577 67.3919 226.304 67.2413 226.054C67.0907 225.801 66.8762 225.6 66.5978 225.449C66.3194 225.296 65.9899 225.219 65.6092 225.219H63.4615V228.253ZM63.4615 224.298H65.4217C65.7399 224.298 66.0268 224.236 66.2825 224.111C66.541 223.986 66.7455 223.81 66.8961 223.582C67.0495 223.355 67.1262 223.088 67.1262 222.781C67.1262 222.398 66.9927 222.073 66.7257 221.805C66.4586 221.536 66.0353 221.401 65.4558 221.401H63.4615V224.298ZM69.9196 229.19V228.423L74.6241 221.401H69.8684V220.463H75.8855V221.23L71.1809 228.253H75.9366V229.19H69.9196Z" fill="white"/>
<g clip-path="url(#clip1_186815_7289)">
<path d="M233 223.755C233.199 223.754 233.394 223.816 233.554 223.931L241.123 229.365C241.221 229.436 241.304 229.525 241.368 229.627C241.431 229.729 241.472 229.842 241.491 229.96C241.527 230.198 241.465 230.44 241.318 230.633C241.171 230.827 240.951 230.955 240.707 230.991C240.462 231.027 240.213 230.966 240.014 230.823L233 225.792L225.986 230.823C225.887 230.894 225.775 230.945 225.657 230.974C225.538 231.003 225.414 231.009 225.293 230.991C225.172 230.973 225.056 230.933 224.951 230.871C224.846 230.81 224.754 230.729 224.682 230.633C224.609 230.538 224.556 230.429 224.527 230.313C224.497 230.198 224.491 230.078 224.509 229.96C224.528 229.842 224.569 229.729 224.633 229.627C224.696 229.525 224.779 229.436 224.877 229.365L232.446 223.931C232.606 223.816 232.801 223.754 233 223.755Z" fill="#FF3D00"/>
<path d="M233 219C233.199 219 233.394 219.061 233.554 219.176L241.123 224.61C241.322 224.753 241.454 224.967 241.491 225.205C241.527 225.443 241.465 225.685 241.318 225.878C241.171 226.072 240.951 226.2 240.707 226.236C240.462 226.272 240.213 226.211 240.014 226.069L233 221.038L225.986 226.069C225.787 226.211 225.538 226.272 225.293 226.236C225.049 226.2 224.829 226.072 224.682 225.878C224.535 225.685 224.473 225.443 224.509 225.205C224.546 224.967 224.678 224.753 224.877 224.61L232.446 219.176C232.606 219.061 232.801 219 233 219Z" fill="#FF3D00"/>
</g>
</g>
<defs>
<filter id="filter0_d_186815_7289" x="0" y="0" width="278" height="270" filterUnits="userSpaceOnUse" color-interpolation-filters="sRGB">
<feFlood flood-opacity="0" result="BackgroundImageFix"/>
<feColorMatrix in="SourceAlpha" type="matrix" values="0 0 0 0 0 0 0 0 0 0 0 0 0 0 0 0 0 0 127 0" result="hardAlpha"/>
<feMorphology radius="3" operator="dilate" in="SourceAlpha" result="effect1_dropShadow_186815_7289"/>
<feOffset/>
<feGaussianBlur stdDeviation="5"/>
<feComposite in2="hardAlpha" operator="out"/>
<feColorMatrix type="matrix" values="0 0 0 0 0 0 0 0 0 0 0 0 0 0 0 0 0 0 0.08 0"/>
<feBlend mode="normal" in2="BackgroundImageFix" result="effect1_dropShadow_186815_7289"/>
<feBlend mode="normal" in="SourceGraphic" in2="effect1_dropShadow_186815_7289" result="shape"/>
</filter>
<clipPath id="clip0_186815_7289">
<rect x="29" y="173" width="128" height="8" rx="4" fill="white"/>
</clipPath>
<clipPath id="clip1_186815_7289">
<rect width="17" height="12" fill="white" transform="translate(241.5 231) rotate(-180)"/>
</clipPath>
</defs>
</svg>
