<svg width="278" height="241" viewBox="0 0 278 241" fill="none" xmlns="http://www.w3.org/2000/svg">
<g filter="url(#filter0_d_186815_7234)">
<rect x="13" y="13" width="252" height="215" rx="24" fill="white" shape-rendering="crispEdges"/>
<rect x="29" y="29" width="144" height="27" rx="8" fill="#1FD7C1"/>
<path d="M45.7727 37.6136V36.3636H54.5V37.6136H50.8409V48H49.4318V37.6136H45.7727ZM58.8864 48.1818C58.0455 48.1818 57.3201 47.9962 56.7102 47.625C56.1042 47.25 55.6364 46.7273 55.3068 46.0568C54.9811 45.3826 54.8182 44.5985 54.8182 43.7045C54.8182 42.8106 54.9811 42.0227 55.3068 41.3409C55.6364 40.6553 56.0947 40.1212 56.6818 39.7386C57.2727 39.3523 57.9621 39.1591 58.75 39.1591C59.2045 39.1591 59.6534 39.2348 60.0966 39.3864C60.5398 39.5379 60.9432 39.7841 61.3068 40.125C61.6705 40.4621 61.9602 40.9091 62.1761 41.4659C62.392 42.0227 62.5 42.7083 62.5 43.5227V44.0909H55.7727V42.9318H61.1364C61.1364 42.4394 61.0379 42 60.8409 41.6136C60.6477 41.2273 60.3712 40.9223 60.0114 40.6989C59.6553 40.4754 59.2348 40.3636 58.75 40.3636C58.2159 40.3636 57.7538 40.4962 57.3636 40.7614C56.9773 41.0227 56.6799 41.3636 56.4716 41.7841C56.2633 42.2045 56.1591 42.6553 56.1591 43.1364V43.9091C56.1591 44.5682 56.2727 45.1269 56.5 45.5852C56.7311 46.0398 57.0511 46.3864 57.4602 46.625C57.8693 46.8598 58.3447 46.9773 58.8864 46.9773C59.2386 46.9773 59.5568 46.928 59.8409 46.8295C60.1288 46.7273 60.3769 46.5758 60.5852 46.375C60.7936 46.1705 60.9545 45.9167 61.0682 45.6136L62.3636 45.9773C62.2273 46.4167 61.9981 46.803 61.6761 47.1364C61.3542 47.4659 60.9564 47.7235 60.483 47.9091C60.0095 48.0909 59.4773 48.1818 58.8864 48.1818ZM68.0852 48.1818C67.267 48.1818 66.5625 47.9886 65.9716 47.6023C65.3807 47.2159 64.9261 46.6837 64.608 46.0057C64.2898 45.3277 64.1307 44.553 64.1307 43.6818C64.1307 42.7955 64.2936 42.0133 64.6193 41.3352C64.9489 40.6534 65.4072 40.1212 65.9943 39.7386C66.5852 39.3523 67.2746 39.1591 68.0625 39.1591C68.6761 39.1591 69.2292 39.2727 69.7216 39.5C70.214 39.7273 70.6174 40.0455 70.9318 40.4545C71.2462 40.8636 71.4413 41.3409 71.517 41.8864H70.1761C70.0739 41.4886 69.8466 41.1364 69.4943 40.8295C69.1458 40.5189 68.6761 40.3636 68.0852 40.3636C67.5625 40.3636 67.1042 40.5 66.7102 40.7727C66.3201 41.0417 66.0152 41.4223 65.7955 41.9148C65.5795 42.4034 65.4716 42.9773 65.4716 43.6364C65.4716 44.3106 65.5777 44.8977 65.7898 45.3977C66.0057 45.8977 66.3087 46.286 66.6989 46.5625C67.0928 46.839 67.5549 46.9773 68.0852 46.9773C68.4337 46.9773 68.75 46.9167 69.0341 46.7955C69.3182 46.6742 69.5587 46.5 69.7557 46.2727C69.9527 46.0455 70.0928 45.7727 70.1761 45.4545H71.517C71.4413 45.9697 71.2538 46.4337 70.9545 46.8466C70.6591 47.2557 70.267 47.5814 69.7784 47.8239C69.2936 48.0625 68.7292 48.1818 68.0852 48.1818ZM74.8182 42.75V48H73.4773V36.3636H74.8182V40.6364H74.9318C75.1364 40.1856 75.4432 39.8277 75.8523 39.5625C76.2652 39.2936 76.8144 39.1591 77.5 39.1591C78.0947 39.1591 78.6155 39.2784 79.0625 39.517C79.5095 39.7519 79.8561 40.1136 80.1023 40.6023C80.3523 41.0871 80.4773 41.7045 80.4773 42.4545V48H79.1364V42.5455C79.1364 41.8523 78.9564 41.3163 78.5966 40.9375C78.2405 40.5549 77.7462 40.3636 77.1136 40.3636C76.6742 40.3636 76.2803 40.4564 75.9318 40.642C75.5871 40.8277 75.3144 41.0985 75.1136 41.4545C74.9167 41.8106 74.8182 42.2424 74.8182 42.75ZM84.2713 42.75V48H82.9304V39.2727H84.2259V40.6364H84.3395C84.544 40.1932 84.8546 39.8371 85.2713 39.5682C85.688 39.2955 86.2259 39.1591 86.8849 39.1591C87.4759 39.1591 87.9929 39.2803 88.4361 39.5227C88.8793 39.7614 89.224 40.125 89.4702 40.6136C89.7164 41.0985 89.8395 41.7121 89.8395 42.4545V48H88.4986V42.5455C88.4986 41.8598 88.3205 41.3258 87.9645 40.9432C87.6084 40.5568 87.1198 40.3636 86.4986 40.3636C86.0705 40.3636 85.688 40.4564 85.3509 40.642C85.0175 40.8277 84.7543 41.0985 84.5611 41.4545C84.3679 41.8106 84.2713 42.2424 84.2713 42.75ZM92.2898 48V39.2727H93.6307V48H92.2898ZM92.9716 37.8182C92.7102 37.8182 92.4848 37.7292 92.2955 37.5511C92.1098 37.3731 92.017 37.1591 92.017 36.9091C92.017 36.6591 92.1098 36.4451 92.2955 36.267C92.4848 36.089 92.7102 36 92.9716 36C93.233 36 93.4564 36.089 93.642 36.267C93.8314 36.4451 93.9261 36.6591 93.9261 36.9091C93.9261 37.1591 93.8314 37.3731 93.642 37.5511C93.4564 37.7292 93.233 37.8182 92.9716 37.8182ZM99.6321 48.1818C98.8139 48.1818 98.1094 47.9886 97.5185 47.6023C96.9276 47.2159 96.473 46.6837 96.1548 46.0057C95.8366 45.3277 95.6776 44.553 95.6776 43.6818C95.6776 42.7955 95.8404 42.0133 96.1662 41.3352C96.4957 40.6534 96.9541 40.1212 97.5412 39.7386C98.1321 39.3523 98.8215 39.1591 99.6094 39.1591C100.223 39.1591 100.776 39.2727 101.268 39.5C101.761 39.7273 102.164 40.0455 102.479 40.4545C102.793 40.8636 102.988 41.3409 103.064 41.8864H101.723C101.621 41.4886 101.393 41.1364 101.041 40.8295C100.693 40.5189 100.223 40.3636 99.6321 40.3636C99.1094 40.3636 98.651 40.5 98.2571 40.7727C97.867 41.0417 97.562 41.4223 97.3423 41.9148C97.1264 42.4034 97.0185 42.9773 97.0185 43.6364C97.0185 44.3106 97.1245 44.8977 97.3366 45.3977C97.5526 45.8977 97.8556 46.286 98.2457 46.5625C98.6397 46.839 99.1018 46.9773 99.6321 46.9773C99.9806 46.9773 100.297 46.9167 100.581 46.7955C100.865 46.6742 101.106 46.5 101.303 46.2727C101.5 46.0455 101.64 45.7727 101.723 45.4545H103.064C102.988 45.9697 102.801 46.4337 102.501 46.8466C102.206 47.2557 101.814 47.5814 101.325 47.8239C100.84 48.0625 100.276 48.1818 99.6321 48.1818ZM107.592 48.2045C107.039 48.2045 106.537 48.1004 106.087 47.892C105.636 47.6799 105.278 47.375 105.013 46.9773C104.748 46.5758 104.615 46.0909 104.615 45.5227C104.615 45.0227 104.714 44.6174 104.911 44.3068C105.107 43.9924 105.371 43.7462 105.7 43.5682C106.03 43.3902 106.393 43.2576 106.791 43.1705C107.193 43.0795 107.596 43.0076 108.001 42.9545C108.532 42.8864 108.962 42.8352 109.291 42.8011C109.625 42.7633 109.867 42.7008 110.018 42.6136C110.174 42.5265 110.251 42.375 110.251 42.1591V42.1136C110.251 41.553 110.098 41.1174 109.791 40.8068C109.488 40.4962 109.028 40.3409 108.411 40.3409C107.77 40.3409 107.268 40.4811 106.905 40.7614C106.541 41.0417 106.286 41.3409 106.138 41.6591L104.865 41.2045C105.092 40.6742 105.395 40.2614 105.774 39.9659C106.157 39.6667 106.573 39.4583 107.024 39.3409C107.479 39.2197 107.926 39.1591 108.365 39.1591C108.645 39.1591 108.967 39.1932 109.331 39.2614C109.698 39.3258 110.053 39.4602 110.393 39.6648C110.738 39.8693 111.024 40.178 111.251 40.5909C111.479 41.0038 111.592 41.5568 111.592 42.25V48H110.251V46.8182H110.183C110.092 47.0076 109.941 47.2102 109.729 47.4261C109.517 47.642 109.234 47.8258 108.882 47.9773C108.53 48.1288 108.1 48.2045 107.592 48.2045ZM107.797 47C108.327 47 108.774 46.8958 109.138 46.6875C109.505 46.4792 109.782 46.2102 109.967 45.8807C110.157 45.5511 110.251 45.2045 110.251 44.8409V43.6136C110.195 43.6818 110.07 43.7443 109.876 43.8011C109.687 43.8542 109.467 43.9015 109.217 43.9432C108.971 43.9811 108.731 44.0152 108.496 44.0455C108.265 44.072 108.077 44.0947 107.933 44.1136C107.585 44.1591 107.259 44.233 106.956 44.3352C106.657 44.4337 106.414 44.5833 106.229 44.7841C106.047 44.9811 105.956 45.25 105.956 45.5909C105.956 46.0568 106.128 46.4091 106.473 46.6477C106.821 46.8826 107.263 47 107.797 47ZM115.381 36.3636V48H114.04V36.3636H115.381ZM121.882 37.6136V36.3636H130.609V37.6136H126.95V48H125.541V37.6136H121.882ZM133.983 48.2045C133.43 48.2045 132.928 48.1004 132.477 47.892C132.027 47.6799 131.669 47.375 131.403 46.9773C131.138 46.5758 131.006 46.0909 131.006 45.5227C131.006 45.0227 131.104 44.6174 131.301 44.3068C131.498 43.9924 131.761 43.7462 132.091 43.5682C132.42 43.3902 132.784 43.2576 133.182 43.1705C133.583 43.0795 133.987 43.0076 134.392 42.9545C134.922 42.8864 135.352 42.8352 135.682 42.8011C136.015 42.7633 136.258 42.7008 136.409 42.6136C136.564 42.5265 136.642 42.375 136.642 42.1591V42.1136C136.642 41.553 136.489 41.1174 136.182 40.8068C135.879 40.4962 135.419 40.3409 134.801 40.3409C134.161 40.3409 133.659 40.4811 133.295 40.7614C132.932 41.0417 132.676 41.3409 132.528 41.6591L131.256 41.2045C131.483 40.6742 131.786 40.2614 132.165 39.9659C132.547 39.6667 132.964 39.4583 133.415 39.3409C133.869 39.2197 134.316 39.1591 134.756 39.1591C135.036 39.1591 135.358 39.1932 135.722 39.2614C136.089 39.3258 136.443 39.4602 136.784 39.6648C137.129 39.8693 137.415 40.178 137.642 40.5909C137.869 41.0038 137.983 41.5568 137.983 42.25V48H136.642V46.8182H136.574C136.483 47.0076 136.331 47.2102 136.119 47.4261C135.907 47.642 135.625 47.8258 135.273 47.9773C134.92 48.1288 134.491 48.2045 133.983 48.2045ZM134.188 47C134.718 47 135.165 46.8958 135.528 46.6875C135.896 46.4792 136.172 46.2102 136.358 45.8807C136.547 45.5511 136.642 45.2045 136.642 44.8409V43.6136C136.585 43.6818 136.46 43.7443 136.267 43.8011C136.078 43.8542 135.858 43.9015 135.608 43.9432C135.362 43.9811 135.121 44.0152 134.886 44.0455C134.655 44.072 134.468 44.0947 134.324 44.1136C133.975 44.1591 133.65 44.233 133.347 44.3352C133.047 44.4337 132.805 44.5833 132.619 44.7841C132.438 44.9811 132.347 45.25 132.347 45.5909C132.347 46.0568 132.519 46.4091 132.864 46.6477C133.212 46.8826 133.653 47 134.188 47ZM146.612 41.2273L145.408 41.5682C145.332 41.3674 145.22 41.1723 145.072 40.983C144.929 40.7898 144.732 40.6307 144.482 40.5057C144.232 40.3807 143.911 40.3182 143.521 40.3182C142.987 40.3182 142.542 40.4413 142.186 40.6875C141.834 40.9299 141.658 41.2386 141.658 41.6136C141.658 41.947 141.779 42.2102 142.021 42.4034C142.264 42.5966 142.643 42.7576 143.158 42.8864L144.453 43.2045C145.233 43.3939 145.815 43.6837 146.197 44.0739C146.58 44.4602 146.771 44.9583 146.771 45.5682C146.771 46.0682 146.627 46.5152 146.339 46.9091C146.055 47.303 145.658 47.6136 145.146 47.8409C144.635 48.0682 144.04 48.1818 143.362 48.1818C142.472 48.1818 141.735 47.9886 141.152 47.6023C140.569 47.2159 140.199 46.6515 140.044 45.9091L141.317 45.5909C141.438 46.0606 141.667 46.4129 142.004 46.6477C142.345 46.8826 142.79 47 143.339 47C143.964 47 144.461 46.8674 144.828 46.6023C145.199 46.3333 145.385 46.0114 145.385 45.6364C145.385 45.3333 145.279 45.0795 145.067 44.875C144.855 44.6667 144.529 44.5114 144.089 44.4091L142.635 44.0682C141.836 43.8788 141.249 43.5852 140.874 43.1875C140.502 42.786 140.317 42.2841 140.317 41.6818C140.317 41.1894 140.455 40.7538 140.732 40.375C141.012 39.9962 141.393 39.6989 141.874 39.483C142.358 39.267 142.908 39.1591 143.521 39.1591C144.385 39.1591 145.063 39.3485 145.555 39.7273C146.052 40.1061 146.404 40.6061 146.612 41.2273ZM150.04 44.8182L150.017 43.1591H150.29L154.108 39.2727H155.767L151.699 43.3864H151.585L150.04 44.8182ZM148.79 48V36.3636H150.131V48H148.79ZM154.335 48L150.926 43.6818L151.881 42.75L156.04 48H154.335Z" fill="white"/>
<path d="M30.0114 91V79.3636H32.4716V84.1648H37.4659V79.3636H39.9205V91H37.4659V86.1932H32.4716V91H30.0114ZM41.5057 81.392V79.3636H51.0625V81.392H47.5V91H45.0682V81.392H41.5057ZM52.6364 79.3636H55.6705L58.875 87.1818H59.0114L62.2159 79.3636H65.25V91H62.8636V83.4261H62.767L59.7557 90.9432H58.1307L55.1193 83.3977H55.0227V91H52.6364V79.3636ZM67.277 91V79.3636H69.7372V88.9716H74.7259V91H67.277ZM80.0582 91V79.3636H84.7173C85.5734 79.3636 86.2874 79.4905 86.8594 79.7443C87.4313 79.9981 87.8613 80.3504 88.1491 80.8011C88.437 81.2481 88.581 81.7633 88.581 82.3466C88.581 82.8011 88.4901 83.2008 88.3082 83.5455C88.1264 83.8864 87.8764 84.1667 87.5582 84.3864C87.2438 84.6023 86.884 84.7557 86.4787 84.8466V84.9602C86.9219 84.9792 87.3366 85.1042 87.723 85.3352C88.1132 85.5663 88.4295 85.8902 88.6719 86.3068C88.9143 86.7197 89.0355 87.2121 89.0355 87.7841C89.0355 88.4015 88.8821 88.9527 88.5753 89.4375C88.2723 89.9186 87.8234 90.2992 87.2287 90.5795C86.634 90.8598 85.901 91 85.0298 91H80.0582ZM82.5185 88.9886H84.5241C85.2098 88.9886 85.7098 88.858 86.0241 88.5966C86.3385 88.3314 86.4957 87.9792 86.4957 87.5398C86.4957 87.2178 86.4181 86.9337 86.2628 86.6875C86.1075 86.4413 85.8859 86.2481 85.598 86.108C85.3139 85.9678 84.9749 85.8977 84.581 85.8977H82.5185V88.9886ZM82.5185 84.233H84.3423C84.6795 84.233 84.9787 84.1742 85.2401 84.0568C85.5052 83.9356 85.7135 83.7652 85.8651 83.5455C86.0204 83.3258 86.098 83.0625 86.098 82.7557C86.098 82.3352 85.9484 81.9962 85.6491 81.7386C85.3537 81.4811 84.9332 81.3523 84.3878 81.3523H82.5185V84.233ZM93.0795 91.1648C92.5227 91.1648 92.0265 91.0682 91.5909 90.875C91.1553 90.678 90.8106 90.3883 90.5568 90.0057C90.3068 89.6193 90.1818 89.1383 90.1818 88.5625C90.1818 88.0777 90.2708 87.6705 90.4489 87.3409C90.6269 87.0114 90.8693 86.7462 91.1761 86.5455C91.483 86.3447 91.8314 86.1932 92.2216 86.0909C92.6155 85.9886 93.0284 85.9167 93.4602 85.875C93.9678 85.822 94.3769 85.7727 94.6875 85.7273C94.9981 85.678 95.2235 85.6061 95.3636 85.5114C95.5038 85.4167 95.5739 85.2765 95.5739 85.0909V85.0568C95.5739 84.697 95.4602 84.4186 95.233 84.2216C95.0095 84.0246 94.6913 83.9261 94.2784 83.9261C93.8428 83.9261 93.4962 84.0227 93.2386 84.2159C92.9811 84.4053 92.8106 84.6439 92.7273 84.9318L90.4886 84.75C90.6023 84.2197 90.8258 83.7614 91.1591 83.375C91.4924 82.9848 91.9223 82.6856 92.4489 82.4773C92.9792 82.2652 93.5928 82.1591 94.2898 82.1591C94.7746 82.1591 95.2386 82.2159 95.6818 82.3295C96.1288 82.4432 96.5246 82.6193 96.8693 82.858C97.2178 83.0966 97.4924 83.4034 97.6932 83.7784C97.8939 84.1496 97.9943 84.5947 97.9943 85.1136V91H95.6989V89.7898H95.6307C95.4905 90.0625 95.303 90.303 95.0682 90.5114C94.8333 90.7159 94.5511 90.8769 94.2216 90.9943C93.892 91.108 93.5114 91.1648 93.0795 91.1648ZM93.7727 89.4943C94.1288 89.4943 94.4432 89.4242 94.7159 89.2841C94.9886 89.1402 95.2027 88.947 95.358 88.7045C95.5133 88.4621 95.5909 88.1875 95.5909 87.8807V86.9545C95.5152 87.0038 95.411 87.0492 95.2784 87.0909C95.1496 87.1288 95.0038 87.1648 94.8409 87.1989C94.678 87.2292 94.5152 87.2576 94.3523 87.2841C94.1894 87.3068 94.0417 87.3277 93.9091 87.3466C93.625 87.3883 93.3769 87.4545 93.1648 87.5455C92.9527 87.6364 92.7879 87.7595 92.6705 87.9148C92.553 88.0663 92.4943 88.2557 92.4943 88.483C92.4943 88.8125 92.6136 89.0644 92.8523 89.2386C93.0947 89.4091 93.4015 89.4943 93.7727 89.4943ZM107.134 84.7614L104.918 84.8977C104.88 84.7083 104.798 84.5379 104.673 84.3864C104.548 84.2311 104.384 84.108 104.179 84.017C103.978 83.9223 103.738 83.875 103.457 83.875C103.082 83.875 102.766 83.9545 102.509 84.1136C102.251 84.2689 102.122 84.4773 102.122 84.7386C102.122 84.947 102.205 85.1231 102.372 85.267C102.539 85.411 102.825 85.5265 103.23 85.6136L104.81 85.9318C105.658 86.1061 106.291 86.3864 106.707 86.7727C107.124 87.1591 107.332 87.6667 107.332 88.2955C107.332 88.8674 107.164 89.3693 106.827 89.8011C106.493 90.233 106.035 90.5701 105.452 90.8125C104.872 91.0511 104.204 91.1705 103.446 91.1705C102.291 91.1705 101.37 90.9299 100.685 90.4489C100.003 89.964 99.6032 89.3049 99.4858 88.4716L101.866 88.3466C101.938 88.6989 102.113 88.9678 102.389 89.1534C102.666 89.3352 103.02 89.4261 103.452 89.4261C103.876 89.4261 104.217 89.3447 104.474 89.1818C104.736 89.0152 104.868 88.8011 104.872 88.5398C104.868 88.3201 104.776 88.1402 104.594 88C104.412 87.8561 104.132 87.7462 103.753 87.6705L102.241 87.3693C101.389 87.1989 100.755 86.9034 100.338 86.483C99.9252 86.0625 99.7188 85.5265 99.7188 84.875C99.7188 84.3144 99.8703 83.8314 100.173 83.4261C100.48 83.0208 100.91 82.7083 101.463 82.4886C102.02 82.2689 102.671 82.1591 103.418 82.1591C104.52 82.1591 105.387 82.392 106.02 82.858C106.656 83.3239 107.027 83.9583 107.134 84.7614ZM112.834 91.1705C111.936 91.1705 111.163 90.9886 110.516 90.625C109.872 90.2576 109.375 89.7386 109.027 89.0682C108.679 88.3939 108.504 87.5966 108.504 86.6761C108.504 85.7784 108.679 84.9905 109.027 84.3125C109.375 83.6345 109.866 83.1061 110.499 82.7273C111.135 82.3485 111.881 82.1591 112.737 82.1591C113.313 82.1591 113.849 82.2519 114.345 82.4375C114.845 82.6193 115.281 82.8939 115.652 83.2614C116.027 83.6288 116.319 84.0909 116.527 84.6477C116.735 85.2008 116.839 85.8485 116.839 86.5909V87.2557H109.47V85.7557H114.561C114.561 85.4072 114.485 85.0985 114.334 84.8295C114.182 84.5606 113.972 84.3504 113.703 84.1989C113.438 84.0436 113.129 83.9659 112.777 83.9659C112.41 83.9659 112.084 84.0511 111.8 84.2216C111.519 84.3883 111.3 84.6136 111.141 84.8977C110.982 85.178 110.9 85.4905 110.896 85.8352V87.2614C110.896 87.6932 110.976 88.0663 111.135 88.3807C111.298 88.6951 111.527 88.9375 111.822 89.108C112.118 89.2784 112.468 89.3636 112.874 89.3636C113.143 89.3636 113.389 89.3258 113.612 89.25C113.836 89.1742 114.027 89.0606 114.186 88.9091C114.345 88.7576 114.466 88.572 114.55 88.3523L116.788 88.5C116.675 89.0379 116.442 89.5076 116.089 89.9091C115.741 90.3068 115.29 90.6174 114.737 90.8409C114.188 91.0606 113.554 91.1705 112.834 91.1705ZM121.724 81.392V79.3636H131.281V81.392H127.719V91H125.287V81.392H121.724ZM135.521 91.1705C134.624 91.1705 133.851 90.9886 133.203 90.625C132.559 90.2576 132.063 89.7386 131.714 89.0682C131.366 88.3939 131.192 87.5966 131.192 86.6761C131.192 85.7784 131.366 84.9905 131.714 84.3125C132.063 83.6345 132.554 83.1061 133.186 82.7273C133.822 82.3485 134.569 82.1591 135.425 82.1591C136 82.1591 136.536 82.2519 137.033 82.4375C137.533 82.6193 137.968 82.8939 138.339 83.2614C138.714 83.6288 139.006 84.0909 139.214 84.6477C139.423 85.2008 139.527 85.8485 139.527 86.5909V87.2557H132.158V85.7557H137.249C137.249 85.4072 137.173 85.0985 137.021 84.8295C136.87 84.5606 136.66 84.3504 136.391 84.1989C136.125 84.0436 135.817 83.9659 135.464 83.9659C135.097 83.9659 134.771 84.0511 134.487 84.2216C134.207 84.3883 133.987 84.6136 133.828 84.8977C133.669 85.178 133.588 85.4905 133.584 85.8352V87.2614C133.584 87.6932 133.663 88.0663 133.822 88.3807C133.985 88.6951 134.214 88.9375 134.51 89.108C134.805 89.2784 135.156 89.3636 135.561 89.3636C135.83 89.3636 136.076 89.3258 136.3 89.25C136.523 89.1742 136.714 89.0606 136.874 88.9091C137.033 88.7576 137.154 88.572 137.237 88.3523L139.476 88.5C139.362 89.0379 139.129 89.5076 138.777 89.9091C138.429 90.3068 137.978 90.6174 137.425 90.8409C136.875 91.0606 136.241 91.1705 135.521 91.1705ZM141.107 91V82.2727H143.413V83.8125H143.516C143.697 83.3011 144 82.8977 144.425 82.6023C144.849 82.3068 145.357 82.1591 145.947 82.1591C146.546 82.1591 147.055 82.3087 147.476 82.608C147.896 82.9034 148.177 83.3049 148.317 83.8125H148.408C148.586 83.3125 148.908 82.9129 149.374 82.6136C149.843 82.3106 150.398 82.1591 151.038 82.1591C151.853 82.1591 152.514 82.4186 153.021 82.9375C153.533 83.4527 153.788 84.1837 153.788 85.1307V91H151.374V85.608C151.374 85.1231 151.245 84.7595 150.987 84.517C150.73 84.2746 150.408 84.1534 150.021 84.1534C149.582 84.1534 149.239 84.2936 148.993 84.5739C148.747 84.8504 148.624 85.2159 148.624 85.6705V91H146.277V85.5568C146.277 85.1288 146.154 84.7879 145.908 84.5341C145.665 84.2803 145.345 84.1534 144.947 84.1534C144.679 84.1534 144.436 84.2216 144.22 84.358C144.008 84.4905 143.839 84.678 143.714 84.9205C143.589 85.1591 143.527 85.4394 143.527 85.7614V91H141.107ZM155.7 94.2727V82.2727H158.087V83.7386H158.195C158.301 83.5038 158.454 83.2652 158.655 83.0227C158.859 82.7765 159.125 82.572 159.45 82.4091C159.78 82.2424 160.189 82.1591 160.678 82.1591C161.314 82.1591 161.901 82.3258 162.439 82.6591C162.977 82.9886 163.407 83.4867 163.729 84.1534C164.051 84.8163 164.212 85.6477 164.212 86.6477C164.212 87.6212 164.054 88.4432 163.74 89.1136C163.429 89.7803 163.005 90.286 162.467 90.6307C161.933 90.9716 161.335 91.142 160.672 91.142C160.202 91.142 159.803 91.0644 159.473 90.9091C159.147 90.7538 158.88 90.5587 158.672 90.3239C158.464 90.0852 158.304 89.8447 158.195 89.6023H158.121V94.2727H155.7ZM158.07 86.6364C158.07 87.1553 158.142 87.608 158.286 87.9943C158.429 88.3807 158.638 88.6818 158.911 88.8977C159.183 89.1098 159.515 89.2159 159.905 89.2159C160.299 89.2159 160.632 89.108 160.905 88.892C161.178 88.6723 161.384 88.3693 161.524 87.983C161.668 87.5928 161.74 87.1439 161.74 86.6364C161.74 86.1326 161.67 85.6894 161.53 85.3068C161.39 84.9242 161.183 84.625 160.911 84.4091C160.638 84.1932 160.303 84.0852 159.905 84.0852C159.511 84.0852 159.178 84.1894 158.905 84.3977C158.636 84.6061 158.429 84.9015 158.286 85.2841C158.142 85.6667 158.07 86.1174 158.07 86.6364ZM168.246 79.3636V91H165.825V79.3636H168.246ZM172.673 91.1648C172.116 91.1648 171.62 91.0682 171.185 90.875C170.749 90.678 170.404 90.3883 170.151 90.0057C169.901 89.6193 169.776 89.1383 169.776 88.5625C169.776 88.0777 169.865 87.6705 170.043 87.3409C170.221 87.0114 170.463 86.7462 170.77 86.5455C171.077 86.3447 171.425 86.1932 171.815 86.0909C172.209 85.9886 172.622 85.9167 173.054 85.875C173.562 85.822 173.971 85.7727 174.281 85.7273C174.592 85.678 174.817 85.6061 174.957 85.5114C175.098 85.4167 175.168 85.2765 175.168 85.0909V85.0568C175.168 84.697 175.054 84.4186 174.827 84.2216C174.603 84.0246 174.285 83.9261 173.872 83.9261C173.437 83.9261 173.09 84.0227 172.832 84.2159C172.575 84.4053 172.404 84.6439 172.321 84.9318L170.082 84.75C170.196 84.2197 170.42 83.7614 170.753 83.375C171.086 82.9848 171.516 82.6856 172.043 82.4773C172.573 82.2652 173.187 82.1591 173.884 82.1591C174.368 82.1591 174.832 82.2159 175.276 82.3295C175.723 82.4432 176.118 82.6193 176.463 82.858C176.812 83.0966 177.086 83.4034 177.287 83.7784C177.488 84.1496 177.588 84.5947 177.588 85.1136V91H175.293V89.7898H175.224C175.084 90.0625 174.897 90.303 174.662 90.5114C174.427 90.7159 174.145 90.8769 173.815 90.9943C173.486 91.108 173.105 91.1648 172.673 91.1648ZM173.366 89.4943C173.723 89.4943 174.037 89.4242 174.31 89.2841C174.582 89.1402 174.796 88.947 174.952 88.7045C175.107 88.4621 175.185 88.1875 175.185 87.8807V86.9545C175.109 87.0038 175.005 87.0492 174.872 87.0909C174.743 87.1288 174.598 87.1648 174.435 87.1989C174.272 87.2292 174.109 87.2576 173.946 87.2841C173.783 87.3068 173.635 87.3277 173.503 87.3466C173.219 87.3883 172.971 87.4545 172.759 87.5455C172.546 87.6364 172.382 87.7595 172.264 87.9148C172.147 88.0663 172.088 88.2557 172.088 88.483C172.088 88.8125 172.207 89.0644 172.446 89.2386C172.688 89.4091 172.995 89.4943 173.366 89.4943ZM184.108 82.2727V84.0909H178.852V82.2727H184.108ZM180.045 80.1818H182.466V88.3182C182.466 88.5417 182.5 88.7159 182.568 88.8409C182.636 88.9621 182.731 89.0473 182.852 89.0966C182.977 89.1458 183.121 89.1705 183.284 89.1705C183.398 89.1705 183.511 89.161 183.625 89.142C183.739 89.1193 183.826 89.1023 183.886 89.0909L184.267 90.892C184.146 90.9299 183.975 90.9735 183.756 91.0227C183.536 91.0758 183.269 91.108 182.955 91.1193C182.371 91.142 181.86 91.0644 181.42 90.8864C180.985 90.7083 180.646 90.4318 180.403 90.0568C180.161 89.6818 180.042 89.2083 180.045 88.6364V80.1818ZM189.568 91.1705C188.67 91.1705 187.898 90.9886 187.25 90.625C186.606 90.2576 186.11 89.7386 185.761 89.0682C185.413 88.3939 185.239 87.5966 185.239 86.6761C185.239 85.7784 185.413 84.9905 185.761 84.3125C186.11 83.6345 186.6 83.1061 187.233 82.7273C187.869 82.3485 188.616 82.1591 189.472 82.1591C190.047 82.1591 190.583 82.2519 191.08 82.4375C191.58 82.6193 192.015 82.8939 192.386 83.2614C192.761 83.6288 193.053 84.0909 193.261 84.6477C193.47 85.2008 193.574 85.8485 193.574 86.5909V87.2557H186.205V85.7557H191.295C191.295 85.4072 191.22 85.0985 191.068 84.8295C190.917 84.5606 190.706 84.3504 190.438 84.1989C190.172 84.0436 189.864 83.9659 189.511 83.9659C189.144 83.9659 188.818 84.0511 188.534 84.2216C188.254 84.3883 188.034 84.6136 187.875 84.8977C187.716 85.178 187.634 85.4905 187.631 85.8352V87.2614C187.631 87.6932 187.71 88.0663 187.869 88.3807C188.032 88.6951 188.261 88.9375 188.557 89.108C188.852 89.2784 189.203 89.3636 189.608 89.3636C189.877 89.3636 190.123 89.3258 190.347 89.25C190.57 89.1742 190.761 89.0606 190.92 88.9091C191.08 88.7576 191.201 88.572 191.284 88.3523L193.523 88.5C193.409 89.0379 193.176 89.5076 192.824 89.9091C192.475 90.3068 192.025 90.6174 191.472 90.8409C190.922 91.0606 190.288 91.1705 189.568 91.1705ZM40.2784 102.438H37.7898C37.7443 102.116 37.6515 101.83 37.5114 101.58C37.3712 101.326 37.1913 101.11 36.9716 100.932C36.7519 100.754 36.4981 100.617 36.2102 100.523C35.9261 100.428 35.6174 100.381 35.2841 100.381C34.6818 100.381 34.1572 100.53 33.7102 100.83C33.2633 101.125 32.9167 101.557 32.6705 102.125C32.4242 102.689 32.3011 103.375 32.3011 104.182C32.3011 105.011 32.4242 105.708 32.6705 106.273C32.9205 106.837 33.2689 107.263 33.7159 107.551C34.1629 107.839 34.6799 107.983 35.267 107.983C35.5966 107.983 35.9015 107.939 36.1818 107.852C36.4659 107.765 36.7178 107.638 36.9375 107.472C37.1572 107.301 37.339 107.095 37.483 106.852C37.6307 106.61 37.733 106.333 37.7898 106.023L40.2784 106.034C40.214 106.568 40.053 107.083 39.7955 107.58C39.5417 108.072 39.1989 108.513 38.767 108.903C38.339 109.29 37.8277 109.597 37.233 109.824C36.642 110.047 35.9735 110.159 35.2273 110.159C34.1894 110.159 33.2614 109.924 32.4432 109.455C31.6288 108.985 30.9848 108.305 30.5114 107.415C30.0417 106.525 29.8068 105.447 29.8068 104.182C29.8068 102.913 30.0455 101.833 30.5227 100.943C31 100.053 31.6477 99.375 32.4659 98.9091C33.2841 98.4394 34.2045 98.2045 35.2273 98.2045C35.9015 98.2045 36.5265 98.2992 37.1023 98.4886C37.6818 98.678 38.1951 98.9545 38.642 99.3182C39.089 99.678 39.4527 100.119 39.733 100.642C40.017 101.165 40.1989 101.763 40.2784 102.438ZM41.9972 110V101.273H44.3438V102.795H44.4347C44.5938 102.254 44.8608 101.845 45.2358 101.568C45.6108 101.288 46.0426 101.148 46.5312 101.148C46.6525 101.148 46.7831 101.155 46.9233 101.17C47.0634 101.186 47.1866 101.206 47.2926 101.233V103.381C47.179 103.347 47.0218 103.316 46.821 103.29C46.6203 103.263 46.4366 103.25 46.2699 103.25C45.9138 103.25 45.5956 103.328 45.3153 103.483C45.0388 103.634 44.8191 103.847 44.6562 104.119C44.4972 104.392 44.4176 104.706 44.4176 105.062V110H41.9972ZM52.1151 110.17C51.2173 110.17 50.4446 109.989 49.7969 109.625C49.1529 109.258 48.6567 108.739 48.3082 108.068C47.9598 107.394 47.7855 106.597 47.7855 105.676C47.7855 104.778 47.9598 103.991 48.3082 103.312C48.6567 102.634 49.1473 102.106 49.7798 101.727C50.4162 101.348 51.1624 101.159 52.0185 101.159C52.5942 101.159 53.1302 101.252 53.6264 101.438C54.1264 101.619 54.562 101.894 54.9332 102.261C55.3082 102.629 55.5999 103.091 55.8082 103.648C56.0166 104.201 56.1207 104.848 56.1207 105.591V106.256H48.7514V104.756H53.8423C53.8423 104.407 53.7666 104.098 53.6151 103.83C53.4635 103.561 53.2533 103.35 52.9844 103.199C52.7192 103.044 52.4105 102.966 52.0582 102.966C51.6908 102.966 51.3651 103.051 51.081 103.222C50.8007 103.388 50.581 103.614 50.4219 103.898C50.2628 104.178 50.1813 104.491 50.1776 104.835V106.261C50.1776 106.693 50.2571 107.066 50.4162 107.381C50.5791 107.695 50.8082 107.938 51.1037 108.108C51.3991 108.278 51.7495 108.364 52.1548 108.364C52.4238 108.364 52.67 108.326 52.8935 108.25C53.117 108.174 53.3082 108.061 53.4673 107.909C53.6264 107.758 53.7476 107.572 53.831 107.352L56.0696 107.5C55.956 108.038 55.723 108.508 55.3707 108.909C55.0223 109.307 54.5715 109.617 54.0185 109.841C53.4692 110.061 52.8348 110.17 52.1151 110.17ZM60.1889 110.165C59.6321 110.165 59.1359 110.068 58.7003 109.875C58.2647 109.678 57.92 109.388 57.6662 109.006C57.4162 108.619 57.2912 108.138 57.2912 107.562C57.2912 107.078 57.3802 106.67 57.5582 106.341C57.7363 106.011 57.9787 105.746 58.2855 105.545C58.5923 105.345 58.9408 105.193 59.331 105.091C59.7249 104.989 60.1378 104.917 60.5696 104.875C61.0772 104.822 61.4863 104.773 61.7969 104.727C62.1075 104.678 62.3329 104.606 62.473 104.511C62.6132 104.417 62.6832 104.277 62.6832 104.091V104.057C62.6832 103.697 62.5696 103.419 62.3423 103.222C62.1188 103.025 61.8007 102.926 61.3878 102.926C60.9522 102.926 60.6056 103.023 60.348 103.216C60.0904 103.405 59.92 103.644 59.8366 103.932L57.598 103.75C57.7116 103.22 57.9351 102.761 58.2685 102.375C58.6018 101.985 59.0317 101.686 59.5582 101.477C60.0885 101.265 60.7022 101.159 61.3991 101.159C61.884 101.159 62.348 101.216 62.7912 101.33C63.2382 101.443 63.634 101.619 63.9787 101.858C64.3272 102.097 64.6018 102.403 64.8026 102.778C65.0033 103.15 65.1037 103.595 65.1037 104.114V110H62.8082V108.79H62.7401C62.5999 109.062 62.4124 109.303 62.1776 109.511C61.9427 109.716 61.6605 109.877 61.331 109.994C61.0014 110.108 60.6207 110.165 60.1889 110.165ZM60.8821 108.494C61.2382 108.494 61.5526 108.424 61.8253 108.284C62.098 108.14 62.312 107.947 62.4673 107.705C62.6226 107.462 62.7003 107.187 62.7003 106.881V105.955C62.6245 106.004 62.5204 106.049 62.3878 106.091C62.259 106.129 62.1132 106.165 61.9503 106.199C61.7874 106.229 61.6245 106.258 61.4616 106.284C61.2988 106.307 61.151 106.328 61.0185 106.347C60.7344 106.388 60.4863 106.455 60.2741 106.545C60.062 106.636 59.8973 106.759 59.7798 106.915C59.6624 107.066 59.6037 107.256 59.6037 107.483C59.6037 107.812 59.723 108.064 59.9616 108.239C60.2041 108.409 60.5109 108.494 60.8821 108.494ZM71.6236 101.273V103.091H66.3679V101.273H71.6236ZM67.5611 99.1818H69.9815V107.318C69.9815 107.542 70.0156 107.716 70.0838 107.841C70.152 107.962 70.2467 108.047 70.3679 108.097C70.4929 108.146 70.6368 108.17 70.7997 108.17C70.9134 108.17 71.027 108.161 71.1406 108.142C71.2543 108.119 71.3414 108.102 71.402 108.091L71.7827 109.892C71.6615 109.93 71.491 109.973 71.2713 110.023C71.0516 110.076 70.7846 110.108 70.4702 110.119C69.8868 110.142 69.3755 110.064 68.9361 109.886C68.5005 109.708 68.1615 109.432 67.919 109.057C67.6766 108.682 67.5573 108.208 67.5611 107.636V99.1818ZM73.2003 110V101.273H75.6207V110H73.2003ZM74.4162 100.148C74.0563 100.148 73.7476 100.028 73.4901 99.7898C73.2363 99.5473 73.1094 99.2576 73.1094 98.9205C73.1094 98.5871 73.2363 98.3011 73.4901 98.0625C73.7476 97.8201 74.0563 97.6989 74.4162 97.6989C74.776 97.6989 75.0829 97.8201 75.3366 98.0625C75.5942 98.3011 75.723 98.5871 75.723 98.9205C75.723 99.2576 75.5942 99.5473 75.3366 99.7898C75.0829 100.028 74.776 100.148 74.4162 100.148ZM81.5028 110.17C80.6203 110.17 79.857 109.983 79.2131 109.608C78.5729 109.229 78.0786 108.703 77.7301 108.028C77.3816 107.35 77.2074 106.564 77.2074 105.67C77.2074 104.769 77.3816 103.981 77.7301 103.307C78.0786 102.629 78.5729 102.102 79.2131 101.727C79.857 101.348 80.6203 101.159 81.5028 101.159C82.3854 101.159 83.1468 101.348 83.7869 101.727C84.4309 102.102 84.9271 102.629 85.2756 103.307C85.6241 103.981 85.7983 104.769 85.7983 105.67C85.7983 106.564 85.6241 107.35 85.2756 108.028C84.9271 108.703 84.4309 109.229 83.7869 109.608C83.1468 109.983 82.3854 110.17 81.5028 110.17ZM81.5142 108.295C81.9157 108.295 82.2509 108.182 82.5199 107.955C82.7888 107.723 82.9915 107.409 83.1278 107.011C83.268 106.614 83.3381 106.161 83.3381 105.653C83.3381 105.146 83.268 104.693 83.1278 104.295C82.9915 103.898 82.7888 103.583 82.5199 103.352C82.2509 103.121 81.9157 103.006 81.5142 103.006C81.1089 103.006 80.768 103.121 80.4915 103.352C80.2188 103.583 80.0123 103.898 79.8722 104.295C79.7358 104.693 79.6676 105.146 79.6676 105.653C79.6676 106.161 79.7358 106.614 79.8722 107.011C80.0123 107.409 80.2188 107.723 80.4915 107.955C80.768 108.182 81.1089 108.295 81.5142 108.295ZM89.7926 104.955V110H87.3722V101.273H89.679V102.812H89.7812C89.9744 102.305 90.2983 101.903 90.7528 101.608C91.2074 101.309 91.7585 101.159 92.4062 101.159C93.0123 101.159 93.5407 101.292 93.9915 101.557C94.4422 101.822 94.7926 102.201 95.0426 102.693C95.2926 103.182 95.4176 103.765 95.4176 104.443V110H92.9972V104.875C93.0009 104.341 92.8646 103.924 92.5881 103.625C92.3116 103.322 91.9309 103.17 91.446 103.17C91.1203 103.17 90.8324 103.241 90.5824 103.381C90.3362 103.521 90.143 103.725 90.0028 103.994C89.8665 104.259 89.7964 104.58 89.7926 104.955Z" fill="#2A3647"/>
<path d="M39.7727 129H38.3636C38.2803 128.595 38.1345 128.239 37.9261 127.932C37.7216 127.625 37.4716 127.367 37.1761 127.159C36.8845 126.947 36.5606 126.788 36.2045 126.682C35.8485 126.576 35.4773 126.523 35.0909 126.523C34.3864 126.523 33.7481 126.701 33.1761 127.057C32.608 127.413 32.1553 127.938 31.8182 128.631C31.4848 129.324 31.3182 130.174 31.3182 131.182C31.3182 132.189 31.4848 133.04 31.8182 133.733C32.1553 134.426 32.608 134.951 33.1761 135.307C33.7481 135.663 34.3864 135.841 35.0909 135.841C35.4773 135.841 35.8485 135.788 36.2045 135.682C36.5606 135.576 36.8845 135.419 37.1761 135.21C37.4716 134.998 37.7216 134.739 37.9261 134.432C38.1345 134.121 38.2803 133.765 38.3636 133.364H39.7727C39.6667 133.958 39.4735 134.491 39.1932 134.96C38.9129 135.43 38.5644 135.83 38.1477 136.159C37.7311 136.485 37.2633 136.733 36.7443 136.903C36.2292 137.074 35.678 137.159 35.0909 137.159C34.0985 137.159 33.2159 136.917 32.4432 136.432C31.6705 135.947 31.0625 135.258 30.6193 134.364C30.1761 133.47 29.9545 132.409 29.9545 131.182C29.9545 129.955 30.1761 128.894 30.6193 128C31.0625 127.106 31.6705 126.417 32.4432 125.932C33.2159 125.447 34.0985 125.205 35.0909 125.205C35.678 125.205 36.2292 125.29 36.7443 125.46C37.2633 125.631 37.7311 125.881 38.1477 126.21C38.5644 126.536 38.9129 126.934 39.1932 127.403C39.4735 127.869 39.6667 128.402 39.7727 129ZM41.8679 137V128.273H43.1634V129.591H43.2543C43.4134 129.159 43.7012 128.809 44.1179 128.54C44.5346 128.271 45.0043 128.136 45.527 128.136C45.6255 128.136 45.7486 128.138 45.8963 128.142C46.044 128.146 46.1558 128.152 46.2315 128.159V129.523C46.1861 129.511 46.0819 129.494 45.919 129.472C45.7599 129.445 45.5914 129.432 45.4134 129.432C44.9891 129.432 44.6103 129.521 44.277 129.699C43.9474 129.873 43.6861 130.116 43.4929 130.426C43.3035 130.733 43.2088 131.083 43.2088 131.477V137H41.8679ZM51.2145 137.182C50.3736 137.182 49.6482 136.996 49.0384 136.625C48.4323 136.25 47.9645 135.727 47.6349 135.057C47.3092 134.383 47.1463 133.598 47.1463 132.705C47.1463 131.811 47.3092 131.023 47.6349 130.341C47.9645 129.655 48.4228 129.121 49.0099 128.739C49.6009 128.352 50.2902 128.159 51.0781 128.159C51.5327 128.159 51.9815 128.235 52.4247 128.386C52.8679 128.538 53.2713 128.784 53.6349 129.125C53.9986 129.462 54.2884 129.909 54.5043 130.466C54.7202 131.023 54.8281 131.708 54.8281 132.523V133.091H48.1009V131.932H53.4645C53.4645 131.439 53.366 131 53.169 130.614C52.9759 130.227 52.6993 129.922 52.3395 129.699C51.9834 129.475 51.563 129.364 51.0781 129.364C50.544 129.364 50.0819 129.496 49.6918 129.761C49.3054 130.023 49.008 130.364 48.7997 130.784C48.5914 131.205 48.4872 131.655 48.4872 132.136V132.909C48.4872 133.568 48.6009 134.127 48.8281 134.585C49.0592 135.04 49.3793 135.386 49.7884 135.625C50.1974 135.86 50.6728 135.977 51.2145 135.977C51.5668 135.977 51.8849 135.928 52.169 135.83C52.4569 135.727 52.705 135.576 52.9134 135.375C53.1217 135.17 53.2827 134.917 53.3963 134.614L54.6918 134.977C54.5554 135.417 54.3262 135.803 54.0043 136.136C53.6823 136.466 53.2846 136.723 52.8111 136.909C52.3376 137.091 51.8054 137.182 51.2145 137.182ZM59.4361 137.205C58.883 137.205 58.3812 137.1 57.9304 136.892C57.4796 136.68 57.1217 136.375 56.8565 135.977C56.5914 135.576 56.4588 135.091 56.4588 134.523C56.4588 134.023 56.5573 133.617 56.7543 133.307C56.9512 132.992 57.2145 132.746 57.544 132.568C57.8736 132.39 58.2372 132.258 58.6349 132.17C59.0365 132.08 59.4399 132.008 59.8452 131.955C60.3755 131.886 60.8054 131.835 61.1349 131.801C61.4683 131.763 61.7107 131.701 61.8622 131.614C62.0175 131.527 62.0952 131.375 62.0952 131.159V131.114C62.0952 130.553 61.9418 130.117 61.6349 129.807C61.3319 129.496 60.8717 129.341 60.2543 129.341C59.6141 129.341 59.1122 129.481 58.7486 129.761C58.3849 130.042 58.1293 130.341 57.9815 130.659L56.7088 130.205C56.9361 129.674 57.2391 129.261 57.6179 128.966C58.0005 128.667 58.4171 128.458 58.8679 128.341C59.3224 128.22 59.7694 128.159 60.2088 128.159C60.4891 128.159 60.8111 128.193 61.1747 128.261C61.5421 128.326 61.8963 128.46 62.2372 128.665C62.5819 128.869 62.8679 129.178 63.0952 129.591C63.3224 130.004 63.4361 130.557 63.4361 131.25V137H62.0952V135.818H62.027C61.9361 136.008 61.7846 136.21 61.5724 136.426C61.3603 136.642 61.0781 136.826 60.7259 136.977C60.3736 137.129 59.9437 137.205 59.4361 137.205ZM59.6406 136C60.1709 136 60.6179 135.896 60.9815 135.688C61.349 135.479 61.6255 135.21 61.8111 134.881C62.0005 134.551 62.0952 134.205 62.0952 133.841V132.614C62.0384 132.682 61.9134 132.744 61.7202 132.801C61.5308 132.854 61.3111 132.902 61.0611 132.943C60.8149 132.981 60.5743 133.015 60.3395 133.045C60.1084 133.072 59.9209 133.095 59.777 133.114C59.4285 133.159 59.1027 133.233 58.7997 133.335C58.5005 133.434 58.258 133.583 58.0724 133.784C57.8906 133.981 57.7997 134.25 57.7997 134.591C57.7997 135.057 57.9721 135.409 58.3168 135.648C58.6652 135.883 59.1065 136 59.6406 136ZM69.679 128.273V129.409H65.1562V128.273H69.679ZM66.4744 126.182H67.8153V134.5C67.8153 134.879 67.8703 135.163 67.9801 135.352C68.0938 135.538 68.2377 135.663 68.4119 135.727C68.59 135.788 68.7775 135.818 68.9744 135.818C69.1222 135.818 69.2434 135.811 69.3381 135.795C69.4328 135.777 69.5085 135.761 69.5653 135.75L69.8381 136.955C69.7472 136.989 69.6203 137.023 69.4574 137.057C69.2945 137.095 69.0881 137.114 68.8381 137.114C68.4593 137.114 68.0881 137.032 67.7244 136.869C67.3646 136.706 67.0653 136.458 66.8267 136.125C66.5919 135.792 66.4744 135.371 66.4744 134.864V126.182ZM75.2614 137.182C74.4205 137.182 73.6951 136.996 73.0852 136.625C72.4792 136.25 72.0114 135.727 71.6818 135.057C71.3561 134.383 71.1932 133.598 71.1932 132.705C71.1932 131.811 71.3561 131.023 71.6818 130.341C72.0114 129.655 72.4697 129.121 73.0568 128.739C73.6477 128.352 74.3371 128.159 75.125 128.159C75.5795 128.159 76.0284 128.235 76.4716 128.386C76.9148 128.538 77.3182 128.784 77.6818 129.125C78.0455 129.462 78.3352 129.909 78.5511 130.466C78.767 131.023 78.875 131.708 78.875 132.523V133.091H72.1477V131.932H77.5114C77.5114 131.439 77.4129 131 77.2159 130.614C77.0227 130.227 76.7462 129.922 76.3864 129.699C76.0303 129.475 75.6098 129.364 75.125 129.364C74.5909 129.364 74.1288 129.496 73.7386 129.761C73.3523 130.023 73.0549 130.364 72.8466 130.784C72.6383 131.205 72.5341 131.655 72.5341 132.136V132.909C72.5341 133.568 72.6477 134.127 72.875 134.585C73.1061 135.04 73.4261 135.386 73.8352 135.625C74.2443 135.86 74.7197 135.977 75.2614 135.977C75.6136 135.977 75.9318 135.928 76.2159 135.83C76.5038 135.727 76.7519 135.576 76.9602 135.375C77.1686 135.17 77.3295 134.917 77.4432 134.614L78.7386 134.977C78.6023 135.417 78.3731 135.803 78.0511 136.136C77.7292 136.466 77.3314 136.723 76.858 136.909C76.3845 137.091 75.8523 137.182 75.2614 137.182ZM85.4148 137V128.273H86.7102V129.591H86.8011C86.9602 129.159 87.2481 128.809 87.6648 128.54C88.0814 128.271 88.5511 128.136 89.0739 128.136C89.1723 128.136 89.2955 128.138 89.4432 128.142C89.5909 128.146 89.7027 128.152 89.7784 128.159V129.523C89.733 129.511 89.6288 129.494 89.4659 129.472C89.3068 129.445 89.1383 129.432 88.9602 129.432C88.536 129.432 88.1572 129.521 87.8239 129.699C87.4943 129.873 87.233 130.116 87.0398 130.426C86.8504 130.733 86.7557 131.083 86.7557 131.477V137H85.4148ZM94.7614 137.182C93.9205 137.182 93.1951 136.996 92.5852 136.625C91.9792 136.25 91.5114 135.727 91.1818 135.057C90.8561 134.383 90.6932 133.598 90.6932 132.705C90.6932 131.811 90.8561 131.023 91.1818 130.341C91.5114 129.655 91.9697 129.121 92.5568 128.739C93.1477 128.352 93.8371 128.159 94.625 128.159C95.0795 128.159 95.5284 128.235 95.9716 128.386C96.4148 128.538 96.8182 128.784 97.1818 129.125C97.5455 129.462 97.8352 129.909 98.0511 130.466C98.267 131.023 98.375 131.708 98.375 132.523V133.091H91.6477V131.932H97.0114C97.0114 131.439 96.9129 131 96.7159 130.614C96.5227 130.227 96.2462 129.922 95.8864 129.699C95.5303 129.475 95.1098 129.364 94.625 129.364C94.0909 129.364 93.6288 129.496 93.2386 129.761C92.8523 130.023 92.5549 130.364 92.3466 130.784C92.1383 131.205 92.0341 131.655 92.0341 132.136V132.909C92.0341 133.568 92.1477 134.127 92.375 134.585C92.6061 135.04 92.9261 135.386 93.3352 135.625C93.7443 135.86 94.2197 135.977 94.7614 135.977C95.1136 135.977 95.4318 135.928 95.7159 135.83C96.0038 135.727 96.2519 135.576 96.4602 135.375C96.6686 135.17 96.8295 134.917 96.9432 134.614L98.2386 134.977C98.1023 135.417 97.8731 135.803 97.5511 136.136C97.2292 136.466 96.8314 136.723 96.358 136.909C95.8845 137.091 95.3523 137.182 94.7614 137.182ZM105.915 133.432V128.273H107.256V137H105.915V135.523H105.824C105.619 135.966 105.301 136.343 104.869 136.653C104.438 136.96 103.892 137.114 103.233 137.114C102.688 137.114 102.203 136.994 101.778 136.756C101.354 136.513 101.021 136.15 100.778 135.665C100.536 135.176 100.415 134.561 100.415 133.818V128.273H101.756V133.727C101.756 134.364 101.934 134.871 102.29 135.25C102.65 135.629 103.108 135.818 103.665 135.818C103.998 135.818 104.337 135.733 104.682 135.562C105.03 135.392 105.322 135.131 105.557 134.778C105.795 134.426 105.915 133.977 105.915 133.432ZM115.893 130.227L114.689 130.568C114.613 130.367 114.501 130.172 114.354 129.983C114.21 129.79 114.013 129.631 113.763 129.506C113.513 129.381 113.193 129.318 112.803 129.318C112.268 129.318 111.823 129.441 111.467 129.688C111.115 129.93 110.939 130.239 110.939 130.614C110.939 130.947 111.06 131.21 111.303 131.403C111.545 131.597 111.924 131.758 112.439 131.886L113.734 132.205C114.515 132.394 115.096 132.684 115.479 133.074C115.861 133.46 116.053 133.958 116.053 134.568C116.053 135.068 115.909 135.515 115.621 135.909C115.337 136.303 114.939 136.614 114.428 136.841C113.916 137.068 113.321 137.182 112.643 137.182C111.753 137.182 111.017 136.989 110.433 136.602C109.85 136.216 109.481 135.652 109.325 134.909L110.598 134.591C110.719 135.061 110.948 135.413 111.286 135.648C111.626 135.883 112.071 136 112.621 136C113.246 136 113.742 135.867 114.109 135.602C114.481 135.333 114.666 135.011 114.666 134.636C114.666 134.333 114.56 134.08 114.348 133.875C114.136 133.667 113.81 133.511 113.371 133.409L111.916 133.068C111.117 132.879 110.53 132.585 110.155 132.188C109.784 131.786 109.598 131.284 109.598 130.682C109.598 130.189 109.736 129.754 110.013 129.375C110.293 128.996 110.674 128.699 111.155 128.483C111.64 128.267 112.189 128.159 112.803 128.159C113.666 128.159 114.344 128.348 114.837 128.727C115.333 129.106 115.685 129.606 115.893 130.227ZM120.639 137.205C120.086 137.205 119.584 137.1 119.134 136.892C118.683 136.68 118.325 136.375 118.06 135.977C117.795 135.576 117.662 135.091 117.662 134.523C117.662 134.023 117.76 133.617 117.957 133.307C118.154 132.992 118.418 132.746 118.747 132.568C119.077 132.39 119.44 132.258 119.838 132.17C120.24 132.08 120.643 132.008 121.048 131.955C121.579 131.886 122.009 131.835 122.338 131.801C122.671 131.763 122.914 131.701 123.065 131.614C123.221 131.527 123.298 131.375 123.298 131.159V131.114C123.298 130.553 123.145 130.117 122.838 129.807C122.535 129.496 122.075 129.341 121.457 129.341C120.817 129.341 120.315 129.481 119.952 129.761C119.588 130.042 119.332 130.341 119.185 130.659L117.912 130.205C118.139 129.674 118.442 129.261 118.821 128.966C119.204 128.667 119.62 128.458 120.071 128.341C120.526 128.22 120.973 128.159 121.412 128.159C121.692 128.159 122.014 128.193 122.378 128.261C122.745 128.326 123.099 128.46 123.44 128.665C123.785 128.869 124.071 129.178 124.298 129.591C124.526 130.004 124.639 130.557 124.639 131.25V137H123.298V135.818H123.23C123.139 136.008 122.988 136.21 122.776 136.426C122.563 136.642 122.281 136.826 121.929 136.977C121.577 137.129 121.147 137.205 120.639 137.205ZM120.844 136C121.374 136 121.821 135.896 122.185 135.688C122.552 135.479 122.829 135.21 123.014 134.881C123.204 134.551 123.298 134.205 123.298 133.841V132.614C123.241 132.682 123.116 132.744 122.923 132.801C122.734 132.854 122.514 132.902 122.264 132.943C122.018 132.981 121.777 133.015 121.543 133.045C121.312 133.072 121.124 133.095 120.98 133.114C120.632 133.159 120.306 133.233 120.003 133.335C119.704 133.434 119.461 133.583 119.276 133.784C119.094 133.981 119.003 134.25 119.003 134.591C119.003 135.057 119.175 135.409 119.52 135.648C119.868 135.883 120.31 136 120.844 136ZM127.268 137V125.364H128.609V129.659H128.723C128.821 129.508 128.958 129.314 129.132 129.08C129.31 128.841 129.564 128.629 129.893 128.443C130.227 128.254 130.678 128.159 131.246 128.159C131.981 128.159 132.628 128.343 133.189 128.71C133.75 129.078 134.187 129.598 134.501 130.273C134.816 130.947 134.973 131.742 134.973 132.659C134.973 133.583 134.816 134.384 134.501 135.062C134.187 135.737 133.751 136.259 133.195 136.631C132.638 136.998 131.996 137.182 131.268 137.182C130.708 137.182 130.259 137.089 129.922 136.903C129.585 136.714 129.325 136.5 129.143 136.261C128.962 136.019 128.821 135.818 128.723 135.659H128.564V137H127.268ZM128.587 132.636C128.587 133.295 128.683 133.877 128.876 134.381C129.07 134.881 129.352 135.273 129.723 135.557C130.094 135.837 130.549 135.977 131.087 135.977C131.647 135.977 132.115 135.83 132.49 135.534C132.869 135.235 133.153 134.833 133.342 134.33C133.536 133.822 133.632 133.258 133.632 132.636C133.632 132.023 133.537 131.47 133.348 130.977C133.162 130.481 132.88 130.089 132.501 129.801C132.126 129.509 131.655 129.364 131.087 129.364C130.541 129.364 130.083 129.502 129.712 129.778C129.34 130.051 129.06 130.434 128.871 130.926C128.681 131.415 128.587 131.985 128.587 132.636ZM138.365 125.364V137H137.024V125.364H138.365ZM144.48 137.182C143.639 137.182 142.914 136.996 142.304 136.625C141.698 136.25 141.23 135.727 140.901 135.057C140.575 134.383 140.412 133.598 140.412 132.705C140.412 131.811 140.575 131.023 140.901 130.341C141.23 129.655 141.688 129.121 142.276 128.739C142.866 128.352 143.556 128.159 144.344 128.159C144.798 128.159 145.247 128.235 145.69 128.386C146.134 128.538 146.537 128.784 146.901 129.125C147.264 129.462 147.554 129.909 147.77 130.466C147.986 131.023 148.094 131.708 148.094 132.523V133.091H141.366V131.932H146.73C146.73 131.439 146.632 131 146.435 130.614C146.241 130.227 145.965 129.922 145.605 129.699C145.249 129.475 144.829 129.364 144.344 129.364C143.81 129.364 143.348 129.496 142.957 129.761C142.571 130.023 142.274 130.364 142.065 130.784C141.857 131.205 141.753 131.655 141.753 132.136V132.909C141.753 133.568 141.866 134.127 142.094 134.585C142.325 135.04 142.645 135.386 143.054 135.625C143.463 135.86 143.938 135.977 144.48 135.977C144.832 135.977 145.151 135.928 145.435 135.83C145.723 135.727 145.971 135.576 146.179 135.375C146.387 135.17 146.548 134.917 146.662 134.614L147.957 134.977C147.821 135.417 147.592 135.803 147.27 136.136C146.948 136.466 146.55 136.723 146.077 136.909C145.603 137.091 145.071 137.182 144.48 137.182ZM154.815 137V125.364H156.224V130.545H162.429V125.364H163.838V137H162.429V131.795H156.224V137H154.815ZM166.023 126.614V125.364H174.75V126.614H171.091V137H169.682V126.614H166.023ZM176.925 125.364H178.607L182.561 135.023H182.697L186.652 125.364H188.334V137H187.016V128.159H186.902L183.266 137H181.993L178.357 128.159H178.243V137H176.925V125.364ZM191.159 137V125.364H192.568V135.75H197.977V137H191.159ZM204.659 137V125.364H206V129.659H206.114C206.212 129.508 206.348 129.314 206.523 129.08C206.701 128.841 206.955 128.629 207.284 128.443C207.617 128.254 208.068 128.159 208.636 128.159C209.371 128.159 210.019 128.343 210.58 128.71C211.14 129.078 211.578 129.598 211.892 130.273C212.206 130.947 212.364 131.742 212.364 132.659C212.364 133.583 212.206 134.384 211.892 135.062C211.578 135.737 211.142 136.259 210.585 136.631C210.028 136.998 209.386 137.182 208.659 137.182C208.098 137.182 207.65 137.089 207.312 136.903C206.975 136.714 206.716 136.5 206.534 136.261C206.352 136.019 206.212 135.818 206.114 135.659H205.955V137H204.659ZM205.977 132.636C205.977 133.295 206.074 133.877 206.267 134.381C206.46 134.881 206.742 135.273 207.114 135.557C207.485 135.837 207.939 135.977 208.477 135.977C209.038 135.977 209.506 135.83 209.881 135.534C210.259 135.235 210.544 134.833 210.733 134.33C210.926 133.822 211.023 133.258 211.023 132.636C211.023 132.023 210.928 131.47 210.739 130.977C210.553 130.481 210.271 130.089 209.892 129.801C209.517 129.509 209.045 129.364 208.477 129.364C207.932 129.364 207.473 129.502 207.102 129.778C206.731 130.051 206.451 130.434 206.261 130.926C206.072 131.415 205.977 131.985 205.977 132.636ZM216.983 137.205C216.43 137.205 215.928 137.1 215.477 136.892C215.027 136.68 214.669 136.375 214.403 135.977C214.138 135.576 214.006 135.091 214.006 134.523C214.006 134.023 214.104 133.617 214.301 133.307C214.498 132.992 214.761 132.746 215.091 132.568C215.42 132.39 215.784 132.258 216.182 132.17C216.583 132.08 216.987 132.008 217.392 131.955C217.922 131.886 218.352 131.835 218.682 131.801C219.015 131.763 219.258 131.701 219.409 131.614C219.564 131.527 219.642 131.375 219.642 131.159V131.114C219.642 130.553 219.489 130.117 219.182 129.807C218.879 129.496 218.419 129.341 217.801 129.341C217.161 129.341 216.659 129.481 216.295 129.761C215.932 130.042 215.676 130.341 215.528 130.659L214.256 130.205C214.483 129.674 214.786 129.261 215.165 128.966C215.547 128.667 215.964 128.458 216.415 128.341C216.869 128.22 217.316 128.159 217.756 128.159C218.036 128.159 218.358 128.193 218.722 128.261C219.089 128.326 219.443 128.46 219.784 128.665C220.129 128.869 220.415 129.178 220.642 129.591C220.869 130.004 220.983 130.557 220.983 131.25V137H219.642V135.818H219.574C219.483 136.008 219.331 136.21 219.119 136.426C218.907 136.642 218.625 136.826 218.273 136.977C217.92 137.129 217.491 137.205 216.983 137.205ZM217.188 136C217.718 136 218.165 135.896 218.528 135.688C218.896 135.479 219.172 135.21 219.358 134.881C219.547 134.551 219.642 134.205 219.642 133.841V132.614C219.585 132.682 219.46 132.744 219.267 132.801C219.078 132.854 218.858 132.902 218.608 132.943C218.362 132.981 218.121 133.015 217.886 133.045C217.655 133.072 217.468 133.095 217.324 133.114C216.975 133.159 216.65 133.233 216.347 133.335C216.047 133.434 215.805 133.583 215.619 133.784C215.438 133.981 215.347 134.25 215.347 134.591C215.347 135.057 215.519 135.409 215.864 135.648C216.212 135.883 216.653 136 217.188 136ZM229.612 130.227L228.408 130.568C228.332 130.367 228.22 130.172 228.072 129.983C227.929 129.79 227.732 129.631 227.482 129.506C227.232 129.381 226.911 129.318 226.521 129.318C225.987 129.318 225.542 129.441 225.186 129.688C224.834 129.93 224.658 130.239 224.658 130.614C224.658 130.947 224.779 131.21 225.021 131.403C225.264 131.597 225.643 131.758 226.158 131.886L227.453 132.205C228.233 132.394 228.815 132.684 229.197 133.074C229.58 133.46 229.771 133.958 229.771 134.568C229.771 135.068 229.627 135.515 229.339 135.909C229.055 136.303 228.658 136.614 228.146 136.841C227.635 137.068 227.04 137.182 226.362 137.182C225.472 137.182 224.735 136.989 224.152 136.602C223.569 136.216 223.199 135.652 223.044 134.909L224.317 134.591C224.438 135.061 224.667 135.413 225.004 135.648C225.345 135.883 225.79 136 226.339 136C226.964 136 227.461 135.867 227.828 135.602C228.199 135.333 228.385 135.011 228.385 134.636C228.385 134.333 228.279 134.08 228.067 133.875C227.855 133.667 227.529 133.511 227.089 133.409L225.635 133.068C224.836 132.879 224.249 132.585 223.874 132.188C223.502 131.786 223.317 131.284 223.317 130.682C223.317 130.189 223.455 129.754 223.732 129.375C224.012 128.996 224.393 128.699 224.874 128.483C225.358 128.267 225.908 128.159 226.521 128.159C227.385 128.159 228.063 128.348 228.555 128.727C229.052 129.106 229.404 129.606 229.612 130.227ZM235.449 137.182C234.608 137.182 233.883 136.996 233.273 136.625C232.667 136.25 232.199 135.727 231.869 135.057C231.544 134.383 231.381 133.598 231.381 132.705C231.381 131.811 231.544 131.023 231.869 130.341C232.199 129.655 232.657 129.121 233.244 128.739C233.835 128.352 234.525 128.159 235.312 128.159C235.767 128.159 236.216 128.235 236.659 128.386C237.102 128.538 237.506 128.784 237.869 129.125C238.233 129.462 238.523 129.909 238.739 130.466C238.955 131.023 239.062 131.708 239.062 132.523V133.091H232.335V131.932H237.699C237.699 131.439 237.6 131 237.403 130.614C237.21 130.227 236.934 129.922 236.574 129.699C236.218 129.475 235.797 129.364 235.312 129.364C234.778 129.364 234.316 129.496 233.926 129.761C233.54 130.023 233.242 130.364 233.034 130.784C232.826 131.205 232.722 131.655 232.722 132.136V132.909C232.722 133.568 232.835 134.127 233.062 134.585C233.294 135.04 233.614 135.386 234.023 135.625C234.432 135.86 234.907 135.977 235.449 135.977C235.801 135.977 236.119 135.928 236.403 135.83C236.691 135.727 236.939 135.576 237.148 135.375C237.356 135.17 237.517 134.917 237.631 134.614L238.926 134.977C238.79 135.417 238.561 135.803 238.239 136.136C237.917 136.466 237.519 136.723 237.045 136.909C236.572 137.091 236.04 137.182 235.449 137.182ZM34.0227 147.273V148.409H29.5V147.273H34.0227ZM30.8182 145.182H32.1591V153.5C32.1591 153.879 32.214 154.163 32.3239 154.352C32.4375 154.538 32.5814 154.663 32.7557 154.727C32.9337 154.788 33.1212 154.818 33.3182 154.818C33.4659 154.818 33.5871 154.811 33.6818 154.795C33.7765 154.777 33.8523 154.761 33.9091 154.75L34.1818 155.955C34.0909 155.989 33.964 156.023 33.8011 156.057C33.6383 156.095 33.4318 156.114 33.1818 156.114C32.803 156.114 32.4318 156.032 32.0682 155.869C31.7083 155.706 31.4091 155.458 31.1705 155.125C30.9356 154.792 30.8182 154.371 30.8182 153.864V145.182ZM39.6051 156.182C38.7642 156.182 38.0388 155.996 37.429 155.625C36.8229 155.25 36.3551 154.727 36.0256 154.057C35.6998 153.383 35.5369 152.598 35.5369 151.705C35.5369 150.811 35.6998 150.023 36.0256 149.341C36.3551 148.655 36.8134 148.121 37.4006 147.739C37.9915 147.352 38.6809 147.159 39.4688 147.159C39.9233 147.159 40.3722 147.235 40.8153 147.386C41.2585 147.538 41.6619 147.784 42.0256 148.125C42.3892 148.462 42.679 148.909 42.8949 149.466C43.1108 150.023 43.2188 150.708 43.2188 151.523V152.091H36.4915V150.932H41.8551C41.8551 150.439 41.7566 150 41.5597 149.614C41.3665 149.227 41.09 148.922 40.7301 148.699C40.3741 148.475 39.9536 148.364 39.4688 148.364C38.9347 148.364 38.4725 148.496 38.0824 148.761C37.696 149.023 37.3987 149.364 37.1903 149.784C36.982 150.205 36.8778 150.655 36.8778 151.136V151.909C36.8778 152.568 36.9915 153.127 37.2188 153.585C37.4498 154.04 37.7699 154.386 38.179 154.625C38.5881 154.86 39.0634 154.977 39.6051 154.977C39.9574 154.977 40.2756 154.928 40.5597 154.83C40.8475 154.727 41.0956 154.576 41.304 154.375C41.5123 154.17 41.6733 153.917 41.7869 153.614L43.0824 153.977C42.946 154.417 42.7169 154.803 42.3949 155.136C42.0729 155.466 41.6752 155.723 41.2017 155.909C40.7282 156.091 40.196 156.182 39.6051 156.182ZM45.2585 156V147.273H46.554V148.636H46.6676C46.8494 148.17 47.143 147.809 47.5483 147.551C47.9536 147.29 48.4403 147.159 49.0085 147.159C49.5843 147.159 50.0634 147.29 50.446 147.551C50.8324 147.809 51.1335 148.17 51.3494 148.636H51.4403C51.6638 148.186 51.9991 147.828 52.446 147.562C52.893 147.294 53.429 147.159 54.054 147.159C54.8343 147.159 55.4725 147.403 55.9688 147.892C56.465 148.377 56.7131 149.133 56.7131 150.159V156H55.3722V150.159C55.3722 149.515 55.196 149.055 54.8438 148.778C54.4915 148.502 54.0767 148.364 53.5994 148.364C52.9858 148.364 52.5104 148.549 52.1733 148.92C51.8362 149.288 51.6676 149.754 51.6676 150.318V156H50.304V150.023C50.304 149.527 50.143 149.127 49.821 148.824C49.4991 148.517 49.0843 148.364 48.5767 148.364C48.2282 148.364 47.9025 148.456 47.5994 148.642C47.3002 148.828 47.0578 149.085 46.8722 149.415C46.6903 149.741 46.5994 150.117 46.5994 150.545V156H45.2585ZM59.1648 159.273V147.273H60.4602V148.659H60.6193C60.7178 148.508 60.8542 148.314 61.0284 148.08C61.2064 147.841 61.4602 147.629 61.7898 147.443C62.1231 147.254 62.5739 147.159 63.142 147.159C63.8769 147.159 64.5246 147.343 65.0852 147.71C65.6458 148.078 66.0833 148.598 66.3977 149.273C66.7121 149.947 66.8693 150.742 66.8693 151.659C66.8693 152.583 66.7121 153.384 66.3977 154.062C66.0833 154.737 65.6477 155.259 65.0909 155.631C64.5341 155.998 63.892 156.182 63.1648 156.182C62.6042 156.182 62.1553 156.089 61.8182 155.903C61.4811 155.714 61.2216 155.5 61.0398 155.261C60.858 155.019 60.7178 154.818 60.6193 154.659H60.5057V159.273H59.1648ZM60.483 151.636C60.483 152.295 60.5795 152.877 60.7727 153.381C60.9659 153.881 61.2481 154.273 61.6193 154.557C61.9905 154.837 62.4451 154.977 62.983 154.977C63.5436 154.977 64.0114 154.83 64.3864 154.534C64.7652 154.235 65.0492 153.833 65.2386 153.33C65.4318 152.822 65.5284 152.258 65.5284 151.636C65.5284 151.023 65.4337 150.47 65.2443 149.977C65.0587 149.481 64.7765 149.089 64.3977 148.801C64.0227 148.509 63.5511 148.364 62.983 148.364C62.4375 148.364 61.9792 148.502 61.608 148.778C61.2367 149.051 60.9564 149.434 60.767 149.926C60.5777 150.415 60.483 150.985 60.483 151.636ZM70.2557 144.364V156H68.9148V144.364H70.2557ZM75.2798 156.205C74.7268 156.205 74.2249 156.1 73.7741 155.892C73.3234 155.68 72.9654 155.375 72.7003 154.977C72.4351 154.576 72.3026 154.091 72.3026 153.523C72.3026 153.023 72.401 152.617 72.598 152.307C72.795 151.992 73.0582 151.746 73.3878 151.568C73.7173 151.39 74.081 151.258 74.4787 151.17C74.8802 151.08 75.2836 151.008 75.6889 150.955C76.2192 150.886 76.6491 150.835 76.9787 150.801C77.312 150.763 77.5545 150.701 77.706 150.614C77.8613 150.527 77.9389 150.375 77.9389 150.159V150.114C77.9389 149.553 77.7855 149.117 77.4787 148.807C77.1757 148.496 76.7154 148.341 76.098 148.341C75.4579 148.341 74.956 148.481 74.5923 148.761C74.2287 149.042 73.973 149.341 73.8253 149.659L72.5526 149.205C72.7798 148.674 73.0829 148.261 73.4616 147.966C73.8442 147.667 74.2609 147.458 74.7116 147.341C75.1662 147.22 75.6132 147.159 76.0526 147.159C76.3329 147.159 76.6548 147.193 77.0185 147.261C77.3859 147.326 77.7401 147.46 78.081 147.665C78.4257 147.869 78.7116 148.178 78.9389 148.591C79.1662 149.004 79.2798 149.557 79.2798 150.25V156H77.9389V154.818H77.8707C77.7798 155.008 77.6283 155.21 77.4162 155.426C77.2041 155.642 76.9219 155.826 76.5696 155.977C76.2173 156.129 75.7874 156.205 75.2798 156.205ZM75.4844 155C76.0147 155 76.4616 154.896 76.8253 154.688C77.1927 154.479 77.4692 154.21 77.6548 153.881C77.8442 153.551 77.9389 153.205 77.9389 152.841V151.614C77.8821 151.682 77.7571 151.744 77.5639 151.801C77.3745 151.854 77.1548 151.902 76.9048 151.943C76.6586 151.981 76.4181 152.015 76.1832 152.045C75.9522 152.072 75.7647 152.095 75.6207 152.114C75.2723 152.159 74.9465 152.233 74.6435 152.335C74.3442 152.434 74.1018 152.583 73.9162 152.784C73.7344 152.981 73.6435 153.25 73.6435 153.591C73.6435 154.057 73.8158 154.409 74.1605 154.648C74.509 154.883 74.9503 155 75.4844 155ZM85.5227 147.273V148.409H81V147.273H85.5227ZM82.3182 145.182H83.6591V153.5C83.6591 153.879 83.714 154.163 83.8239 154.352C83.9375 154.538 84.0814 154.663 84.2557 154.727C84.4337 154.788 84.6212 154.818 84.8182 154.818C84.9659 154.818 85.0871 154.811 85.1818 154.795C85.2765 154.777 85.3523 154.761 85.4091 154.75L85.6818 155.955C85.5909 155.989 85.464 156.023 85.3011 156.057C85.1383 156.095 84.9318 156.114 84.6818 156.114C84.303 156.114 83.9318 156.032 83.5682 155.869C83.2083 155.706 82.9091 155.458 82.6705 155.125C82.4356 154.792 82.3182 154.371 82.3182 153.864V145.182ZM91.1051 156.182C90.2642 156.182 89.5388 155.996 88.929 155.625C88.3229 155.25 87.8551 154.727 87.5256 154.057C87.1998 153.383 87.0369 152.598 87.0369 151.705C87.0369 150.811 87.1998 150.023 87.5256 149.341C87.8551 148.655 88.3134 148.121 88.9006 147.739C89.4915 147.352 90.1809 147.159 90.9688 147.159C91.4233 147.159 91.8722 147.235 92.3153 147.386C92.7585 147.538 93.1619 147.784 93.5256 148.125C93.8892 148.462 94.179 148.909 94.3949 149.466C94.6108 150.023 94.7188 150.708 94.7188 151.523V152.091H87.9915V150.932H93.3551C93.3551 150.439 93.2566 150 93.0597 149.614C92.8665 149.227 92.59 148.922 92.2301 148.699C91.8741 148.475 91.4536 148.364 90.9688 148.364C90.4347 148.364 89.9725 148.496 89.5824 148.761C89.196 149.023 88.8987 149.364 88.6903 149.784C88.482 150.205 88.3778 150.655 88.3778 151.136V151.909C88.3778 152.568 88.4915 153.127 88.7188 153.585C88.9498 154.04 89.2699 154.386 89.679 154.625C90.0881 154.86 90.5634 154.977 91.1051 154.977C91.4574 154.977 91.7756 154.928 92.0597 154.83C92.3475 154.727 92.5956 154.576 92.804 154.375C93.0123 154.17 93.1733 153.917 93.2869 153.614L94.5824 153.977C94.446 154.417 94.2169 154.803 93.8949 155.136C93.5729 155.466 93.1752 155.723 92.7017 155.909C92.2282 156.091 91.696 156.182 91.1051 156.182ZM102.94 149.227L101.736 149.568C101.66 149.367 101.548 149.172 101.401 148.983C101.257 148.79 101.06 148.631 100.81 148.506C100.56 148.381 100.24 148.318 99.8494 148.318C99.3153 148.318 98.8703 148.441 98.5142 148.688C98.1619 148.93 97.9858 149.239 97.9858 149.614C97.9858 149.947 98.107 150.21 98.3494 150.403C98.5919 150.597 98.9706 150.758 99.4858 150.886L100.781 151.205C101.562 151.394 102.143 151.684 102.526 152.074C102.908 152.46 103.099 152.958 103.099 153.568C103.099 154.068 102.955 154.515 102.668 154.909C102.384 155.303 101.986 155.614 101.474 155.841C100.963 156.068 100.368 156.182 99.6903 156.182C98.8002 156.182 98.0634 155.989 97.4801 155.602C96.8968 155.216 96.5275 154.652 96.3722 153.909L97.6449 153.591C97.7661 154.061 97.9953 154.413 98.3324 154.648C98.6733 154.883 99.1184 155 99.6676 155C100.293 155 100.789 154.867 101.156 154.602C101.527 154.333 101.713 154.011 101.713 153.636C101.713 153.333 101.607 153.08 101.395 152.875C101.183 152.667 100.857 152.511 100.418 152.409L98.9631 152.068C98.1638 151.879 97.5767 151.585 97.2017 151.188C96.8305 150.786 96.6449 150.284 96.6449 149.682C96.6449 149.189 96.7831 148.754 97.0597 148.375C97.34 147.996 97.7206 147.699 98.2017 147.483C98.6866 147.267 99.2358 147.159 99.8494 147.159C100.713 147.159 101.391 147.348 101.884 147.727C102.38 148.106 102.732 148.606 102.94 149.227ZM106.095 156.091C105.815 156.091 105.574 155.991 105.374 155.79C105.173 155.589 105.072 155.348 105.072 155.068C105.072 154.788 105.173 154.547 105.374 154.347C105.574 154.146 105.815 154.045 106.095 154.045C106.375 154.045 106.616 154.146 106.817 154.347C107.018 154.547 107.118 154.788 107.118 155.068C107.118 155.254 107.071 155.424 106.976 155.58C106.885 155.735 106.762 155.86 106.607 155.955C106.455 156.045 106.285 156.091 106.095 156.091ZM110.501 156.091C110.221 156.091 109.981 155.991 109.78 155.79C109.579 155.589 109.479 155.348 109.479 155.068C109.479 154.788 109.579 154.547 109.78 154.347C109.981 154.146 110.221 154.045 110.501 154.045C110.782 154.045 111.022 154.146 111.223 154.347C111.424 154.547 111.524 154.788 111.524 155.068C111.524 155.254 111.477 155.424 111.382 155.58C111.291 155.735 111.168 155.86 111.013 155.955C110.861 156.045 110.691 156.091 110.501 156.091ZM114.908 156.091C114.627 156.091 114.387 155.991 114.186 155.79C113.985 155.589 113.885 155.348 113.885 155.068C113.885 154.788 113.985 154.547 114.186 154.347C114.387 154.146 114.627 154.045 114.908 154.045C115.188 154.045 115.429 154.146 115.629 154.347C115.83 154.547 115.93 154.788 115.93 155.068C115.93 155.254 115.883 155.424 115.788 155.58C115.697 155.735 115.574 155.86 115.419 155.955C115.268 156.045 115.097 156.091 114.908 156.091Z" fill="#A8A8A8"/>
<rect x="29" y="180" width="32" height="32" rx="16" fill="white"/>
<circle cx="45" cy="196" r="15.5" fill="#FC71FF" stroke="white"/>
<path d="M40.8517 200.19H38.1585V191.463H40.971C41.8176 191.463 42.5421 191.638 43.1443 191.987C43.7466 192.334 44.2083 192.832 44.5293 193.483C44.8503 194.131 45.0108 194.906 45.0108 195.81C45.0108 196.719 44.8489 197.502 44.525 198.158C44.2012 198.811 43.7296 199.314 43.1102 199.666C42.4909 200.016 41.7381 200.19 40.8517 200.19ZM39.2154 199.253H40.7835C41.5051 199.253 42.1031 199.114 42.5776 198.835C43.052 198.557 43.4057 198.161 43.6387 197.646C43.8716 197.132 43.9881 196.52 43.9881 195.81C43.9881 195.105 43.873 194.499 43.6429 193.99C43.4128 193.479 43.0691 193.087 42.6117 192.814C42.1543 192.538 41.5847 192.401 40.9029 192.401H39.2154V199.253ZM46.7835 200.19V191.463H52.0506V192.401H47.8404V195.35H51.7779V196.287H47.8404V199.253H52.1188V200.19H46.7835Z" fill="white"/>
<rect x="53" y="180" width="32" height="32" rx="16" fill="white"/>
<circle cx="69" cy="196" r="15.5" fill="#6E52FF" stroke="white"/>
<path d="M62.4046 200.19V191.463H65.4558C66.0637 191.463 66.5651 191.568 66.96 191.778C67.3549 191.986 67.649 192.266 67.8421 192.618C68.0353 192.967 68.1319 193.355 68.1319 193.781C68.1319 194.156 68.0651 194.466 67.9316 194.71C67.8009 194.955 67.6276 195.148 67.4117 195.29C67.1987 195.432 66.9671 195.537 66.7171 195.605V195.69C66.9842 195.707 67.2526 195.801 67.5225 195.972C67.7924 196.142 68.0183 196.386 68.2001 196.705C68.3819 197.023 68.4728 197.412 68.4728 197.872C68.4728 198.31 68.3734 198.703 68.1745 199.053C67.9757 199.402 67.6617 199.679 67.2328 199.884C66.8038 200.088 66.2455 200.19 65.558 200.19H62.4046ZM63.4615 199.253H65.558C66.2484 199.253 66.7384 199.119 67.0282 198.852C67.3208 198.582 67.4671 198.256 67.4671 197.872C67.4671 197.577 67.3919 197.304 67.2413 197.054C67.0907 196.801 66.8762 196.6 66.5978 196.449C66.3194 196.296 65.9899 196.219 65.6092 196.219H63.4615V199.253ZM63.4615 195.298H65.4217C65.7399 195.298 66.0268 195.236 66.2825 195.111C66.541 194.986 66.7455 194.81 66.8961 194.582C67.0495 194.355 67.1262 194.088 67.1262 193.781C67.1262 193.398 66.9927 193.073 66.7257 192.805C66.4586 192.536 66.0353 192.401 65.4558 192.401H63.4615V195.298ZM69.9196 200.19V199.423L74.6241 192.401H69.8684V191.463H75.8855V192.23L71.1809 199.253H75.9366V200.19H69.9196Z" fill="white"/>
<rect x="77" y="180" width="32" height="32" rx="16" fill="white"/>
<circle cx="93" cy="196" r="15.5" fill="#9327FF" stroke="white"/>
<path d="M86.5341 200.19H85.4261L88.6307 191.463H89.7216L92.9261 200.19H91.8182L89.2102 192.844H89.142L86.5341 200.19ZM86.9432 196.781H91.4091V197.719H86.9432V196.781ZM99.0582 193.645C99.0071 193.213 98.7997 192.878 98.4361 192.639C98.0724 192.401 97.6264 192.281 97.098 192.281C96.7116 192.281 96.3736 192.344 96.0838 192.469C95.7969 192.594 95.5724 192.766 95.4105 192.984C95.2514 193.203 95.1719 193.452 95.1719 193.73C95.1719 193.963 95.2273 194.163 95.3381 194.331C95.4517 194.496 95.5966 194.634 95.7727 194.744C95.9488 194.852 96.1335 194.942 96.3267 195.013C96.5199 195.081 96.6974 195.136 96.8594 195.179L97.7457 195.418C97.973 195.477 98.2258 195.56 98.5042 195.665C98.7855 195.77 99.054 195.913 99.3096 196.095C99.5682 196.274 99.7812 196.504 99.9488 196.786C100.116 197.067 100.2 197.412 100.2 197.821C100.2 198.293 100.077 198.719 99.8295 199.1C99.5852 199.48 99.2273 199.783 98.7557 200.007C98.2869 200.232 97.7173 200.344 97.0469 200.344C96.4219 200.344 95.8807 200.243 95.4233 200.041C94.9687 199.84 94.6108 199.558 94.3494 199.198C94.0909 198.837 93.9446 198.418 93.9105 197.94H95.0014C95.0298 198.27 95.1406 198.543 95.3338 198.759C95.5298 198.972 95.777 199.131 96.0753 199.236C96.3764 199.338 96.7003 199.389 97.0469 199.389C97.4503 199.389 97.8125 199.324 98.1335 199.193C98.4545 199.06 98.7088 198.875 98.8963 198.639C99.0838 198.401 99.1775 198.122 99.1775 197.804C99.1775 197.514 99.0966 197.278 98.9346 197.097C98.7727 196.915 98.5596 196.767 98.2954 196.653C98.0312 196.54 97.7457 196.44 97.4389 196.355L96.365 196.048C95.6832 195.852 95.1435 195.573 94.7457 195.209C94.348 194.845 94.1491 194.369 94.1491 193.781C94.1491 193.293 94.2812 192.867 94.5454 192.503C94.8125 192.136 95.1704 191.852 95.6193 191.651C96.071 191.446 96.5753 191.344 97.1321 191.344C97.6946 191.344 98.1946 191.445 98.6321 191.646C99.0696 191.845 99.4162 192.118 99.6719 192.465C99.9304 192.811 100.067 193.205 100.081 193.645H99.0582Z" fill="white"/>
<g clip-path="url(#clip0_186815_7234)">
<path d="M233 197.245C232.801 197.246 232.606 197.184 232.446 197.069L224.877 191.635C224.779 191.564 224.696 191.475 224.632 191.373C224.569 191.271 224.528 191.158 224.509 191.04C224.473 190.802 224.535 190.56 224.682 190.367C224.829 190.173 225.049 190.045 225.293 190.009C225.538 189.973 225.787 190.034 225.986 190.177L233 195.208L240.014 190.177C240.113 190.106 240.225 190.055 240.343 190.026C240.462 189.997 240.586 189.991 240.707 190.009C240.828 190.027 240.944 190.067 241.049 190.129C241.154 190.19 241.246 190.271 241.318 190.367C241.391 190.462 241.444 190.571 241.473 190.687C241.503 190.802 241.509 190.922 241.491 191.04C241.472 191.158 241.431 191.271 241.367 191.373C241.304 191.475 241.221 191.564 241.123 191.635L233.554 197.069C233.394 197.184 233.199 197.246 233 197.245Z" fill="#7AE229"/>
<path d="M233 202C232.801 202 232.606 201.939 232.446 201.824L224.877 196.39C224.678 196.247 224.546 196.033 224.509 195.795C224.473 195.557 224.535 195.315 224.682 195.122C224.829 194.928 225.049 194.8 225.293 194.764C225.538 194.728 225.787 194.789 225.986 194.931L233 199.962L240.014 194.931C240.213 194.789 240.462 194.728 240.707 194.764C240.951 194.8 241.171 194.928 241.318 195.122C241.465 195.315 241.527 195.557 241.491 195.795C241.454 196.033 241.322 196.247 241.123 196.39L233.554 201.824C233.394 201.939 233.199 202 233 202Z" fill="#7AE229"/>
</g>
</g>
<defs>
<filter id="filter0_d_186815_7234" x="0" y="0" width="278" height="241" filterUnits="userSpaceOnUse" color-interpolation-filters="sRGB">
<feFlood flood-opacity="0" result="BackgroundImageFix"/>
<feColorMatrix in="SourceAlpha" type="matrix" values="0 0 0 0 0 0 0 0 0 0 0 0 0 0 0 0 0 0 127 0" result="hardAlpha"/>
<feMorphology radius="3" operator="dilate" in="SourceAlpha" result="effect1_dropShadow_186815_7234"/>
<feOffset/>
<feGaussianBlur stdDeviation="5"/>
<feComposite in2="hardAlpha" operator="out"/>
<feColorMatrix type="matrix" values="0 0 0 0 0 0 0 0 0 0 0 0 0 0 0 0 0 0 0.08 0"/>
<feBlend mode="normal" in2="BackgroundImageFix" result="effect1_dropShadow_186815_7234"/>
<feBlend mode="normal" in="SourceGraphic" in2="effect1_dropShadow_186815_7234" result="shape"/>
</filter>
<clipPath id="clip0_186815_7234">
<rect width="17" height="12" fill="white" transform="translate(224.5 190)"/>
</clipPath>
</defs>
</svg>
