<svg width="278" height="270" viewBox="0 0 278 270" fill="none" xmlns="http://www.w3.org/2000/svg">
<g filter="url(#filter0_d_186815_7202)">
<rect x="13" y="13" width="252" height="244" rx="24" fill="white" shape-rendering="crispEdges"/>
<rect x="29" y="29" width="113" height="27" rx="8" fill="#0038FF"/>
<path d="M54.0455 36.3636H55.4545V44.0682C55.4545 44.8636 55.267 45.5739 54.892 46.1989C54.5208 46.8201 53.9962 47.3106 53.3182 47.6705C52.6402 48.0265 51.8447 48.2045 50.9318 48.2045C50.0189 48.2045 49.2235 48.0265 48.5455 47.6705C47.8674 47.3106 47.3409 46.8201 46.9659 46.1989C46.5947 45.5739 46.4091 44.8636 46.4091 44.0682V36.3636H47.8182V43.9545C47.8182 44.5227 47.9432 45.0284 48.1932 45.4716C48.4432 45.911 48.7992 46.2576 49.2614 46.5114C49.7273 46.7614 50.2841 46.8864 50.9318 46.8864C51.5795 46.8864 52.1364 46.7614 52.6023 46.5114C53.0682 46.2576 53.4242 45.911 53.6705 45.4716C53.9205 45.0284 54.0455 44.5227 54.0455 43.9545V36.3636ZM64.2685 41.2273L63.0639 41.5682C62.9882 41.3674 62.8764 41.1723 62.7287 40.983C62.5848 40.7898 62.3878 40.6307 62.1378 40.5057C61.8878 40.3807 61.5677 40.3182 61.1776 40.3182C60.6435 40.3182 60.1984 40.4413 59.8423 40.6875C59.4901 40.9299 59.3139 41.2386 59.3139 41.6136C59.3139 41.947 59.4351 42.2102 59.6776 42.4034C59.92 42.5966 60.2988 42.7576 60.8139 42.8864L62.1094 43.2045C62.8897 43.3939 63.4711 43.6837 63.8537 44.0739C64.2363 44.4602 64.4276 44.9583 64.4276 45.5682C64.4276 46.0682 64.2836 46.5152 63.9957 46.9091C63.7116 47.303 63.3139 47.6136 62.8026 47.8409C62.2912 48.0682 61.6965 48.1818 61.0185 48.1818C60.1283 48.1818 59.3916 47.9886 58.8082 47.6023C58.2249 47.2159 57.8556 46.6515 57.7003 45.9091L58.973 45.5909C59.0942 46.0606 59.3234 46.4129 59.6605 46.6477C60.0014 46.8826 60.4465 47 60.9957 47C61.6207 47 62.117 46.8674 62.4844 46.6023C62.8556 46.3333 63.0412 46.0114 63.0412 45.6364C63.0412 45.3333 62.9351 45.0795 62.723 44.875C62.5109 44.6667 62.1851 44.5114 61.7457 44.4091L60.2912 44.0682C59.492 43.8788 58.9048 43.5852 58.5298 43.1875C58.1586 42.786 57.973 42.2841 57.973 41.6818C57.973 41.1894 58.1113 40.7538 58.3878 40.375C58.6681 39.9962 59.0488 39.6989 59.5298 39.483C60.0147 39.267 60.5639 39.1591 61.1776 39.1591C62.0412 39.1591 62.7192 39.3485 63.2116 39.7273C63.7079 40.1061 64.0601 40.6061 64.2685 41.2273ZM70.1051 48.1818C69.2642 48.1818 68.5388 47.9962 67.929 47.625C67.3229 47.25 66.8551 46.7273 66.5256 46.0568C66.1998 45.3826 66.0369 44.5985 66.0369 43.7045C66.0369 42.8106 66.1998 42.0227 66.5256 41.3409C66.8551 40.6553 67.3134 40.1212 67.9006 39.7386C68.4915 39.3523 69.1809 39.1591 69.9688 39.1591C70.4233 39.1591 70.8722 39.2348 71.3153 39.3864C71.7585 39.5379 72.1619 39.7841 72.5256 40.125C72.8892 40.4621 73.179 40.9091 73.3949 41.4659C73.6108 42.0227 73.7188 42.7083 73.7188 43.5227V44.0909L66.9915 44.0909V42.9318H72.3551C72.3551 42.4394 72.2566 42 72.0597 41.6136C71.8665 41.2273 71.59 40.9223 71.2301 40.6989C70.8741 40.4754 70.4536 40.3636 69.9688 40.3636C69.4347 40.3636 68.9725 40.4962 68.5824 40.7614C68.196 41.0227 67.8987 41.3636 67.6903 41.7841C67.482 42.2045 67.3778 42.6553 67.3778 43.1364V43.9091C67.3778 44.5682 67.4915 45.1269 67.7188 45.5852C67.9498 46.0398 68.2699 46.3864 68.679 46.625C69.0881 46.8598 69.5634 46.9773 70.1051 46.9773C70.4574 46.9773 70.7756 46.928 71.0597 46.8295C71.3475 46.7273 71.5956 46.5758 71.804 46.375C72.0123 46.1705 72.1733 45.9167 72.2869 45.6136L73.5824 45.9773C73.446 46.4167 73.2169 46.803 72.8949 47.1364C72.5729 47.4659 72.1752 47.7235 71.7017 47.9091C71.2282 48.0909 70.696 48.1818 70.1051 48.1818ZM75.7585 48V39.2727H77.054V40.5909H77.1449C77.304 40.1591 77.5919 39.8087 78.0085 39.5398C78.4252 39.2708 78.8949 39.1364 79.4176 39.1364C79.5161 39.1364 79.6392 39.1383 79.7869 39.142C79.9347 39.1458 80.0464 39.1515 80.1222 39.1591V40.5227C80.0767 40.5114 79.9725 40.4943 79.8097 40.4716C79.6506 40.4451 79.482 40.4318 79.304 40.4318C78.8797 40.4318 78.5009 40.5208 78.1676 40.6989C77.8381 40.8731 77.5767 41.1155 77.3835 41.4261C77.1941 41.733 77.0994 42.0833 77.0994 42.4773V48H75.7585ZM92.7571 39.2727C92.6889 38.697 92.4124 38.25 91.9276 37.9318C91.4427 37.6136 90.848 37.4545 90.1435 37.4545C89.6283 37.4545 89.1776 37.5379 88.7912 37.7045C88.4086 37.8712 88.1094 38.1004 87.8935 38.392C87.6813 38.6837 87.5753 39.0152 87.5753 39.3864C87.5753 39.697 87.6491 39.964 87.7969 40.1875C87.9484 40.4072 88.1416 40.5909 88.3764 40.7386C88.6113 40.8826 88.8575 41.0019 89.1151 41.0966C89.3726 41.1875 89.6094 41.2614 89.8253 41.3182L91.0071 41.6364C91.3101 41.7159 91.6473 41.8258 92.0185 41.9659C92.3935 42.1061 92.7514 42.2973 93.0923 42.5398C93.437 42.7784 93.7211 43.0852 93.9446 43.4602C94.1681 43.8352 94.2798 44.2955 94.2798 44.8409C94.2798 45.4697 94.1151 46.0379 93.7855 46.5455C93.4598 47.053 92.9825 47.4564 92.3537 47.7557C91.7287 48.0549 90.9692 48.2045 90.0753 48.2045C89.242 48.2045 88.5204 48.0701 87.9105 47.8011C87.3045 47.5322 86.8272 47.1572 86.4787 46.6761C86.134 46.1951 85.9389 45.6364 85.8935 45H87.348C87.3859 45.4394 87.5336 45.803 87.7912 46.0909C88.0526 46.375 88.3821 46.5871 88.7798 46.7273C89.1813 46.8636 89.6132 46.9318 90.0753 46.9318C90.6132 46.9318 91.0961 46.8447 91.5241 46.6705C91.9522 46.4924 92.2912 46.2462 92.5412 45.9318C92.7912 45.6136 92.9162 45.2424 92.9162 44.8182C92.9162 44.4318 92.8082 44.1174 92.5923 43.875C92.3764 43.6326 92.0923 43.4356 91.7401 43.2841C91.3878 43.1326 91.0071 43 90.598 42.8864L89.1662 42.4773C88.2571 42.2159 87.5374 41.8428 87.0071 41.358C86.4768 40.8731 86.2116 40.2386 86.2116 39.4545C86.2116 38.803 86.3878 38.2348 86.7401 37.75C87.0961 37.2614 87.5734 36.8826 88.1719 36.6136C88.7741 36.3409 89.4465 36.2045 90.1889 36.2045C90.9389 36.2045 91.6056 36.339 92.1889 36.608C92.7723 36.8731 93.2344 37.2367 93.5753 37.6989C93.92 38.161 94.1018 38.6856 94.1207 39.2727H92.7571ZM100.21 39.2727V40.4091H95.6875V39.2727H100.21ZM97.0057 37.1818H98.3466V45.5C98.3466 45.8788 98.4015 46.1629 98.5114 46.3523C98.625 46.5379 98.7689 46.6629 98.9432 46.7273C99.1212 46.7879 99.3087 46.8182 99.5057 46.8182C99.6534 46.8182 99.7746 46.8106 99.8693 46.7955C99.964 46.7765 100.04 46.7614 100.097 46.75L100.369 47.9545C100.278 47.9886 100.152 48.0227 99.9886 48.0568C99.8258 48.0947 99.6193 48.1136 99.3693 48.1136C98.9905 48.1136 98.6193 48.0322 98.2557 47.8693C97.8958 47.7064 97.5966 47.4583 97.358 47.125C97.1231 46.7917 97.0057 46.3712 97.0057 45.8636V37.1818ZM105.679 48.1818C104.891 48.1818 104.2 47.9943 103.605 47.6193C103.014 47.2443 102.552 46.7197 102.219 46.0455C101.889 45.3712 101.724 44.5833 101.724 43.6818C101.724 42.7727 101.889 41.9792 102.219 41.3011C102.552 40.6231 103.014 40.0966 103.605 39.7216C104.2 39.3466 104.891 39.1591 105.679 39.1591C106.467 39.1591 107.156 39.3466 107.747 39.7216C108.342 40.0966 108.804 40.6231 109.134 41.3011C109.467 41.9792 109.634 42.7727 109.634 43.6818C109.634 44.5833 109.467 45.3712 109.134 46.0455C108.804 46.7197 108.342 47.2443 107.747 47.6193C107.156 47.9943 106.467 48.1818 105.679 48.1818ZM105.679 46.9773C106.277 46.9773 106.77 46.8239 107.156 46.517C107.543 46.2102 107.829 45.8068 108.014 45.3068C108.2 44.8068 108.293 44.2652 108.293 43.6818C108.293 43.0985 108.2 42.5549 108.014 42.0511C107.829 41.5473 107.543 41.1402 107.156 40.8295C106.77 40.5189 106.277 40.3636 105.679 40.3636C105.08 40.3636 104.588 40.5189 104.202 40.8295C103.815 41.1402 103.529 41.5473 103.344 42.0511C103.158 42.5549 103.065 43.0985 103.065 43.6818C103.065 44.2652 103.158 44.8068 103.344 45.3068C103.529 45.8068 103.815 46.2102 104.202 46.517C104.588 46.8239 105.08 46.9773 105.679 46.9773ZM111.68 48V39.2727H112.976V40.5909H113.067C113.226 40.1591 113.514 39.8087 113.93 39.5398C114.347 39.2708 114.817 39.1364 115.339 39.1364C115.438 39.1364 115.561 39.1383 115.709 39.142C115.857 39.1458 115.968 39.1515 116.044 39.1591V40.5227C115.999 40.5114 115.894 40.4943 115.732 40.4716C115.572 40.4451 115.404 40.4318 115.226 40.4318C114.802 40.4318 114.423 40.5208 114.089 40.6989C113.76 40.8731 113.499 41.1155 113.305 41.4261C113.116 41.733 113.021 42.0833 113.021 42.4773V48H111.68ZM118.763 51.2727C118.536 51.2727 118.333 51.2538 118.155 51.2159C117.977 51.1818 117.854 51.1477 117.786 51.1136L118.126 49.9318C118.452 50.0152 118.74 50.0455 118.99 50.0227C119.24 50 119.462 49.8883 119.655 49.6875C119.852 49.4905 120.032 49.1705 120.195 48.7273L120.445 48.0455L117.217 39.2727H118.672L121.081 46.2273H121.172L123.581 39.2727H125.036L121.331 49.2727C121.164 49.7235 120.958 50.0966 120.712 50.392C120.465 50.6913 120.179 50.9129 119.854 51.0568C119.532 51.2008 119.168 51.2727 118.763 51.2727Z" fill="white"/>
<path d="M40.2784 87.4375H37.7898C37.7443 87.1155 37.6515 86.8295 37.5114 86.5795C37.3712 86.3258 37.1913 86.1098 36.9716 85.9318C36.7519 85.7538 36.4981 85.6174 36.2102 85.5227C35.9261 85.428 35.6174 85.3807 35.2841 85.3807C34.6818 85.3807 34.1572 85.5303 33.7102 85.8295C33.2633 86.125 32.9167 86.5568 32.6705 87.125C32.4242 87.6894 32.3011 88.375 32.3011 89.1818C32.3011 90.0114 32.4242 90.7083 32.6705 91.2727C32.9205 91.8371 33.2689 92.2633 33.7159 92.5511C34.1629 92.839 34.6799 92.983 35.267 92.983C35.5966 92.983 35.9015 92.9394 36.1818 92.8523C36.4659 92.7652 36.7178 92.6383 36.9375 92.4716C37.1572 92.3011 37.339 92.0947 37.483 91.8523C37.6307 91.6098 37.733 91.3333 37.7898 91.0227L40.2784 91.0341C40.214 91.5682 40.053 92.0833 39.7955 92.5795C39.5417 93.072 39.1989 93.5133 38.767 93.9034C38.339 94.2898 37.8277 94.5966 37.233 94.8239C36.642 95.0473 35.9735 95.1591 35.2273 95.1591C34.1894 95.1591 33.2614 94.9242 32.4432 94.4545C31.6288 93.9848 30.9848 93.3049 30.5114 92.4148C30.0417 91.5246 29.8068 90.447 29.8068 89.1818C29.8068 87.9129 30.0455 86.8333 30.5227 85.9432C31 85.053 31.6477 84.375 32.4659 83.9091C33.2841 83.4394 34.2045 83.2045 35.2273 83.2045C35.9015 83.2045 36.5265 83.2992 37.1023 83.4886C37.6818 83.678 38.1951 83.9545 38.642 84.3182C39.089 84.678 39.4527 85.1193 39.733 85.642C40.017 86.1648 40.1989 86.7633 40.2784 87.4375ZM45.9403 95.1705C45.0578 95.1705 44.2945 94.983 43.6506 94.608C43.0104 94.2292 42.5161 93.7027 42.1676 93.0284C41.8191 92.3504 41.6449 91.5644 41.6449 90.6705C41.6449 89.7689 41.8191 88.9811 42.1676 88.3068C42.5161 87.6288 43.0104 87.1023 43.6506 86.7273C44.2945 86.3485 45.0578 86.1591 45.9403 86.1591C46.8229 86.1591 47.5843 86.3485 48.2244 86.7273C48.8684 87.1023 49.3646 87.6288 49.7131 88.3068C50.0616 88.9811 50.2358 89.7689 50.2358 90.6705C50.2358 91.5644 50.0616 92.3504 49.7131 93.0284C49.3646 93.7027 48.8684 94.2292 48.2244 94.608C47.5843 94.983 46.8229 95.1705 45.9403 95.1705ZM45.9517 93.2955C46.3532 93.2955 46.6884 93.1818 46.9574 92.9545C47.2263 92.7235 47.429 92.4091 47.5653 92.0114C47.7055 91.6136 47.7756 91.161 47.7756 90.6534C47.7756 90.1458 47.7055 89.6932 47.5653 89.2955C47.429 88.8977 47.2263 88.5833 46.9574 88.3523C46.6884 88.1212 46.3532 88.0057 45.9517 88.0057C45.5464 88.0057 45.2055 88.1212 44.929 88.3523C44.6563 88.5833 44.4498 88.8977 44.3097 89.2955C44.1733 89.6932 44.1051 90.1458 44.1051 90.6534C44.1051 91.161 44.1733 91.6136 44.3097 92.0114C44.4498 92.4091 44.6563 92.7235 44.929 92.9545C45.2055 93.1818 45.5464 93.2955 45.9517 93.2955ZM54.2301 89.9545V95H51.8097V86.2727H54.1165V87.8125H54.2188C54.4119 87.3049 54.7358 86.9034 55.1903 86.608C55.6449 86.3087 56.196 86.1591 56.8438 86.1591C57.4498 86.1591 57.9782 86.2917 58.429 86.5568C58.8797 86.822 59.2301 87.2008 59.4801 87.6932C59.7301 88.1818 59.8551 88.7652 59.8551 89.4432V95H57.4347V89.875C57.4384 89.3409 57.3021 88.9242 57.0256 88.625C56.7491 88.322 56.3684 88.1705 55.8835 88.1705C55.5578 88.1705 55.2699 88.2405 55.0199 88.3807C54.7737 88.5208 54.5805 88.7254 54.4403 88.9943C54.304 89.2595 54.2339 89.5795 54.2301 89.9545ZM66.4048 86.2727V88.0909H61.1491V86.2727H66.4048ZM62.3423 84.1818H64.7628V92.3182C64.7628 92.5417 64.7969 92.7159 64.8651 92.8409C64.9332 92.9621 65.0279 93.0473 65.1491 93.0966C65.2741 93.1458 65.4181 93.1705 65.581 93.1705C65.6946 93.1705 65.8082 93.161 65.9219 93.142C66.0355 93.1193 66.1226 93.1023 66.1832 93.0909L66.5639 94.892C66.4427 94.9299 66.2723 94.9735 66.0526 95.0227C65.8329 95.0758 65.5658 95.108 65.2514 95.1193C64.6681 95.142 64.1567 95.0644 63.7173 94.8864C63.2817 94.7083 62.9427 94.4318 62.7003 94.0568C62.4579 93.6818 62.3385 93.2083 62.3423 92.6364V84.1818ZM70.4702 95.1648C69.9134 95.1648 69.4171 95.0682 68.9815 94.875C68.5459 94.678 68.2012 94.3883 67.9474 94.0057C67.6974 93.6193 67.5724 93.1383 67.5724 92.5625C67.5724 92.0777 67.6615 91.6705 67.8395 91.3409C68.0175 91.0114 68.2599 90.7462 68.5668 90.5455C68.8736 90.3447 69.2221 90.1932 69.6122 90.0909C70.0062 89.9886 70.419 89.9167 70.8509 89.875C71.3584 89.822 71.7675 89.7727 72.0781 89.7273C72.3887 89.678 72.6141 89.6061 72.7543 89.5114C72.8944 89.4167 72.9645 89.2765 72.9645 89.0909V89.0568C72.9645 88.697 72.8509 88.4186 72.6236 88.2216C72.4001 88.0246 72.0819 87.9261 71.669 87.9261C71.2334 87.9261 70.8868 88.0227 70.6293 88.2159C70.3717 88.4053 70.2012 88.6439 70.1179 88.9318L67.8793 88.75C67.9929 88.2197 68.2164 87.7614 68.5497 87.375C68.883 86.9848 69.313 86.6856 69.8395 86.4773C70.3698 86.2652 70.9834 86.1591 71.6804 86.1591C72.1652 86.1591 72.6293 86.2159 73.0724 86.3295C73.5194 86.4432 73.9152 86.6193 74.2599 86.858C74.6084 87.0966 74.883 87.4034 75.0838 87.7784C75.2846 88.1496 75.3849 88.5947 75.3849 89.1136V95H73.0895V93.7898H73.0213C72.8812 94.0625 72.6937 94.303 72.4588 94.5114C72.224 94.7159 71.9418 94.8769 71.6122 94.9943C71.2827 95.108 70.902 95.1648 70.4702 95.1648ZM71.1634 93.4943C71.5194 93.4943 71.8338 93.4242 72.1065 93.2841C72.3793 93.1402 72.5933 92.947 72.7486 92.7045C72.9039 92.4621 72.9815 92.1875 72.9815 91.8807V90.9545C72.9058 91.0038 72.8016 91.0492 72.669 91.0909C72.5402 91.1288 72.3944 91.1648 72.2315 91.1989C72.0687 91.2292 71.9058 91.2576 71.7429 91.2841C71.58 91.3068 71.4323 91.3277 71.2997 91.3466C71.0156 91.3883 70.7675 91.4545 70.5554 91.5455C70.3433 91.6364 70.1785 91.7595 70.0611 91.9148C69.9437 92.0663 69.8849 92.2557 69.8849 92.483C69.8849 92.8125 70.0043 93.0644 70.2429 93.2386C70.4853 93.4091 70.7921 93.4943 71.1634 93.4943ZM81.206 95.1705C80.312 95.1705 79.5431 94.9811 78.8991 94.6023C78.259 94.2197 77.7666 93.6894 77.4219 93.0114C77.081 92.3333 76.9105 91.553 76.9105 90.6705C76.9105 89.7765 77.0829 88.9924 77.4276 88.3182C77.776 87.6402 78.2704 87.1117 78.9105 86.733C79.5507 86.3504 80.312 86.1591 81.1946 86.1591C81.956 86.1591 82.6226 86.2973 83.1946 86.5739C83.7666 86.8504 84.2192 87.2386 84.5526 87.7386C84.8859 88.2386 85.0696 88.8258 85.1037 89.5H82.8196C82.7552 89.0644 82.5848 88.714 82.3082 88.4489C82.0355 88.1799 81.6776 88.0455 81.2344 88.0455C80.8594 88.0455 80.5317 88.1477 80.2514 88.3523C79.9749 88.553 79.759 88.8466 79.6037 89.233C79.4484 89.6193 79.3707 90.0871 79.3707 90.6364C79.3707 91.1932 79.4465 91.6667 79.598 92.0568C79.7533 92.447 79.9711 92.7443 80.2514 92.9489C80.5317 93.1534 80.8594 93.2557 81.2344 93.2557C81.5109 93.2557 81.759 93.1989 81.9787 93.0852C82.2022 92.9716 82.3859 92.8068 82.5298 92.5909C82.6776 92.3712 82.7741 92.108 82.8196 91.8011H85.1037C85.0658 92.4678 84.884 93.0549 84.5582 93.5625C84.2363 94.0663 83.7912 94.4602 83.223 94.7443C82.6548 95.0284 81.9825 95.1705 81.206 95.1705ZM91.2955 86.2727V88.0909H86.0398V86.2727H91.2955ZM87.233 84.1818H89.6534V92.3182C89.6534 92.5417 89.6875 92.7159 89.7557 92.8409C89.8239 92.9621 89.9186 93.0473 90.0398 93.0966C90.1648 93.1458 90.3087 93.1705 90.4716 93.1705C90.5852 93.1705 90.6989 93.161 90.8125 93.142C90.9261 93.1193 91.0133 93.1023 91.0739 93.0909L91.4545 94.892C91.3333 94.9299 91.1629 94.9735 90.9432 95.0227C90.7235 95.0758 90.4564 95.108 90.142 95.1193C89.5587 95.142 89.0473 95.0644 88.608 94.8864C88.1723 94.7083 87.8333 94.4318 87.5909 94.0568C87.3485 93.6818 87.2292 93.2083 87.233 92.6364V84.1818ZM96.6207 95V83.3636H104.325V85.392H99.081V88.1648H103.814V90.1932H99.081V95H96.6207ZM109.237 95.1705C108.355 95.1705 107.591 94.983 106.947 94.608C106.307 94.2292 105.813 93.7027 105.464 93.0284C105.116 92.3504 104.942 91.5644 104.942 90.6705C104.942 89.7689 105.116 88.9811 105.464 88.3068C105.813 87.6288 106.307 87.1023 106.947 86.7273C107.591 86.3485 108.355 86.1591 109.237 86.1591C110.12 86.1591 110.881 86.3485 111.521 86.7273C112.165 87.1023 112.661 87.6288 113.01 88.3068C113.358 88.9811 113.533 89.7689 113.533 90.6705C113.533 91.5644 113.358 92.3504 113.01 93.0284C112.661 93.7027 112.165 94.2292 111.521 94.608C110.881 94.983 110.12 95.1705 109.237 95.1705ZM109.249 93.2955C109.65 93.2955 109.985 93.1818 110.254 92.9545C110.523 92.7235 110.726 92.4091 110.862 92.0114C111.002 91.6136 111.072 91.161 111.072 90.6534C111.072 90.1458 111.002 89.6932 110.862 89.2955C110.726 88.8977 110.523 88.5833 110.254 88.3523C109.985 88.1212 109.65 88.0057 109.249 88.0057C108.843 88.0057 108.502 88.1212 108.226 88.3523C107.953 88.5833 107.747 88.8977 107.607 89.2955C107.47 89.6932 107.402 90.1458 107.402 90.6534C107.402 91.161 107.47 91.6136 107.607 92.0114C107.747 92.4091 107.953 92.7235 108.226 92.9545C108.502 93.1818 108.843 93.2955 109.249 93.2955ZM115.107 95V86.2727H117.453V87.7955H117.544C117.703 87.2538 117.97 86.8447 118.345 86.5682C118.72 86.2879 119.152 86.1477 119.641 86.1477C119.762 86.1477 119.893 86.1553 120.033 86.1705C120.173 86.1856 120.296 86.2064 120.402 86.233V88.3807C120.288 88.3466 120.131 88.3163 119.93 88.2898C119.73 88.2633 119.546 88.25 119.379 88.25C119.023 88.25 118.705 88.3277 118.425 88.483C118.148 88.6345 117.929 88.8466 117.766 89.1193C117.607 89.392 117.527 89.7064 117.527 90.0625V95H115.107ZM121.653 95V86.2727H123.96V87.8125H124.062C124.244 87.3011 124.547 86.8977 124.972 86.6023C125.396 86.3068 125.903 86.1591 126.494 86.1591C127.093 86.1591 127.602 86.3087 128.023 86.608C128.443 86.9034 128.723 87.3049 128.864 87.8125H128.955C129.133 87.3125 129.455 86.9129 129.92 86.6136C130.39 86.3106 130.945 86.1591 131.585 86.1591C132.4 86.1591 133.061 86.4186 133.568 86.9375C134.08 87.4527 134.335 88.1837 134.335 89.1307V95H131.92V89.608C131.92 89.1231 131.792 88.7595 131.534 88.517C131.277 88.2746 130.955 88.1534 130.568 88.1534C130.129 88.1534 129.786 88.2936 129.54 88.5739C129.294 88.8504 129.17 89.2159 129.17 89.6705V95H126.824V89.5568C126.824 89.1288 126.701 88.7879 126.455 88.5341C126.212 88.2803 125.892 88.1534 125.494 88.1534C125.225 88.1534 124.983 88.2216 124.767 88.358C124.555 88.4905 124.386 88.678 124.261 88.9205C124.136 89.1591 124.074 89.4394 124.074 89.7614V95H121.653ZM143.518 95.1705C142.715 95.1705 142.022 95.0265 141.439 94.7386C140.856 94.4508 140.407 94.0606 140.092 93.5682C139.782 93.072 139.626 92.5189 139.626 91.9091C139.626 91.4545 139.717 91.0511 139.899 90.6989C140.081 90.3466 140.335 90.0227 140.661 89.7273C140.986 89.428 141.365 89.1307 141.797 88.8352L144.053 87.3523C144.344 87.1667 144.558 86.9716 144.695 86.767C144.831 86.5587 144.899 86.3333 144.899 86.0909C144.899 85.8598 144.806 85.6458 144.621 85.4489C144.435 85.2519 144.172 85.1553 143.831 85.1591C143.604 85.1591 143.407 85.2102 143.24 85.3125C143.073 85.411 142.943 85.5417 142.848 85.7045C142.757 85.8636 142.712 86.0417 142.712 86.2386C142.712 86.4811 142.78 86.7273 142.916 86.9773C143.053 87.2273 143.234 87.4924 143.462 87.7727C143.689 88.0492 143.937 88.3485 144.206 88.6705L149.723 95H147.2L142.598 89.875C142.295 89.5303 141.992 89.1705 141.689 88.7955C141.39 88.4167 141.14 88.0152 140.939 87.5909C140.738 87.1629 140.638 86.6989 140.638 86.1989C140.638 85.6345 140.768 85.1269 141.03 84.6761C141.295 84.2254 141.666 83.8693 142.143 83.608C142.621 83.3428 143.178 83.2102 143.814 83.2102C144.435 83.2102 144.971 83.3371 145.422 83.5909C145.876 83.8409 146.225 84.1742 146.467 84.5909C146.714 85.0038 146.837 85.4583 146.837 85.9545C146.837 86.5038 146.7 87.0019 146.428 87.4489C146.159 87.892 145.78 88.2898 145.291 88.642L142.916 90.3523C142.594 90.5871 142.356 90.8277 142.2 91.0739C142.049 91.3163 141.973 91.5492 141.973 91.7727C141.973 92.0492 142.041 92.2973 142.178 92.517C142.314 92.7367 142.507 92.911 142.757 93.0398C143.007 93.1648 143.301 93.2273 143.638 93.2273C144.047 93.2273 144.45 93.1345 144.848 92.9489C145.25 92.7595 145.613 92.4924 145.939 92.1477C146.268 91.7992 146.532 91.3864 146.729 90.9091C146.926 90.4318 147.024 89.9034 147.024 89.3239H149.03C149.03 90.036 148.952 90.678 148.797 91.25C148.642 91.8182 148.426 92.3144 148.149 92.7386C147.873 93.1591 147.556 93.5038 147.2 93.7727C147.087 93.8447 146.977 93.9129 146.871 93.9773C146.765 94.0417 146.655 94.1098 146.541 94.1818C146.109 94.5303 145.626 94.7822 145.092 94.9375C144.562 95.0928 144.037 95.1705 143.518 95.1705ZM156.94 83.3636V95H154.48V83.3636H156.94ZM158.919 95V86.2727H161.226V87.8125H161.328C161.51 87.3011 161.813 86.8977 162.237 86.6023C162.661 86.3068 163.169 86.1591 163.76 86.1591C164.358 86.1591 164.868 86.3087 165.288 86.608C165.709 86.9034 165.989 87.3049 166.129 87.8125H166.22C166.398 87.3125 166.72 86.9129 167.186 86.6136C167.656 86.3106 168.211 86.1591 168.851 86.1591C169.665 86.1591 170.326 86.4186 170.834 86.9375C171.345 87.4527 171.601 88.1837 171.601 89.1307V95H169.186V89.608C169.186 89.1231 169.057 88.7595 168.8 88.517C168.542 88.2746 168.22 88.1534 167.834 88.1534C167.394 88.1534 167.052 88.2936 166.805 88.5739C166.559 88.8504 166.436 89.2159 166.436 89.6705V95H164.089V89.5568C164.089 89.1288 163.966 88.7879 163.72 88.5341C163.478 88.2803 163.158 88.1534 162.76 88.1534C162.491 88.1534 162.249 88.2216 162.033 88.358C161.821 88.4905 161.652 88.678 161.527 88.9205C161.402 89.1591 161.339 89.4394 161.339 89.7614V95H158.919ZM173.513 98.2727V86.2727H175.899V87.7386H176.007C176.113 87.5038 176.267 87.2652 176.467 87.0227C176.672 86.7765 176.937 86.572 177.263 86.4091C177.592 86.2424 178.001 86.1591 178.49 86.1591C179.126 86.1591 179.714 86.3258 180.251 86.6591C180.789 86.9886 181.219 87.4867 181.541 88.1534C181.863 88.8163 182.024 89.6477 182.024 90.6477C182.024 91.6212 181.867 92.4432 181.553 93.1136C181.242 93.7803 180.818 94.286 180.28 94.6307C179.746 94.9716 179.147 95.142 178.484 95.142C178.015 95.142 177.615 95.0644 177.286 94.9091C176.96 94.7538 176.693 94.5587 176.484 94.3239C176.276 94.0852 176.117 93.8447 176.007 93.6023H175.933V98.2727H173.513ZM175.882 90.6364C175.882 91.1553 175.954 91.608 176.098 91.9943C176.242 92.3807 176.45 92.6818 176.723 92.8977C176.996 93.1098 177.327 93.2159 177.717 93.2159C178.111 93.2159 178.445 93.108 178.717 92.892C178.99 92.6723 179.196 92.3693 179.337 91.983C179.481 91.5928 179.553 91.1439 179.553 90.6364C179.553 90.1326 179.482 89.6894 179.342 89.3068C179.202 88.9242 178.996 88.625 178.723 88.4091C178.45 88.1932 178.115 88.0852 177.717 88.0852C177.323 88.0852 176.99 88.1894 176.717 88.3977C176.448 88.6061 176.242 88.9015 176.098 89.2841C175.954 89.6667 175.882 90.1174 175.882 90.6364ZM183.638 95V86.2727H185.984V87.7955H186.075C186.234 87.2538 186.501 86.8447 186.876 86.5682C187.251 86.2879 187.683 86.1477 188.172 86.1477C188.293 86.1477 188.424 86.1553 188.564 86.1705C188.704 86.1856 188.827 86.2064 188.933 86.233V88.3807C188.82 88.3466 188.662 88.3163 188.462 88.2898C188.261 88.2633 188.077 88.25 187.911 88.25C187.554 88.25 187.236 88.3277 186.956 88.483C186.679 88.6345 186.46 88.8466 186.297 89.1193C186.138 89.392 186.058 89.7064 186.058 90.0625V95H183.638ZM190.185 95V86.2727H192.605V95H190.185ZM191.401 85.1477C191.041 85.1477 190.732 85.0284 190.474 84.7898C190.221 84.5473 190.094 84.2576 190.094 83.9205C190.094 83.5871 190.221 83.3011 190.474 83.0625C190.732 82.8201 191.041 82.6989 191.401 82.6989C191.76 82.6989 192.067 82.8201 192.321 83.0625C192.579 83.3011 192.707 83.5871 192.707 83.9205C192.707 84.2576 192.579 84.5473 192.321 84.7898C192.067 85.0284 191.76 85.1477 191.401 85.1477ZM196.964 89.9545V95H194.544V86.2727H196.851V87.8125H196.953C197.146 87.3049 197.47 86.9034 197.925 86.608C198.379 86.3087 198.93 86.1591 199.578 86.1591C200.184 86.1591 200.713 86.2917 201.163 86.5568C201.614 86.822 201.964 87.2008 202.214 87.6932C202.464 88.1818 202.589 88.7652 202.589 89.4432V95H200.169V89.875C200.173 89.3409 200.036 88.9242 199.76 88.625C199.483 88.322 199.103 88.1705 198.618 88.1705C198.292 88.1705 198.004 88.2405 197.754 88.3807C197.508 88.5208 197.315 88.7254 197.175 88.9943C197.038 89.2595 196.968 89.5795 196.964 89.9545ZM209.139 86.2727V88.0909H203.884V86.2727H209.139ZM205.077 84.1818H207.497V92.3182C207.497 92.5417 207.531 92.7159 207.599 92.8409C207.668 92.9621 207.762 93.0473 207.884 93.0966C208.009 93.1458 208.152 93.1705 208.315 93.1705C208.429 93.1705 208.543 93.161 208.656 93.142C208.77 93.1193 208.857 93.1023 208.918 93.0909L209.298 94.892C209.177 94.9299 209.007 94.9735 208.787 95.0227C208.567 95.0758 208.3 95.108 207.986 95.1193C207.402 95.142 206.891 95.0644 206.452 94.8864C206.016 94.7083 205.677 94.4318 205.435 94.0568C205.192 93.6818 205.073 93.2083 205.077 92.6364V84.1818Z" fill="#2A3647"/>
<path d="M39.7727 114H38.3636C38.2803 113.595 38.1345 113.239 37.9261 112.932C37.7216 112.625 37.4716 112.367 37.1761 112.159C36.8845 111.947 36.5606 111.788 36.2045 111.682C35.8485 111.576 35.4773 111.523 35.0909 111.523C34.3864 111.523 33.7481 111.701 33.1761 112.057C32.608 112.413 32.1553 112.938 31.8182 113.631C31.4848 114.324 31.3182 115.174 31.3182 116.182C31.3182 117.189 31.4848 118.04 31.8182 118.733C32.1553 119.426 32.608 119.951 33.1761 120.307C33.7481 120.663 34.3864 120.841 35.0909 120.841C35.4773 120.841 35.8485 120.788 36.2045 120.682C36.5606 120.576 36.8845 120.419 37.1761 120.21C37.4716 119.998 37.7216 119.739 37.9261 119.432C38.1345 119.121 38.2803 118.765 38.3636 118.364H39.7727C39.6667 118.958 39.4735 119.491 39.1932 119.96C38.9129 120.43 38.5644 120.83 38.1477 121.159C37.7311 121.485 37.2633 121.733 36.7443 121.903C36.2292 122.074 35.678 122.159 35.0909 122.159C34.0985 122.159 33.2159 121.917 32.4432 121.432C31.6705 120.947 31.0625 120.258 30.6193 119.364C30.1761 118.47 29.9545 117.409 29.9545 116.182C29.9545 114.955 30.1761 113.894 30.6193 113C31.0625 112.106 31.6705 111.417 32.4432 110.932C33.2159 110.447 34.0985 110.205 35.0909 110.205C35.678 110.205 36.2292 110.29 36.7443 110.46C37.2633 110.631 37.7311 110.881 38.1477 111.21C38.5644 111.536 38.9129 111.934 39.1932 112.403C39.4735 112.869 39.6667 113.402 39.7727 114ZM41.8679 122V113.273H43.1634V114.591H43.2543C43.4134 114.159 43.7012 113.809 44.1179 113.54C44.5346 113.271 45.0043 113.136 45.527 113.136C45.6255 113.136 45.7486 113.138 45.8963 113.142C46.044 113.146 46.1558 113.152 46.2315 113.159V114.523C46.1861 114.511 46.0819 114.494 45.919 114.472C45.7599 114.445 45.5914 114.432 45.4134 114.432C44.9891 114.432 44.6103 114.521 44.277 114.699C43.9474 114.873 43.6861 115.116 43.4929 115.426C43.3035 115.733 43.2088 116.083 43.2088 116.477V122H41.8679ZM51.2145 122.182C50.3736 122.182 49.6482 121.996 49.0384 121.625C48.4323 121.25 47.9645 120.727 47.6349 120.057C47.3092 119.383 47.1463 118.598 47.1463 117.705C47.1463 116.811 47.3092 116.023 47.6349 115.341C47.9645 114.655 48.4228 114.121 49.0099 113.739C49.6009 113.352 50.2902 113.159 51.0781 113.159C51.5327 113.159 51.9815 113.235 52.4247 113.386C52.8679 113.538 53.2713 113.784 53.6349 114.125C53.9986 114.462 54.2884 114.909 54.5043 115.466C54.7202 116.023 54.8281 116.708 54.8281 117.523V118.091H48.1009V116.932H53.4645C53.4645 116.439 53.366 116 53.169 115.614C52.9759 115.227 52.6993 114.922 52.3395 114.699C51.9834 114.475 51.563 114.364 51.0781 114.364C50.544 114.364 50.0819 114.496 49.6918 114.761C49.3054 115.023 49.008 115.364 48.7997 115.784C48.5914 116.205 48.4872 116.655 48.4872 117.136V117.909C48.4872 118.568 48.6009 119.127 48.8281 119.585C49.0592 120.04 49.3793 120.386 49.7884 120.625C50.1974 120.86 50.6728 120.977 51.2145 120.977C51.5668 120.977 51.8849 120.928 52.169 120.83C52.4569 120.727 52.705 120.576 52.9134 120.375C53.1217 120.17 53.2827 119.917 53.3963 119.614L54.6918 119.977C54.5554 120.417 54.3262 120.803 54.0043 121.136C53.6823 121.466 53.2846 121.723 52.8111 121.909C52.3376 122.091 51.8054 122.182 51.2145 122.182ZM59.4361 122.205C58.883 122.205 58.3812 122.1 57.9304 121.892C57.4796 121.68 57.1217 121.375 56.8565 120.977C56.5914 120.576 56.4588 120.091 56.4588 119.523C56.4588 119.023 56.5573 118.617 56.7543 118.307C56.9512 117.992 57.2145 117.746 57.544 117.568C57.8736 117.39 58.2372 117.258 58.6349 117.17C59.0365 117.08 59.4399 117.008 59.8452 116.955C60.3755 116.886 60.8054 116.835 61.1349 116.801C61.4683 116.763 61.7107 116.701 61.8622 116.614C62.0175 116.527 62.0952 116.375 62.0952 116.159V116.114C62.0952 115.553 61.9418 115.117 61.6349 114.807C61.3319 114.496 60.8717 114.341 60.2543 114.341C59.6141 114.341 59.1122 114.481 58.7486 114.761C58.3849 115.042 58.1293 115.341 57.9815 115.659L56.7088 115.205C56.9361 114.674 57.2391 114.261 57.6179 113.966C58.0005 113.667 58.4171 113.458 58.8679 113.341C59.3224 113.22 59.7694 113.159 60.2088 113.159C60.4891 113.159 60.8111 113.193 61.1747 113.261C61.5421 113.326 61.8963 113.46 62.2372 113.665C62.5819 113.869 62.8679 114.178 63.0952 114.591C63.3224 115.004 63.4361 115.557 63.4361 116.25V122H62.0952V120.818H62.027C61.9361 121.008 61.7846 121.21 61.5724 121.426C61.3603 121.642 61.0781 121.826 60.7259 121.977C60.3736 122.129 59.9437 122.205 59.4361 122.205ZM59.6406 121C60.1709 121 60.6179 120.896 60.9815 120.688C61.349 120.479 61.6255 120.21 61.8111 119.881C62.0005 119.551 62.0952 119.205 62.0952 118.841V117.614C62.0384 117.682 61.9134 117.744 61.7202 117.801C61.5308 117.854 61.3111 117.902 61.0611 117.943C60.8149 117.981 60.5743 118.015 60.3395 118.045C60.1084 118.072 59.9209 118.095 59.777 118.114C59.4285 118.159 59.1027 118.233 58.7997 118.335C58.5005 118.434 58.258 118.583 58.0724 118.784C57.8906 118.981 57.7997 119.25 57.7997 119.591C57.7997 120.057 57.9721 120.409 58.3168 120.648C58.6652 120.883 59.1065 121 59.6406 121ZM69.679 113.273V114.409H65.1562V113.273H69.679ZM66.4744 111.182H67.8153V119.5C67.8153 119.879 67.8703 120.163 67.9801 120.352C68.0938 120.538 68.2377 120.663 68.4119 120.727C68.59 120.788 68.7775 120.818 68.9744 120.818C69.1222 120.818 69.2434 120.811 69.3381 120.795C69.4328 120.777 69.5085 120.761 69.5653 120.75L69.8381 121.955C69.7472 121.989 69.6203 122.023 69.4574 122.057C69.2945 122.095 69.0881 122.114 68.8381 122.114C68.4593 122.114 68.0881 122.032 67.7244 121.869C67.3646 121.706 67.0653 121.458 66.8267 121.125C66.5919 120.792 66.4744 120.371 66.4744 119.864V111.182ZM75.2614 122.182C74.4205 122.182 73.6951 121.996 73.0852 121.625C72.4792 121.25 72.0114 120.727 71.6818 120.057C71.3561 119.383 71.1932 118.598 71.1932 117.705C71.1932 116.811 71.3561 116.023 71.6818 115.341C72.0114 114.655 72.4697 114.121 73.0568 113.739C73.6477 113.352 74.3371 113.159 75.125 113.159C75.5795 113.159 76.0284 113.235 76.4716 113.386C76.9148 113.538 77.3182 113.784 77.6818 114.125C78.0455 114.462 78.3352 114.909 78.5511 115.466C78.767 116.023 78.875 116.708 78.875 117.523V118.091H72.1477V116.932H77.5114C77.5114 116.439 77.4129 116 77.2159 115.614C77.0227 115.227 76.7462 114.922 76.3864 114.699C76.0303 114.475 75.6098 114.364 75.125 114.364C74.5909 114.364 74.1288 114.496 73.7386 114.761C73.3523 115.023 73.0549 115.364 72.8466 115.784C72.6383 116.205 72.5341 116.655 72.5341 117.136V117.909C72.5341 118.568 72.6477 119.127 72.875 119.585C73.1061 120.04 73.4261 120.386 73.8352 120.625C74.2443 120.86 74.7197 120.977 75.2614 120.977C75.6136 120.977 75.9318 120.928 76.2159 120.83C76.5038 120.727 76.7519 120.576 76.9602 120.375C77.1686 120.17 77.3295 119.917 77.4432 119.614L78.7386 119.977C78.6023 120.417 78.3731 120.803 78.0511 121.136C77.7292 121.466 77.3314 121.723 76.858 121.909C76.3845 122.091 75.8523 122.182 75.2614 122.182ZM87.983 122.205C87.4299 122.205 86.928 122.1 86.4773 121.892C86.0265 121.68 85.6686 121.375 85.4034 120.977C85.1383 120.576 85.0057 120.091 85.0057 119.523C85.0057 119.023 85.1042 118.617 85.3011 118.307C85.4981 117.992 85.7614 117.746 86.0909 117.568C86.4205 117.39 86.7841 117.258 87.1818 117.17C87.5833 117.08 87.9867 117.008 88.392 116.955C88.9223 116.886 89.3523 116.835 89.6818 116.801C90.0152 116.763 90.2576 116.701 90.4091 116.614C90.5644 116.527 90.642 116.375 90.642 116.159V116.114C90.642 115.553 90.4886 115.117 90.1818 114.807C89.8788 114.496 89.4186 114.341 88.8011 114.341C88.161 114.341 87.6591 114.481 87.2955 114.761C86.9318 115.042 86.6761 115.341 86.5284 115.659L85.2557 115.205C85.483 114.674 85.786 114.261 86.1648 113.966C86.5473 113.667 86.964 113.458 87.4148 113.341C87.8693 113.22 88.3163 113.159 88.7557 113.159C89.036 113.159 89.358 113.193 89.7216 113.261C90.089 113.326 90.4432 113.46 90.7841 113.665C91.1288 113.869 91.4148 114.178 91.642 114.591C91.8693 115.004 91.983 115.557 91.983 116.25V122H90.642V120.818H90.5739C90.483 121.008 90.3314 121.21 90.1193 121.426C89.9072 121.642 89.625 121.826 89.2727 121.977C88.9205 122.129 88.4905 122.205 87.983 122.205ZM88.1875 121C88.7178 121 89.1648 120.896 89.5284 120.688C89.8958 120.479 90.1723 120.21 90.358 119.881C90.5473 119.551 90.642 119.205 90.642 118.841V117.614C90.5852 117.682 90.4602 117.744 90.267 117.801C90.0777 117.854 89.858 117.902 89.608 117.943C89.3617 117.981 89.1212 118.015 88.8864 118.045C88.6553 118.072 88.4678 118.095 88.3239 118.114C87.9754 118.159 87.6496 118.233 87.3466 118.335C87.0473 118.434 86.8049 118.583 86.6193 118.784C86.4375 118.981 86.3466 119.25 86.3466 119.591C86.3466 120.057 86.5189 120.409 86.8636 120.648C87.2121 120.883 87.6534 121 88.1875 121ZM102.476 122.182C101.658 122.182 100.953 121.989 100.362 121.602C99.7713 121.216 99.3168 120.684 98.9986 120.006C98.6804 119.328 98.5213 118.553 98.5213 117.682C98.5213 116.795 98.6842 116.013 99.0099 115.335C99.3395 114.653 99.7978 114.121 100.385 113.739C100.976 113.352 101.665 113.159 102.453 113.159C103.067 113.159 103.62 113.273 104.112 113.5C104.605 113.727 105.008 114.045 105.322 114.455C105.637 114.864 105.832 115.341 105.908 115.886H104.567C104.464 115.489 104.237 115.136 103.885 114.83C103.536 114.519 103.067 114.364 102.476 114.364C101.953 114.364 101.495 114.5 101.101 114.773C100.711 115.042 100.406 115.422 100.186 115.915C99.9702 116.403 99.8622 116.977 99.8622 117.636C99.8622 118.311 99.9683 118.898 100.18 119.398C100.396 119.898 100.699 120.286 101.089 120.562C101.483 120.839 101.946 120.977 102.476 120.977C102.824 120.977 103.141 120.917 103.425 120.795C103.709 120.674 103.949 120.5 104.146 120.273C104.343 120.045 104.483 119.773 104.567 119.455H105.908C105.832 119.97 105.644 120.434 105.345 120.847C105.05 121.256 104.658 121.581 104.169 121.824C103.684 122.062 103.12 122.182 102.476 122.182ZM111.413 122.182C110.625 122.182 109.934 121.994 109.339 121.619C108.749 121.244 108.286 120.72 107.953 120.045C107.624 119.371 107.459 118.583 107.459 117.682C107.459 116.773 107.624 115.979 107.953 115.301C108.286 114.623 108.749 114.097 109.339 113.722C109.934 113.347 110.625 113.159 111.413 113.159C112.201 113.159 112.891 113.347 113.482 113.722C114.076 114.097 114.538 114.623 114.868 115.301C115.201 115.979 115.368 116.773 115.368 117.682C115.368 118.583 115.201 119.371 114.868 120.045C114.538 120.72 114.076 121.244 113.482 121.619C112.891 121.994 112.201 122.182 111.413 122.182ZM111.413 120.977C112.012 120.977 112.504 120.824 112.891 120.517C113.277 120.21 113.563 119.807 113.749 119.307C113.934 118.807 114.027 118.265 114.027 117.682C114.027 117.098 113.934 116.555 113.749 116.051C113.563 115.547 113.277 115.14 112.891 114.83C112.504 114.519 112.012 114.364 111.413 114.364C110.815 114.364 110.322 114.519 109.936 114.83C109.55 115.14 109.264 115.547 109.078 116.051C108.893 116.555 108.8 117.098 108.8 117.682C108.8 118.265 108.893 118.807 109.078 119.307C109.264 119.807 109.55 120.21 109.936 120.517C110.322 120.824 110.815 120.977 111.413 120.977ZM118.756 116.75V122H117.415V113.273H118.71V114.636H118.824C119.028 114.193 119.339 113.837 119.756 113.568C120.172 113.295 120.71 113.159 121.369 113.159C121.96 113.159 122.477 113.28 122.92 113.523C123.364 113.761 123.708 114.125 123.955 114.614C124.201 115.098 124.324 115.712 124.324 116.455V122H122.983V116.545C122.983 115.86 122.805 115.326 122.449 114.943C122.093 114.557 121.604 114.364 120.983 114.364C120.555 114.364 120.172 114.456 119.835 114.642C119.502 114.828 119.239 115.098 119.045 115.455C118.852 115.811 118.756 116.242 118.756 116.75ZM130.57 113.273V114.409H126.047V113.273H130.57ZM127.365 111.182H128.706V119.5C128.706 119.879 128.761 120.163 128.871 120.352C128.984 120.538 129.128 120.663 129.303 120.727C129.481 120.788 129.668 120.818 129.865 120.818C130.013 120.818 130.134 120.811 130.229 120.795C130.323 120.777 130.399 120.761 130.456 120.75L130.729 121.955C130.638 121.989 130.511 122.023 130.348 122.057C130.185 122.095 129.979 122.114 129.729 122.114C129.35 122.114 128.979 122.032 128.615 121.869C128.255 121.706 127.956 121.458 127.717 121.125C127.482 120.792 127.365 120.371 127.365 119.864V111.182ZM135.155 122.205C134.602 122.205 134.1 122.1 133.649 121.892C133.198 121.68 132.84 121.375 132.575 120.977C132.31 120.576 132.178 120.091 132.178 119.523C132.178 119.023 132.276 118.617 132.473 118.307C132.67 117.992 132.933 117.746 133.263 117.568C133.592 117.39 133.956 117.258 134.354 117.17C134.755 117.08 135.159 117.008 135.564 116.955C136.094 116.886 136.524 116.835 136.854 116.801C137.187 116.763 137.429 116.701 137.581 116.614C137.736 116.527 137.814 116.375 137.814 116.159V116.114C137.814 115.553 137.661 115.117 137.354 114.807C137.051 114.496 136.59 114.341 135.973 114.341C135.333 114.341 134.831 114.481 134.467 114.761C134.104 115.042 133.848 115.341 133.7 115.659L132.428 115.205C132.655 114.674 132.958 114.261 133.337 113.966C133.719 113.667 134.136 113.458 134.587 113.341C135.041 113.22 135.488 113.159 135.928 113.159C136.208 113.159 136.53 113.193 136.893 113.261C137.261 113.326 137.615 113.46 137.956 113.665C138.301 113.869 138.587 114.178 138.814 114.591C139.041 115.004 139.155 115.557 139.155 116.25V122H137.814V120.818H137.746C137.655 121.008 137.503 121.21 137.291 121.426C137.079 121.642 136.797 121.826 136.445 121.977C136.092 122.129 135.662 122.205 135.155 122.205ZM135.359 121C135.89 121 136.337 120.896 136.7 120.688C137.068 120.479 137.344 120.21 137.53 119.881C137.719 119.551 137.814 119.205 137.814 118.841V117.614C137.757 117.682 137.632 117.744 137.439 117.801C137.25 117.854 137.03 117.902 136.78 117.943C136.534 117.981 136.293 118.015 136.058 118.045C135.827 118.072 135.64 118.095 135.496 118.114C135.147 118.159 134.821 118.233 134.518 118.335C134.219 118.434 133.977 118.583 133.791 118.784C133.609 118.981 133.518 119.25 133.518 119.591C133.518 120.057 133.691 120.409 134.036 120.648C134.384 120.883 134.825 121 135.359 121ZM145.148 122.182C144.33 122.182 143.625 121.989 143.034 121.602C142.443 121.216 141.989 120.684 141.67 120.006C141.352 119.328 141.193 118.553 141.193 117.682C141.193 116.795 141.356 116.013 141.682 115.335C142.011 114.653 142.47 114.121 143.057 113.739C143.648 113.352 144.337 113.159 145.125 113.159C145.739 113.159 146.292 113.273 146.784 113.5C147.277 113.727 147.68 114.045 147.994 114.455C148.309 114.864 148.504 115.341 148.58 115.886H147.239C147.136 115.489 146.909 115.136 146.557 114.83C146.208 114.519 145.739 114.364 145.148 114.364C144.625 114.364 144.167 114.5 143.773 114.773C143.383 115.042 143.078 115.422 142.858 115.915C142.642 116.403 142.534 116.977 142.534 117.636C142.534 118.311 142.64 118.898 142.852 119.398C143.068 119.898 143.371 120.286 143.761 120.562C144.155 120.839 144.617 120.977 145.148 120.977C145.496 120.977 145.812 120.917 146.097 120.795C146.381 120.674 146.621 120.5 146.818 120.273C147.015 120.045 147.155 119.773 147.239 119.455H148.58C148.504 119.97 148.316 120.434 148.017 120.847C147.722 121.256 147.33 121.581 146.841 121.824C146.356 122.062 145.792 122.182 145.148 122.182ZM154.335 113.273V114.409H149.812V113.273H154.335ZM151.131 111.182H152.472V119.5C152.472 119.879 152.527 120.163 152.636 120.352C152.75 120.538 152.894 120.663 153.068 120.727C153.246 120.788 153.434 120.818 153.631 120.818C153.778 120.818 153.9 120.811 153.994 120.795C154.089 120.777 154.165 120.761 154.222 120.75L154.494 121.955C154.403 121.989 154.277 122.023 154.114 122.057C153.951 122.095 153.744 122.114 153.494 122.114C153.116 122.114 152.744 122.032 152.381 121.869C152.021 121.706 151.722 121.458 151.483 121.125C151.248 120.792 151.131 120.371 151.131 119.864V111.182ZM164.739 113.273V114.409H160.034V113.273H164.739ZM161.443 122V112.068C161.443 111.568 161.561 111.152 161.795 110.818C162.03 110.485 162.335 110.235 162.71 110.068C163.085 109.902 163.481 109.818 163.898 109.818C164.227 109.818 164.496 109.845 164.705 109.898C164.913 109.951 165.068 110 165.17 110.045L164.784 111.205C164.716 111.182 164.621 111.153 164.5 111.119C164.383 111.085 164.227 111.068 164.034 111.068C163.591 111.068 163.271 111.18 163.074 111.403C162.881 111.627 162.784 111.955 162.784 112.386V122H161.443ZM169.804 122.182C169.016 122.182 168.325 121.994 167.73 121.619C167.139 121.244 166.677 120.72 166.344 120.045C166.014 119.371 165.849 118.583 165.849 117.682C165.849 116.773 166.014 115.979 166.344 115.301C166.677 114.623 167.139 114.097 167.73 113.722C168.325 113.347 169.016 113.159 169.804 113.159C170.592 113.159 171.281 113.347 171.872 113.722C172.467 114.097 172.929 114.623 173.259 115.301C173.592 115.979 173.759 116.773 173.759 117.682C173.759 118.583 173.592 119.371 173.259 120.045C172.929 120.72 172.467 121.244 171.872 121.619C171.281 121.994 170.592 122.182 169.804 122.182ZM169.804 120.977C170.402 120.977 170.895 120.824 171.281 120.517C171.668 120.21 171.954 119.807 172.139 119.307C172.325 118.807 172.418 118.265 172.418 117.682C172.418 117.098 172.325 116.555 172.139 116.051C171.954 115.547 171.668 115.14 171.281 114.83C170.895 114.519 170.402 114.364 169.804 114.364C169.205 114.364 168.713 114.519 168.327 114.83C167.94 115.14 167.654 115.547 167.469 116.051C167.283 116.555 167.19 117.098 167.19 117.682C167.19 118.265 167.283 118.807 167.469 119.307C167.654 119.807 167.94 120.21 168.327 120.517C168.713 120.824 169.205 120.977 169.804 120.977ZM175.805 122V113.273H177.101V114.591H177.192C177.351 114.159 177.639 113.809 178.055 113.54C178.472 113.271 178.942 113.136 179.464 113.136C179.563 113.136 179.686 113.138 179.834 113.142C179.982 113.146 180.093 113.152 180.169 113.159V114.523C180.124 114.511 180.019 114.494 179.857 114.472C179.697 114.445 179.529 114.432 179.351 114.432C178.927 114.432 178.548 114.521 178.214 114.699C177.885 114.873 177.624 115.116 177.43 115.426C177.241 115.733 177.146 116.083 177.146 116.477V122H175.805ZM181.759 122V113.273H183.054V114.636H183.168C183.349 114.17 183.643 113.809 184.048 113.551C184.454 113.29 184.94 113.159 185.509 113.159C186.084 113.159 186.563 113.29 186.946 113.551C187.332 113.809 187.634 114.17 187.849 114.636H187.94C188.164 114.186 188.499 113.828 188.946 113.562C189.393 113.294 189.929 113.159 190.554 113.159C191.334 113.159 191.973 113.403 192.469 113.892C192.965 114.377 193.213 115.133 193.213 116.159V122H191.872V116.159C191.872 115.515 191.696 115.055 191.344 114.778C190.991 114.502 190.577 114.364 190.099 114.364C189.486 114.364 189.01 114.549 188.673 114.92C188.336 115.288 188.168 115.754 188.168 116.318V122H186.804V116.023C186.804 115.527 186.643 115.127 186.321 114.824C185.999 114.517 185.584 114.364 185.077 114.364C184.728 114.364 184.402 114.456 184.099 114.642C183.8 114.828 183.558 115.085 183.372 115.415C183.19 115.741 183.099 116.117 183.099 116.545V122H181.759ZM202.733 122.205C202.18 122.205 201.678 122.1 201.227 121.892C200.777 121.68 200.419 121.375 200.153 120.977C199.888 120.576 199.756 120.091 199.756 119.523C199.756 119.023 199.854 118.617 200.051 118.307C200.248 117.992 200.511 117.746 200.841 117.568C201.17 117.39 201.534 117.258 201.932 117.17C202.333 117.08 202.737 117.008 203.142 116.955C203.672 116.886 204.102 116.835 204.432 116.801C204.765 116.763 205.008 116.701 205.159 116.614C205.314 116.527 205.392 116.375 205.392 116.159V116.114C205.392 115.553 205.239 115.117 204.932 114.807C204.629 114.496 204.169 114.341 203.551 114.341C202.911 114.341 202.409 114.481 202.045 114.761C201.682 115.042 201.426 115.341 201.278 115.659L200.006 115.205C200.233 114.674 200.536 114.261 200.915 113.966C201.297 113.667 201.714 113.458 202.165 113.341C202.619 113.22 203.066 113.159 203.506 113.159C203.786 113.159 204.108 113.193 204.472 113.261C204.839 113.326 205.193 113.46 205.534 113.665C205.879 113.869 206.165 114.178 206.392 114.591C206.619 115.004 206.733 115.557 206.733 116.25V122H205.392V120.818H205.324C205.233 121.008 205.081 121.21 204.869 121.426C204.657 121.642 204.375 121.826 204.023 121.977C203.67 122.129 203.241 122.205 202.733 122.205ZM202.938 121C203.468 121 203.915 120.896 204.278 120.688C204.646 120.479 204.922 120.21 205.108 119.881C205.297 119.551 205.392 119.205 205.392 118.841V117.614C205.335 117.682 205.21 117.744 205.017 117.801C204.828 117.854 204.608 117.902 204.358 117.943C204.112 117.981 203.871 118.015 203.636 118.045C203.405 118.072 203.218 118.095 203.074 118.114C202.725 118.159 202.4 118.233 202.097 118.335C201.797 118.434 201.555 118.583 201.369 118.784C201.188 118.981 201.097 119.25 201.097 119.591C201.097 120.057 201.269 120.409 201.614 120.648C201.962 120.883 202.403 121 202.938 121ZM210.521 116.75V122H209.18V113.273H210.476V114.636H210.589C210.794 114.193 211.105 113.837 211.521 113.568C211.938 113.295 212.476 113.159 213.135 113.159C213.726 113.159 214.243 113.28 214.686 113.523C215.129 113.761 215.474 114.125 215.72 114.614C215.966 115.098 216.089 115.712 216.089 116.455V122H214.749V116.545C214.749 115.86 214.571 115.326 214.214 114.943C213.858 114.557 213.37 114.364 212.749 114.364C212.321 114.364 211.938 114.456 211.601 114.642C211.268 114.828 211.004 115.098 210.811 115.455C210.618 115.811 210.521 116.242 210.521 116.75ZM221.835 122.182C221.108 122.182 220.466 121.998 219.909 121.631C219.352 121.259 218.917 120.737 218.602 120.062C218.288 119.384 218.131 118.583 218.131 117.659C218.131 116.742 218.288 115.947 218.602 115.273C218.917 114.598 219.354 114.078 219.915 113.71C220.475 113.343 221.123 113.159 221.858 113.159C222.426 113.159 222.875 113.254 223.205 113.443C223.538 113.629 223.792 113.841 223.966 114.08C224.144 114.314 224.282 114.508 224.381 114.659H224.494V110.364H225.835V122H224.54V120.659H224.381C224.282 120.818 224.142 121.019 223.96 121.261C223.778 121.5 223.519 121.714 223.182 121.903C222.845 122.089 222.396 122.182 221.835 122.182ZM222.017 120.977C222.555 120.977 223.009 120.837 223.381 120.557C223.752 120.273 224.034 119.881 224.227 119.381C224.42 118.877 224.517 118.295 224.517 117.636C224.517 116.985 224.422 116.415 224.233 115.926C224.044 115.434 223.763 115.051 223.392 114.778C223.021 114.502 222.563 114.364 222.017 114.364C221.449 114.364 220.975 114.509 220.597 114.801C220.222 115.089 219.939 115.481 219.75 115.977C219.564 116.47 219.472 117.023 219.472 117.636C219.472 118.258 219.566 118.822 219.756 119.33C219.949 119.833 220.233 120.235 220.608 120.534C220.987 120.83 221.456 120.977 222.017 120.977ZM30.2273 141V132.273H31.5682V141H30.2273ZM30.9091 130.818C30.6477 130.818 30.4223 130.729 30.233 130.551C30.0473 130.373 29.9545 130.159 29.9545 129.909C29.9545 129.659 30.0473 129.445 30.233 129.267C30.4223 129.089 30.6477 129 30.9091 129C31.1705 129 31.3939 129.089 31.5795 129.267C31.7689 129.445 31.8636 129.659 31.8636 129.909C31.8636 130.159 31.7689 130.373 31.5795 130.551C31.3939 130.729 31.1705 130.818 30.9091 130.818ZM34.0241 141V132.273H35.3196V133.636H35.4332C35.6151 133.17 35.9086 132.809 36.3139 132.551C36.7192 132.29 37.206 132.159 37.7741 132.159C38.3499 132.159 38.8291 132.29 39.2116 132.551C39.598 132.809 39.8991 133.17 40.1151 133.636H40.206C40.4295 133.186 40.7647 132.828 41.2116 132.562C41.6586 132.294 42.1946 132.159 42.8196 132.159C43.5999 132.159 44.2382 132.403 44.7344 132.892C45.2306 133.377 45.4787 134.133 45.4787 135.159V141H44.1378V135.159C44.1378 134.515 43.9616 134.055 43.6094 133.778C43.2571 133.502 42.8423 133.364 42.3651 133.364C41.7514 133.364 41.276 133.549 40.9389 133.92C40.6018 134.288 40.4332 134.754 40.4332 135.318V141H39.0696V135.023C39.0696 134.527 38.9086 134.127 38.5866 133.824C38.2647 133.517 37.8499 133.364 37.3423 133.364C36.9938 133.364 36.6681 133.456 36.3651 133.642C36.0658 133.828 35.8234 134.085 35.6378 134.415C35.456 134.741 35.3651 135.117 35.3651 135.545V141H34.0241ZM47.9304 144.273V132.273H49.2259V133.659H49.3849C49.4834 133.508 49.6198 133.314 49.794 133.08C49.9721 132.841 50.2259 132.629 50.5554 132.443C50.8887 132.254 51.3395 132.159 51.9077 132.159C52.6425 132.159 53.2902 132.343 53.8509 132.71C54.4115 133.078 54.849 133.598 55.1634 134.273C55.4777 134.947 55.6349 135.742 55.6349 136.659C55.6349 137.583 55.4777 138.384 55.1634 139.062C54.849 139.737 54.4134 140.259 53.8565 140.631C53.2997 140.998 52.6577 141.182 51.9304 141.182C51.3698 141.182 50.9209 141.089 50.5838 140.903C50.2467 140.714 49.9872 140.5 49.8054 140.261C49.6236 140.019 49.4834 139.818 49.3849 139.659H49.2713V144.273H47.9304ZM49.2486 136.636C49.2486 137.295 49.3452 137.877 49.5384 138.381C49.7315 138.881 50.0137 139.273 50.3849 139.557C50.7562 139.837 51.2107 139.977 51.7486 139.977C52.3092 139.977 52.777 139.83 53.152 139.534C53.5308 139.235 53.8149 138.833 54.0043 138.33C54.1974 137.822 54.294 137.258 54.294 136.636C54.294 136.023 54.1993 135.47 54.0099 134.977C53.8243 134.481 53.5421 134.089 53.1634 133.801C52.7884 133.509 52.3168 133.364 51.7486 133.364C51.2031 133.364 50.7448 133.502 50.3736 133.778C50.0024 134.051 49.7221 134.434 49.5327 134.926C49.3433 135.415 49.2486 135.985 49.2486 136.636ZM57.6804 141V132.273H58.9759V133.591H59.0668C59.2259 133.159 59.5137 132.809 59.9304 132.54C60.3471 132.271 60.8168 132.136 61.3395 132.136C61.438 132.136 61.5611 132.138 61.7088 132.142C61.8565 132.146 61.9683 132.152 62.044 132.159V133.523C61.9986 133.511 61.8944 133.494 61.7315 133.472C61.5724 133.445 61.4039 133.432 61.2259 133.432C60.8016 133.432 60.4228 133.521 60.0895 133.699C59.7599 133.873 59.4986 134.116 59.3054 134.426C59.116 134.733 59.0213 135.083 59.0213 135.477V141H57.6804ZM63.6335 141V132.273H64.9744V141H63.6335ZM64.3153 130.818C64.054 130.818 63.8286 130.729 63.6392 130.551C63.4536 130.373 63.3608 130.159 63.3608 129.909C63.3608 129.659 63.4536 129.445 63.6392 129.267C63.8286 129.089 64.054 129 64.3153 129C64.5767 129 64.8002 129.089 64.9858 129.267C65.1752 129.445 65.2699 129.659 65.2699 129.909C65.2699 130.159 65.1752 130.373 64.9858 130.551C64.8002 130.729 64.5767 130.818 64.3153 130.818ZM68.7713 135.75V141H67.4304V132.273H68.7259V133.636H68.8395C69.044 133.193 69.3546 132.837 69.7713 132.568C70.188 132.295 70.7259 132.159 71.3849 132.159C71.9759 132.159 72.4929 132.28 72.9361 132.523C73.3793 132.761 73.724 133.125 73.9702 133.614C74.2164 134.098 74.3395 134.712 74.3395 135.455V141H72.9986V135.545C72.9986 134.86 72.8205 134.326 72.4645 133.943C72.1084 133.557 71.6198 133.364 70.9986 133.364C70.5705 133.364 70.188 133.456 69.8509 133.642C69.5175 133.828 69.2543 134.098 69.0611 134.455C68.8679 134.811 68.7713 135.242 68.7713 135.75ZM80.5852 132.273V133.409H76.0625V132.273H80.5852ZM77.3807 130.182H78.7216V138.5C78.7216 138.879 78.7765 139.163 78.8864 139.352C79 139.538 79.1439 139.663 79.3182 139.727C79.4962 139.788 79.6837 139.818 79.8807 139.818C80.0284 139.818 80.1496 139.811 80.2443 139.795C80.339 139.777 80.4148 139.761 80.4716 139.75L80.7443 140.955C80.6534 140.989 80.5265 141.023 80.3636 141.057C80.2008 141.095 79.9943 141.114 79.7443 141.114C79.3655 141.114 78.9943 141.032 78.6307 140.869C78.2708 140.706 77.9716 140.458 77.733 140.125C77.4981 139.792 77.3807 139.371 77.3807 138.864V130.182ZM87.1023 144.273V132.273H88.3977V133.659H88.5568C88.6553 133.508 88.7917 133.314 88.9659 133.08C89.1439 132.841 89.3977 132.629 89.7273 132.443C90.0606 132.254 90.5114 132.159 91.0795 132.159C91.8144 132.159 92.4621 132.343 93.0227 132.71C93.5833 133.078 94.0208 133.598 94.3352 134.273C94.6496 134.947 94.8068 135.742 94.8068 136.659C94.8068 137.583 94.6496 138.384 94.3352 139.062C94.0208 139.737 93.5852 140.259 93.0284 140.631C92.4716 140.998 91.8295 141.182 91.1023 141.182C90.5417 141.182 90.0928 141.089 89.7557 140.903C89.4186 140.714 89.1591 140.5 88.9773 140.261C88.7955 140.019 88.6553 139.818 88.5568 139.659H88.4432V144.273H87.1023ZM88.4205 136.636C88.4205 137.295 88.517 137.877 88.7102 138.381C88.9034 138.881 89.1856 139.273 89.5568 139.557C89.928 139.837 90.3826 139.977 90.9205 139.977C91.4811 139.977 91.9489 139.83 92.3239 139.534C92.7027 139.235 92.9867 138.833 93.1761 138.33C93.3693 137.822 93.4659 137.258 93.4659 136.636C93.4659 136.023 93.3712 135.47 93.1818 134.977C92.9962 134.481 92.714 134.089 92.3352 133.801C91.9602 133.509 91.4886 133.364 90.9205 133.364C90.375 133.364 89.9167 133.502 89.5455 133.778C89.1742 134.051 88.8939 134.434 88.7045 134.926C88.5152 135.415 88.4205 135.985 88.4205 136.636ZM99.4205 141.205C98.8674 141.205 98.3655 141.1 97.9148 140.892C97.464 140.68 97.1061 140.375 96.8409 139.977C96.5758 139.576 96.4432 139.091 96.4432 138.523C96.4432 138.023 96.5417 137.617 96.7386 137.307C96.9356 136.992 97.1989 136.746 97.5284 136.568C97.858 136.39 98.2216 136.258 98.6193 136.17C99.0208 136.08 99.4242 136.008 99.8295 135.955C100.36 135.886 100.79 135.835 101.119 135.801C101.453 135.763 101.695 135.701 101.847 135.614C102.002 135.527 102.08 135.375 102.08 135.159V135.114C102.08 134.553 101.926 134.117 101.619 133.807C101.316 133.496 100.856 133.341 100.239 133.341C99.5985 133.341 99.0966 133.481 98.733 133.761C98.3693 134.042 98.1136 134.341 97.9659 134.659L96.6932 134.205C96.9205 133.674 97.2235 133.261 97.6023 132.966C97.9848 132.667 98.4015 132.458 98.8523 132.341C99.3068 132.22 99.7538 132.159 100.193 132.159C100.473 132.159 100.795 132.193 101.159 132.261C101.527 132.326 101.881 132.46 102.222 132.665C102.566 132.869 102.852 133.178 103.08 133.591C103.307 134.004 103.42 134.557 103.42 135.25V141H102.08V139.818H102.011C101.92 140.008 101.769 140.21 101.557 140.426C101.345 140.642 101.063 140.826 100.71 140.977C100.358 141.129 99.928 141.205 99.4205 141.205ZM99.625 140C100.155 140 100.602 139.896 100.966 139.688C101.333 139.479 101.61 139.21 101.795 138.881C101.985 138.551 102.08 138.205 102.08 137.841V136.614C102.023 136.682 101.898 136.744 101.705 136.801C101.515 136.854 101.295 136.902 101.045 136.943C100.799 136.981 100.559 137.015 100.324 137.045C100.093 137.072 99.9053 137.095 99.7614 137.114C99.4129 137.159 99.0871 137.233 98.7841 137.335C98.4848 137.434 98.2424 137.583 98.0568 137.784C97.875 137.981 97.7841 138.25 97.7841 138.591C97.7841 139.057 97.9564 139.409 98.3011 139.648C98.6496 139.883 99.0909 140 99.625 140ZM109.391 144.455C108.743 144.455 108.186 144.371 107.72 144.205C107.254 144.042 106.866 143.826 106.555 143.557C106.249 143.292 106.004 143.008 105.822 142.705L106.891 141.955C107.012 142.114 107.165 142.295 107.351 142.5C107.536 142.708 107.79 142.888 108.112 143.04C108.438 143.195 108.864 143.273 109.391 143.273C110.095 143.273 110.677 143.102 111.135 142.761C111.593 142.42 111.822 141.886 111.822 141.159V139.386H111.709C111.61 139.545 111.47 139.742 111.288 139.977C111.11 140.208 110.853 140.415 110.516 140.597C110.182 140.775 109.732 140.864 109.163 140.864C108.459 140.864 107.826 140.697 107.266 140.364C106.709 140.03 106.268 139.545 105.942 138.909C105.62 138.273 105.459 137.5 105.459 136.591C105.459 135.697 105.616 134.919 105.93 134.256C106.245 133.589 106.682 133.074 107.243 132.71C107.804 132.343 108.451 132.159 109.186 132.159C109.754 132.159 110.205 132.254 110.538 132.443C110.875 132.629 111.133 132.841 111.311 133.08C111.493 133.314 111.633 133.508 111.732 133.659H111.868V132.273H113.163V141.25C113.163 142 112.993 142.61 112.652 143.08C112.315 143.553 111.86 143.9 111.288 144.119C110.72 144.343 110.088 144.455 109.391 144.455ZM109.345 139.659C109.883 139.659 110.338 139.536 110.709 139.29C111.08 139.044 111.362 138.689 111.555 138.227C111.749 137.765 111.845 137.212 111.845 136.568C111.845 135.939 111.75 135.384 111.561 134.903C111.372 134.422 111.091 134.045 110.72 133.773C110.349 133.5 109.891 133.364 109.345 133.364C108.777 133.364 108.304 133.508 107.925 133.795C107.55 134.083 107.268 134.47 107.078 134.955C106.893 135.439 106.8 135.977 106.8 136.568C106.8 137.174 106.894 137.71 107.084 138.176C107.277 138.638 107.561 139.002 107.936 139.267C108.315 139.528 108.785 139.659 109.345 139.659ZM119.277 141.182C118.436 141.182 117.711 140.996 117.101 140.625C116.495 140.25 116.027 139.727 115.697 139.057C115.372 138.383 115.209 137.598 115.209 136.705C115.209 135.811 115.372 135.023 115.697 134.341C116.027 133.655 116.485 133.121 117.072 132.739C117.663 132.352 118.353 132.159 119.141 132.159C119.595 132.159 120.044 132.235 120.487 132.386C120.93 132.538 121.334 132.784 121.697 133.125C122.061 133.462 122.351 133.909 122.567 134.466C122.783 135.023 122.891 135.708 122.891 136.523V137.091H116.163V135.932H121.527C121.527 135.439 121.429 135 121.232 134.614C121.038 134.227 120.762 133.922 120.402 133.699C120.046 133.475 119.625 133.364 119.141 133.364C118.607 133.364 118.144 133.496 117.754 133.761C117.368 134.023 117.071 134.364 116.862 134.784C116.654 135.205 116.55 135.655 116.55 136.136V136.909C116.55 137.568 116.663 138.127 116.891 138.585C117.122 139.04 117.442 139.386 117.851 139.625C118.26 139.86 118.735 139.977 119.277 139.977C119.629 139.977 119.947 139.928 120.232 139.83C120.519 139.727 120.768 139.576 120.976 139.375C121.184 139.17 121.345 138.917 121.459 138.614L122.754 138.977C122.618 139.417 122.389 139.803 122.067 140.136C121.745 140.466 121.347 140.723 120.874 140.909C120.4 141.091 119.868 141.182 119.277 141.182ZM125.908 141.091C125.627 141.091 125.387 140.991 125.186 140.79C124.985 140.589 124.885 140.348 124.885 140.068C124.885 139.788 124.985 139.547 125.186 139.347C125.387 139.146 125.627 139.045 125.908 139.045C126.188 139.045 126.429 139.146 126.629 139.347C126.83 139.547 126.93 139.788 126.93 140.068C126.93 140.254 126.883 140.424 126.788 140.58C126.697 140.735 126.574 140.86 126.419 140.955C126.268 141.045 126.097 141.091 125.908 141.091ZM130.314 141.091C130.034 141.091 129.793 140.991 129.592 140.79C129.392 140.589 129.291 140.348 129.291 140.068C129.291 139.788 129.392 139.547 129.592 139.347C129.793 139.146 130.034 139.045 130.314 139.045C130.594 139.045 130.835 139.146 131.036 139.347C131.236 139.547 131.337 139.788 131.337 140.068C131.337 140.254 131.289 140.424 131.195 140.58C131.104 140.735 130.981 140.86 130.825 140.955C130.674 141.045 130.503 141.091 130.314 141.091ZM134.72 141.091C134.44 141.091 134.199 140.991 133.999 140.79C133.798 140.589 133.697 140.348 133.697 140.068C133.697 139.788 133.798 139.547 133.999 139.347C134.199 139.146 134.44 139.045 134.72 139.045C135 139.045 135.241 139.146 135.442 139.347C135.643 139.547 135.743 139.788 135.743 140.068C135.743 140.254 135.696 140.424 135.601 140.58C135.51 140.735 135.387 140.86 135.232 140.955C135.08 141.045 134.91 141.091 134.72 141.091Z" fill="#A8A8A8"/>
<rect x="29" y="173" width="128" height="8" rx="4" fill="#F4F4F4"/>
<rect x="29" y="173" width="64" height="8" rx="4" fill="#4589FF"/>
<path d="M171.972 171.273V180H170.915V172.381H170.864L168.733 173.795V172.722L170.915 171.273H171.972ZM177.584 170.864L174.771 181.312H173.851L176.663 170.864H177.584ZM178.759 180V179.233L181.64 176.08C181.978 175.71 182.256 175.389 182.475 175.116C182.694 174.841 182.855 174.582 182.961 174.341C183.069 174.097 183.123 173.841 183.123 173.574C183.123 173.267 183.049 173.001 182.901 172.777C182.756 172.553 182.557 172.379 182.304 172.257C182.051 172.135 181.767 172.074 181.452 172.074C181.117 172.074 180.824 172.143 180.574 172.283C180.327 172.419 180.135 172.611 179.999 172.858C179.865 173.105 179.799 173.395 179.799 173.727H178.793C178.793 173.216 178.911 172.767 179.147 172.381C179.382 171.994 179.703 171.693 180.11 171.477C180.519 171.261 180.978 171.153 181.486 171.153C181.998 171.153 182.451 171.261 182.846 171.477C183.24 171.693 183.55 171.984 183.775 172.351C183.999 172.717 184.111 173.125 184.111 173.574C184.111 173.895 184.053 174.209 183.936 174.516C183.823 174.82 183.624 175.159 183.34 175.534C183.059 175.906 182.668 176.361 182.168 176.898L180.208 178.994V179.062H184.265V180H178.759ZM194.326 173.455C194.275 173.023 194.067 172.688 193.703 172.449C193.34 172.21 192.894 172.091 192.365 172.091C191.979 172.091 191.641 172.153 191.351 172.278C191.064 172.403 190.84 172.575 190.678 172.794C190.519 173.013 190.439 173.261 190.439 173.54C190.439 173.773 190.495 173.973 190.605 174.141C190.719 174.305 190.864 174.443 191.04 174.554C191.216 174.662 191.401 174.751 191.594 174.822C191.787 174.891 191.965 174.946 192.127 174.989L193.013 175.227C193.24 175.287 193.493 175.369 193.772 175.474C194.053 175.58 194.321 175.723 194.577 175.905C194.836 176.084 195.049 176.314 195.216 176.595C195.384 176.876 195.468 177.222 195.468 177.631C195.468 178.102 195.344 178.528 195.097 178.909C194.853 179.29 194.495 179.592 194.023 179.817C193.554 180.041 192.985 180.153 192.314 180.153C191.689 180.153 191.148 180.053 190.691 179.851C190.236 179.649 189.878 179.368 189.617 179.007C189.358 178.646 189.212 178.227 189.178 177.75H190.269C190.297 178.08 190.408 178.352 190.601 178.568C190.797 178.781 191.044 178.94 191.343 179.045C191.644 179.148 191.968 179.199 192.314 179.199C192.718 179.199 193.08 179.134 193.401 179.003C193.722 178.869 193.976 178.685 194.164 178.449C194.351 178.21 194.445 177.932 194.445 177.614C194.445 177.324 194.364 177.088 194.202 176.906C194.04 176.724 193.827 176.577 193.563 176.463C193.299 176.349 193.013 176.25 192.706 176.165L191.632 175.858C190.951 175.662 190.411 175.382 190.013 175.018C189.615 174.655 189.417 174.179 189.417 173.591C189.417 173.102 189.549 172.676 189.813 172.312C190.08 171.946 190.438 171.662 190.887 171.46C191.338 171.256 191.843 171.153 192.4 171.153C192.962 171.153 193.462 171.254 193.9 171.456C194.337 171.655 194.684 171.928 194.939 172.274C195.198 172.621 195.334 173.014 195.348 173.455H194.326ZM201.194 177.324V173.455H202.2V180H201.194V178.892H201.126C200.972 179.224 200.734 179.507 200.41 179.74C200.086 179.97 199.677 180.085 199.183 180.085C198.773 180.085 198.41 179.996 198.092 179.817C197.773 179.635 197.523 179.362 197.342 178.999C197.16 178.632 197.069 178.17 197.069 177.614V173.455H198.075V177.545C198.075 178.023 198.208 178.403 198.475 178.688C198.745 178.972 199.089 179.114 199.506 179.114C199.756 179.114 200.011 179.05 200.269 178.922C200.531 178.794 200.749 178.598 200.925 178.334C201.104 178.07 201.194 177.733 201.194 177.324ZM204.178 180V171.273H205.184V174.494H205.269C205.343 174.381 205.445 174.236 205.576 174.06C205.709 173.881 205.9 173.722 206.147 173.582C206.397 173.44 206.735 173.369 207.161 173.369C207.712 173.369 208.198 173.507 208.618 173.783C209.039 174.058 209.367 174.449 209.603 174.955C209.838 175.46 209.956 176.057 209.956 176.744C209.956 177.438 209.838 178.038 209.603 178.547C209.367 179.053 209.04 179.445 208.623 179.723C208.205 179.999 207.723 180.136 207.178 180.136C206.757 180.136 206.421 180.067 206.168 179.928C205.915 179.786 205.721 179.625 205.584 179.446C205.448 179.264 205.343 179.114 205.269 178.994H205.15V180H204.178ZM205.167 176.727C205.167 177.222 205.239 177.658 205.384 178.036C205.529 178.411 205.74 178.705 206.019 178.918C206.297 179.128 206.638 179.233 207.042 179.233C207.462 179.233 207.813 179.122 208.094 178.901C208.378 178.676 208.591 178.375 208.733 177.997C208.878 177.616 208.951 177.193 208.951 176.727C208.951 176.267 208.88 175.852 208.738 175.483C208.598 175.111 208.387 174.817 208.103 174.601C207.821 174.382 207.468 174.273 207.042 174.273C206.632 174.273 206.289 174.376 206.01 174.584C205.732 174.788 205.522 175.075 205.38 175.445C205.238 175.811 205.167 176.239 205.167 176.727ZM214.341 173.455V174.307H210.949V173.455H214.341ZM211.938 171.886H212.944V178.125C212.944 178.409 212.985 178.622 213.067 178.764C213.152 178.903 213.26 178.997 213.391 179.045C213.525 179.091 213.665 179.114 213.813 179.114C213.924 179.114 214.015 179.108 214.086 179.097C214.157 179.082 214.213 179.071 214.256 179.062L214.461 179.966C214.392 179.991 214.297 180.017 214.175 180.043C214.053 180.071 213.898 180.085 213.711 180.085C213.426 180.085 213.148 180.024 212.875 179.902C212.605 179.78 212.381 179.594 212.202 179.344C212.026 179.094 211.938 178.778 211.938 178.398V171.886ZM217.78 180.153C217.365 180.153 216.989 180.075 216.651 179.919C216.313 179.76 216.044 179.531 215.846 179.233C215.647 178.932 215.547 178.568 215.547 178.142C215.547 177.767 215.621 177.463 215.769 177.23C215.917 176.994 216.114 176.81 216.361 176.676C216.608 176.543 216.881 176.443 217.179 176.378C217.48 176.31 217.783 176.256 218.087 176.216C218.485 176.165 218.807 176.126 219.054 176.101C219.304 176.072 219.486 176.026 219.6 175.96C219.716 175.895 219.775 175.781 219.775 175.619V175.585C219.775 175.165 219.659 174.838 219.429 174.605C219.202 174.372 218.857 174.256 218.394 174.256C217.914 174.256 217.537 174.361 217.265 174.571C216.992 174.781 216.8 175.006 216.689 175.244L215.735 174.903C215.905 174.506 216.132 174.196 216.417 173.974C216.703 173.75 217.016 173.594 217.354 173.506C217.695 173.415 218.03 173.369 218.36 173.369C218.57 173.369 218.811 173.395 219.084 173.446C219.36 173.494 219.625 173.595 219.881 173.749C220.14 173.902 220.354 174.134 220.525 174.443C220.695 174.753 220.78 175.168 220.78 175.688V180H219.775V179.114H219.723C219.655 179.256 219.542 179.408 219.382 179.57C219.223 179.732 219.012 179.869 218.748 179.983C218.483 180.097 218.161 180.153 217.78 180.153ZM217.934 179.25C218.331 179.25 218.667 179.172 218.939 179.016C219.215 178.859 219.422 178.658 219.561 178.411C219.703 178.163 219.775 177.903 219.775 177.631V176.71C219.732 176.761 219.638 176.808 219.493 176.851C219.351 176.891 219.186 176.926 218.999 176.957C218.814 176.986 218.634 177.011 218.458 177.034C218.284 177.054 218.144 177.071 218.036 177.085C217.775 177.119 217.53 177.175 217.303 177.251C217.078 177.325 216.897 177.437 216.757 177.588C216.621 177.736 216.553 177.937 216.553 178.193C216.553 178.543 216.682 178.807 216.941 178.986C217.202 179.162 217.533 179.25 217.934 179.25ZM227.252 174.92L226.349 175.176C226.292 175.026 226.208 174.879 226.097 174.737C225.989 174.592 225.842 174.473 225.654 174.379C225.467 174.286 225.227 174.239 224.934 174.239C224.533 174.239 224.2 174.331 223.933 174.516C223.668 174.697 223.536 174.929 223.536 175.21C223.536 175.46 223.627 175.658 223.809 175.803C223.991 175.947 224.275 176.068 224.661 176.165L225.633 176.403C226.218 176.545 226.654 176.763 226.941 177.055C227.228 177.345 227.371 177.719 227.371 178.176C227.371 178.551 227.263 178.886 227.048 179.182C226.835 179.477 226.536 179.71 226.153 179.881C225.769 180.051 225.323 180.136 224.815 180.136C224.147 180.136 223.594 179.991 223.157 179.702C222.719 179.412 222.442 178.989 222.326 178.432L223.281 178.193C223.371 178.545 223.543 178.81 223.796 178.986C224.052 179.162 224.386 179.25 224.798 179.25C225.266 179.25 225.638 179.151 225.914 178.952C226.192 178.75 226.332 178.509 226.332 178.227C226.332 178 226.252 177.81 226.093 177.656C225.934 177.5 225.69 177.384 225.36 177.307L224.269 177.051C223.67 176.909 223.229 176.689 222.948 176.391C222.67 176.089 222.531 175.713 222.531 175.261C222.531 174.892 222.634 174.565 222.842 174.281C223.052 173.997 223.337 173.774 223.698 173.612C224.062 173.45 224.474 173.369 224.934 173.369C225.582 173.369 226.09 173.511 226.46 173.795C226.832 174.08 227.096 174.455 227.252 174.92ZM229.823 177.614L229.806 176.369H230.01L232.874 173.455H234.118L231.067 176.54H230.982L229.823 177.614ZM228.885 180V171.273H229.891V180H228.885ZM233.044 180L230.488 176.761L231.203 176.062L234.323 180H233.044ZM240.049 174.92L239.146 175.176C239.089 175.026 239.005 174.879 238.894 174.737C238.786 174.592 238.638 174.473 238.451 174.379C238.263 174.286 238.023 174.239 237.731 174.239C237.33 174.239 236.996 174.331 236.729 174.516C236.465 174.697 236.333 174.929 236.333 175.21C236.333 175.46 236.424 175.658 236.606 175.803C236.788 175.947 237.072 176.068 237.458 176.165L238.43 176.403C239.015 176.545 239.451 176.763 239.738 177.055C240.025 177.345 240.168 177.719 240.168 178.176C240.168 178.551 240.06 178.886 239.844 179.182C239.631 179.477 239.333 179.71 238.95 179.881C238.566 180.051 238.12 180.136 237.612 180.136C236.944 180.136 236.391 179.991 235.954 179.702C235.516 179.412 235.239 178.989 235.123 178.432L236.077 178.193C236.168 178.545 236.34 178.81 236.593 178.986C236.849 179.162 237.183 179.25 237.594 179.25C238.063 179.25 238.435 179.151 238.711 178.952C238.989 178.75 239.129 178.509 239.129 178.227C239.129 178 239.049 177.81 238.89 177.656C238.731 177.5 238.487 177.384 238.157 177.307L237.066 177.051C236.467 176.909 236.026 176.689 235.745 176.391C235.467 176.089 235.327 175.713 235.327 175.261C235.327 174.892 235.431 174.565 235.638 174.281C235.849 173.997 236.134 173.774 236.495 173.612C236.859 173.45 237.271 173.369 237.731 173.369C238.379 173.369 238.887 173.511 239.256 173.795C239.629 174.08 239.893 174.455 240.049 174.92Z" fill="black"/>
<rect x="29" y="209" width="32" height="32" rx="16" fill="white"/>
<circle cx="45" cy="225" r="15.5" fill="#9327FF" stroke="white"/>
<path d="M38.5341 229.19H37.4261L40.6307 220.463H41.7216L44.9261 229.19H43.8182L41.2102 221.844H41.142L38.5341 229.19ZM38.9432 225.781H43.4091V226.719H38.9432V225.781ZM51.0582 222.645C51.0071 222.213 50.7997 221.878 50.4361 221.639C50.0724 221.401 49.6264 221.281 49.098 221.281C48.7116 221.281 48.3736 221.344 48.0838 221.469C47.7969 221.594 47.5724 221.766 47.4105 221.984C47.2514 222.203 47.1719 222.452 47.1719 222.73C47.1719 222.963 47.2273 223.163 47.3381 223.331C47.4517 223.496 47.5966 223.634 47.7727 223.744C47.9488 223.852 48.1335 223.942 48.3267 224.013C48.5199 224.081 48.6974 224.136 48.8594 224.179L49.7457 224.418C49.973 224.477 50.2258 224.56 50.5042 224.665C50.7855 224.77 51.054 224.913 51.3096 225.095C51.5682 225.274 51.7812 225.504 51.9488 225.786C52.1165 226.067 52.2003 226.412 52.2003 226.821C52.2003 227.293 52.0767 227.719 51.8295 228.1C51.5852 228.48 51.2273 228.783 50.7557 229.007C50.2869 229.232 49.7173 229.344 49.0469 229.344C48.4219 229.344 47.8807 229.243 47.4233 229.041C46.9687 228.84 46.6108 228.558 46.3494 228.198C46.0909 227.837 45.9446 227.418 45.9105 226.94H47.0014C47.0298 227.27 47.1406 227.543 47.3338 227.759C47.5298 227.972 47.777 228.131 48.0753 228.236C48.3764 228.338 48.7003 228.389 49.0469 228.389C49.4503 228.389 49.8125 228.324 50.1335 228.193C50.4545 228.06 50.7088 227.875 50.8963 227.639C51.0838 227.401 51.1775 227.122 51.1775 226.804C51.1775 226.514 51.0966 226.278 50.9346 226.097C50.7727 225.915 50.5596 225.767 50.2954 225.653C50.0312 225.54 49.7457 225.44 49.4389 225.355L48.365 225.048C47.6832 224.852 47.1435 224.573 46.7457 224.209C46.348 223.845 46.1491 223.369 46.1491 222.781C46.1491 222.293 46.2812 221.867 46.5454 221.503C46.8125 221.136 47.1704 220.852 47.6193 220.651C48.071 220.446 48.5753 220.344 49.1321 220.344C49.6946 220.344 50.1946 220.445 50.6321 220.646C51.0696 220.845 51.4162 221.118 51.6719 221.465C51.9304 221.811 52.0667 222.205 52.081 222.645H51.0582Z" fill="white"/>
<rect x="53" y="209" width="32" height="32" rx="16" fill="white"/>
<circle cx="69" cy="225" r="15.5" fill="#FC71FF" stroke="white"/>
<path d="M64.8517 229.19H62.1585V220.463H64.971C65.8176 220.463 66.5421 220.638 67.1443 220.987C67.7466 221.334 68.2083 221.832 68.5293 222.483C68.8503 223.131 69.0108 223.906 69.0108 224.81C69.0108 225.719 68.8489 226.502 68.525 227.158C68.2012 227.811 67.7296 228.314 67.1102 228.666C66.4909 229.016 65.7381 229.19 64.8517 229.19ZM63.2154 228.253H64.7835C65.5051 228.253 66.1031 228.114 66.5776 227.835C67.052 227.557 67.4057 227.161 67.6387 226.646C67.8716 226.132 67.9881 225.52 67.9881 224.81C67.9881 224.105 67.873 223.499 67.6429 222.99C67.4128 222.479 67.0691 222.087 66.6117 221.814C66.1543 221.538 65.5847 221.401 64.9029 221.401H63.2154V228.253ZM70.7835 229.19V220.463H76.0506V221.401H71.8404V224.35H75.7779V225.287H71.8404V228.253H76.1188V229.19H70.7835Z" fill="white"/>
<rect x="77" y="209" width="32" height="32" rx="16" fill="white"/>
<circle cx="93" cy="225" r="15.5" fill="#FFBB2B" stroke="white"/>
<path d="M86.9496 229.19V220.463H92.2166V221.401H88.0064V224.35H91.9439V225.287H88.0064V228.253H92.2848V229.19H86.9496ZM94.1214 229.19V220.463H99.3544V221.401H95.1783V224.35H98.9623V225.287H95.1783V229.19H94.1214Z" fill="white"/>
<g clip-path="url(#clip0_186815_7202)">
<path d="M233 223.755C233.199 223.754 233.394 223.816 233.554 223.931L241.123 229.365C241.221 229.436 241.304 229.525 241.368 229.627C241.431 229.729 241.472 229.842 241.491 229.96C241.527 230.198 241.465 230.44 241.318 230.633C241.171 230.827 240.951 230.955 240.707 230.991C240.462 231.027 240.213 230.966 240.014 230.823L233 225.792L225.986 230.823C225.887 230.894 225.775 230.945 225.657 230.974C225.538 231.003 225.414 231.009 225.293 230.991C225.172 230.973 225.056 230.933 224.951 230.871C224.846 230.81 224.754 230.729 224.682 230.633C224.609 230.538 224.556 230.429 224.527 230.313C224.497 230.198 224.491 230.078 224.509 229.96C224.528 229.842 224.569 229.729 224.633 229.627C224.696 229.525 224.779 229.436 224.877 229.365L232.446 223.931C232.606 223.816 232.801 223.754 233 223.755Z" fill="#FF3D00"/>
<path d="M233 219C233.199 219 233.394 219.061 233.554 219.176L241.123 224.61C241.322 224.753 241.454 224.967 241.491 225.205C241.527 225.443 241.465 225.685 241.318 225.878C241.171 226.072 240.951 226.2 240.707 226.236C240.462 226.272 240.213 226.211 240.014 226.069L233 221.038L225.986 226.069C225.787 226.211 225.538 226.272 225.293 226.236C225.049 226.2 224.829 226.072 224.682 225.878C224.535 225.685 224.473 225.443 224.509 225.205C224.546 224.967 224.678 224.753 224.877 224.61L232.446 219.176C232.606 219.061 232.801 219 233 219Z" fill="#FF3D00"/>
</g>
</g>
<defs>
<filter id="filter0_d_186815_7202" x="0" y="0" width="278" height="270" filterUnits="userSpaceOnUse" color-interpolation-filters="sRGB">
<feFlood flood-opacity="0" result="BackgroundImageFix"/>
<feColorMatrix in="SourceAlpha" type="matrix" values="0 0 0 0 0 0 0 0 0 0 0 0 0 0 0 0 0 0 127 0" result="hardAlpha"/>
<feMorphology radius="3" operator="dilate" in="SourceAlpha" result="effect1_dropShadow_186815_7202"/>
<feOffset/>
<feGaussianBlur stdDeviation="5"/>
<feComposite in2="hardAlpha" operator="out"/>
<feColorMatrix type="matrix" values="0 0 0 0 0 0 0 0 0 0 0 0 0 0 0 0 0 0 0.08 0"/>
<feBlend mode="normal" in2="BackgroundImageFix" result="effect1_dropShadow_186815_7202"/>
<feBlend mode="normal" in="SourceGraphic" in2="effect1_dropShadow_186815_7202" result="shape"/>
</filter>
<clipPath id="clip0_186815_7202">
<rect width="17" height="12" fill="white" transform="translate(241.5 231) rotate(-180)"/>
</clipPath>
</defs>
</svg>
