<svg width="176" height="74" viewBox="0 0 176 74" fill="none" xmlns="http://www.w3.org/2000/svg">
<path d="M3.85582 59.5V15.1364H21.6186C24.8823 15.1364 27.6045 15.6201 29.7852 16.5877C31.9658 17.5553 33.6049 18.8983 34.7024 20.6168C35.8 22.3209 36.3487 24.2849 36.3487 26.5089C36.3487 28.2418 36.0021 29.7654 35.309 31.0795C34.6158 32.3793 33.6626 33.4479 32.4496 34.2855C31.2509 35.1087 29.879 35.6935 28.3338 36.0401V36.4734C30.0234 36.5456 31.6048 37.0221 33.0778 37.9031C34.5652 38.784 35.7711 40.0187 36.6953 41.6072C37.6196 43.1813 38.0817 45.0587 38.0817 47.2393C38.0817 49.5933 37.4968 51.6945 36.3271 53.543C35.1718 55.377 33.4605 56.8284 31.1932 57.897C28.9259 58.9657 26.1315 59.5 22.81 59.5H3.85582ZM13.2354 51.8317H20.8821C23.496 51.8317 25.4022 51.3335 26.6009 50.337C27.7995 49.3261 28.3988 47.9831 28.3988 46.3079C28.3988 45.0804 28.1027 43.9973 27.5107 43.0586C26.9186 42.1199 26.0737 41.3834 24.9762 40.8491C23.8931 40.3147 22.6006 40.0476 21.0987 40.0476H13.2354V51.8317ZM13.2354 33.7006H20.1889C21.4742 33.7006 22.6151 33.4768 23.6115 33.0291C24.6224 32.567 25.4167 31.9171 25.9943 31.0795C26.5864 30.242 26.8825 29.2383 26.8825 28.0685C26.8825 26.4656 26.312 25.1731 25.1712 24.191C24.0447 23.209 22.4418 22.718 20.3622 22.718H13.2354V33.7006ZM59.045 60.1499C55.6802 60.1499 52.7703 59.435 50.3153 58.0053C47.8747 56.5612 45.9901 54.5539 44.6615 51.9833C43.3329 49.3983 42.6686 46.4018 42.6686 42.9936C42.6686 39.5566 43.3329 36.5528 44.6615 33.9822C45.9901 31.3973 47.8747 29.3899 50.3153 27.9602C52.7703 26.5161 55.6802 25.794 59.045 25.794C62.4098 25.794 65.3125 26.5161 67.7531 27.9602C70.2081 29.3899 72.0999 31.3973 73.4285 33.9822C74.7571 36.5528 75.4214 39.5566 75.4214 42.9936C75.4214 46.4018 74.7571 49.3983 73.4285 51.9833C72.0999 54.5539 70.2081 56.5612 67.7531 58.0053C65.3125 59.435 62.4098 60.1499 59.045 60.1499ZM59.0883 53.0014C60.6191 53.0014 61.8972 52.5682 62.9225 51.7017C63.9478 50.8208 64.7204 49.6222 65.2403 48.1058C65.7747 46.5895 66.0418 44.8638 66.0418 42.9286C66.0418 40.9935 65.7747 39.2678 65.2403 37.7514C64.7204 36.2351 63.9478 35.0365 62.9225 34.1555C61.8972 33.2746 60.6191 32.8342 59.0883 32.8342C57.5431 32.8342 56.2434 33.2746 55.1892 34.1555C54.1494 35.0365 53.3624 36.2351 52.828 37.7514C52.3082 39.2678 52.0482 40.9935 52.0482 42.9286C52.0482 44.8638 52.3082 46.5895 52.828 48.1058C53.3624 49.6222 54.1494 50.8208 55.1892 51.7017C56.2434 52.5682 57.5431 53.0014 59.0883 53.0014ZM90.9097 60.1282C88.7868 60.1282 86.895 59.7599 85.2343 59.0234C83.5735 58.2725 82.2594 57.1677 81.2918 55.7092C80.3387 54.2362 79.8621 52.4021 79.8621 50.207C79.8621 48.3585 80.2015 46.8061 80.8802 45.5497C81.559 44.2933 82.4832 43.2824 83.653 42.517C84.8227 41.7517 86.1513 41.174 87.6388 40.7841C89.1407 40.3942 90.7148 40.1198 92.3611 39.9609C94.2962 39.7588 95.8559 39.571 97.04 39.3977C98.2242 39.21 99.0835 38.9356 99.6178 38.5746C100.152 38.2135 100.419 37.6792 100.419 36.9716V36.8416C100.419 35.4697 99.9861 34.4083 99.1196 33.6573C98.2675 32.9064 97.0545 32.5309 95.4804 32.5309C93.8196 32.5309 92.4983 32.8991 91.5162 33.6357C90.5342 34.3577 89.8844 35.2675 89.5667 36.3651L81.0319 35.6719C81.4651 33.6501 82.3171 31.9027 83.588 30.4297C84.8588 28.9422 86.4979 27.8014 88.5052 27.0071C90.527 26.1984 92.8665 25.794 95.5237 25.794C97.3722 25.794 99.1412 26.0107 100.831 26.4439C102.535 26.8771 104.044 27.5486 105.358 28.4584C106.687 29.3683 107.734 30.538 108.499 31.9677C109.265 33.3829 109.647 35.0798 109.647 37.0582V59.5H100.896V54.886H100.636C100.102 55.9258 99.3867 56.8428 98.4914 57.6371C97.596 58.4169 96.5202 59.0307 95.2638 59.4783C94.0074 59.9116 92.556 60.1282 90.9097 60.1282ZM93.5525 53.7596C94.91 53.7596 96.1086 53.4924 97.1483 52.9581C98.1881 52.4093 99.0041 51.6728 99.5961 50.7486C100.188 49.8243 100.484 48.7773 100.484 47.6076V44.0767C100.195 44.2644 99.7983 44.4377 99.2929 44.5966C98.8019 44.741 98.2459 44.8782 97.6249 45.0082C97.0039 45.1237 96.383 45.232 95.762 45.3331C95.141 45.4197 94.5778 45.4992 94.0724 45.5714C92.9893 45.7302 92.0434 45.983 91.2346 46.3295C90.4259 46.6761 89.7977 47.1455 89.3501 47.7376C88.9024 48.3152 88.6785 49.0373 88.6785 49.9038C88.6785 51.1602 89.1334 52.1205 90.0432 52.7848C90.9675 53.4347 92.1372 53.7596 93.5525 53.7596ZM116.807 59.5V26.2273H125.753V32.0327H126.1C126.706 29.9676 127.724 28.4079 129.154 27.3537C130.584 26.285 132.23 25.7507 134.093 25.7507C134.555 25.7507 135.053 25.7796 135.587 25.8374C136.122 25.8951 136.591 25.9745 136.995 26.0756V34.2638C136.562 34.1339 135.963 34.0183 135.198 33.9173C134.432 33.8162 133.732 33.7656 133.096 33.7656C131.739 33.7656 130.526 34.0617 129.457 34.6538C128.403 35.2314 127.565 36.0401 126.944 37.0799C126.338 38.1197 126.035 39.3183 126.035 40.6758V59.5H116.807ZM152.478 60.0415C149.951 60.0415 147.662 59.3917 145.612 58.092C143.575 56.7778 141.958 54.8499 140.759 52.3082C139.575 49.7521 138.983 46.6184 138.983 42.907C138.983 39.0945 139.597 35.9246 140.824 33.3974C142.052 30.8557 143.684 28.9567 145.72 27.7003C147.77 26.4295 150.016 25.794 152.457 25.794C154.32 25.794 155.872 26.1117 157.114 26.7472C158.37 27.3681 159.381 28.148 160.147 29.0866C160.926 30.0109 161.519 30.9207 161.923 31.816H162.205V15.1364H171.411V59.5H162.313V54.1712H161.923C161.49 55.0954 160.876 56.0124 160.082 56.9222C159.302 57.8176 158.284 58.5613 157.027 59.1534C155.785 59.7455 154.269 60.0415 152.478 60.0415ZM155.403 52.6982C156.89 52.6982 158.147 52.2938 159.172 51.4851C160.212 50.6619 161.006 49.5138 161.555 48.0408C162.118 46.5678 162.4 44.8421 162.4 42.8636C162.4 40.8852 162.125 39.1667 161.576 37.7081C161.028 36.2495 160.233 35.1231 159.194 34.3288C158.154 33.5346 156.89 33.1374 155.403 33.1374C153.886 33.1374 152.608 33.549 151.569 34.3722C150.529 35.1953 149.742 36.3362 149.207 37.7947C148.673 39.2533 148.406 40.9429 148.406 42.8636C148.406 44.7988 148.673 46.5101 149.207 47.9975C149.756 49.4705 150.543 50.6258 151.569 51.4634C152.608 52.2866 153.886 52.6982 155.403 52.6982Z" fill="black"/>
</svg>
