<svg width="32" height="32" viewBox="0 0 32 32" fill="none" xmlns="http://www.w3.org/2000/svg">
<circle cx="16" cy="16" r="15.5" fill="#9327FF" stroke="white"/>
<path d="M9.53408 20.1904H8.42612L11.6307 11.4632H12.7216L15.9261 20.1904H14.8182L12.2102 12.8438H12.142L9.53408 20.1904ZM9.94317 16.7813H14.4091V17.7188H9.94317V16.7813ZM22.0582 13.645C22.0071 13.2132 21.7997 12.8779 21.4361 12.6393C21.0724 12.4007 20.6264 12.2813 20.098 12.2813C19.7116 12.2813 19.3736 12.3438 19.0838 12.4688C18.7969 12.5938 18.5724 12.7657 18.4105 12.9845C18.2514 13.2032 18.1719 13.4518 18.1719 13.7302C18.1719 13.9632 18.2273 14.1634 18.3381 14.3311C18.4517 14.4958 18.5966 14.6336 18.7727 14.7444C18.9488 14.8524 19.1335 14.9418 19.3267 15.0129C19.5199 15.0811 19.6974 15.1365 19.8594 15.1791L20.7457 15.4177C20.973 15.4774 21.2258 15.5597 21.5042 15.6649C21.7855 15.77 22.054 15.9134 22.3096 16.0953C22.5682 16.2742 22.7812 16.5043 22.9488 16.7856C23.1165 17.0669 23.2003 17.412 23.2003 17.8211C23.2003 18.2927 23.0767 18.7188 22.8295 19.0995C22.5852 19.4802 22.2273 19.7828 21.7557 20.0072C21.2869 20.2316 20.7173 20.3438 20.0469 20.3438C19.4219 20.3438 18.8807 20.243 18.4233 20.0413C17.9687 19.8396 17.6108 19.5583 17.3494 19.1975C17.0909 18.8367 16.9446 18.4177 16.9105 17.9404H18.0014C18.0298 18.27 18.1406 18.5427 18.3338 18.7586C18.5298 18.9717 18.777 19.1308 19.0753 19.2359C19.3764 19.3382 19.7003 19.3893 20.0469 19.3893C20.4503 19.3893 20.8125 19.324 21.1335 19.1933C21.4545 19.0597 21.7088 18.8751 21.8963 18.6393C22.0838 18.4007 22.1775 18.1222 22.1775 17.8041C22.1775 17.5143 22.0966 17.2785 21.9346 17.0967C21.7727 16.9149 21.5596 16.7671 21.2954 16.6535C21.0312 16.5399 20.7457 16.4404 20.4389 16.3552L19.365 16.0484C18.6832 15.8524 18.1435 15.5725 17.7457 15.2089C17.348 14.8453 17.1491 14.3694 17.1491 13.7813C17.1491 13.2927 17.2812 12.8666 17.5454 12.5029C17.8125 12.1365 18.1704 11.8524 18.6193 11.6507C19.071 11.4461 19.5753 11.3438 20.1321 11.3438C20.6946 11.3438 21.1946 11.4447 21.6321 11.6464C22.0696 11.8453 22.4162 12.118 22.6719 12.4646C22.9304 12.8112 23.0667 13.2046 23.081 13.645H22.0582Z" fill="white"/>
</svg>
